<svg width="17" height="14" viewBox="0 0 17 14" fill="none" xmlns="http://www.w3.org/2000/svg">
<path d="M11 1.35999H1V10.0267H11V1.35999Z" stroke="black" stroke-linecap="round" stroke-linejoin="round"/>
<path d="M11 4.69336H13.6667L15.6667 6.69336V10.0267H11V4.69336Z" stroke="black" stroke-linecap="round" stroke-linejoin="round"/>
<path d="M4.00004 13.3599C4.92052 13.3599 5.66671 12.6138 5.66671 11.6933C5.66671 10.7728 4.92052 10.0266 4.00004 10.0266C3.07957 10.0266 2.33337 10.7728 2.33337 11.6933C2.33337 12.6138 3.07957 13.3599 4.00004 13.3599Z" stroke="black" stroke-linecap="round" stroke-linejoin="round"/>
<path d="M12.6667 13.3599C13.5871 13.3599 14.3333 12.6138 14.3333 11.6933C14.3333 10.7728 13.5871 10.0266 12.6667 10.0266C11.7462 10.0266 11 10.7728 11 11.6933C11 12.6138 11.7462 13.3599 12.6667 13.3599Z" stroke="black" stroke-linecap="round" stroke-linejoin="round"/>
</svg>
