<svg width="43" height="33" viewBox="0 0 43 33" fill="none" xmlns="http://www.w3.org/2000/svg">
<path d="M40.048 25.79C40.048 27.111 40.048 28.433 40.048 29.754C40.0693 30.0527 40.0264 30.3526 39.9223 30.6334C39.8181 30.9142 39.6551 31.1695 39.4442 31.3821C39.2333 31.5947 38.9793 31.7598 38.6993 31.8662C38.4194 31.9726 38.1199 32.0179 37.821 31.999C26.2876 31.999 14.757 31.999 3.22899 31.999C2.93009 32.0179 2.63059 31.9726 2.35063 31.8662C2.07067 31.7598 1.81674 31.5947 1.60582 31.3821C1.3949 31.1695 1.23187 30.9142 1.12773 30.6334C1.02359 30.3526 0.980725 30.0527 1.002 29.754C1.002 24.2793 1.002 18.8043 1.002 13.329C0.97974 13.0265 1.02328 12.7228 1.12962 12.4387C1.23596 12.1546 1.4026 11.8969 1.61803 11.6834C1.83346 11.4699 2.09254 11.3055 2.37755 11.2017C2.66256 11.0979 2.96673 11.0571 3.26903 11.082C8.3357 11.082 13.4023 11.082 18.469 11.082H19.05C18.721 10.746 18.45 10.476 18.189 10.202C18.092 10.1345 18.0129 10.0445 17.9585 9.93964C17.9042 9.83478 17.8761 9.71828 17.8768 9.60016C17.8774 9.48204 17.9069 9.36587 17.9625 9.26166C18.0181 9.15745 18.0982 9.06834 18.196 9.00201C21.09 6.10401 23.9847 3.207 26.88 0.311005C26.9766 0.182413 27.1116 0.0878346 27.2654 0.0409241C27.4193 -0.0059864 27.5841 -0.00279022 27.736 0.0500183C27.8916 0.114347 28.0211 0.22902 28.1038 0.375702C28.1865 0.522384 28.2175 0.692578 28.192 0.859009C28.184 2.25201 28.192 3.64502 28.192 5.03702C29.165 5.25502 30.117 5.43701 31.054 5.68301C33.7724 6.28832 36.2969 7.56209 38.399 9.38901C39.7178 10.5947 40.7379 12.0908 41.3783 13.759C42.0188 15.4272 42.2621 17.2215 42.089 19C41.949 21.0735 41.4805 23.1115 40.701 25.038C40.5541 25.3172 40.3756 25.5786 40.169 25.817L40.048 25.79ZM28.194 14.117C28.194 15.549 28.194 16.927 28.194 18.305C28.194 18.663 28.139 18.983 27.779 19.141C27.6164 19.2071 27.4363 19.2163 27.2678 19.1671C27.0993 19.1179 26.9524 19.0132 26.851 18.87C25.769 17.77 24.67 16.696 23.592 15.596C23.494 15.4839 23.372 15.3952 23.2351 15.3367C23.0982 15.2782 22.9498 15.2513 22.801 15.258C21.552 15.278 20.301 15.266 19.054 15.266C15.234 15.266 11.4137 15.266 7.593 15.266C7.351 15.266 7.17799 15.266 7.06999 15.566C6.93955 15.9376 6.72641 16.2747 6.44664 16.5519C6.16687 16.8291 5.8278 17.039 5.455 17.166C5.36539 17.1858 5.2867 17.239 5.23503 17.3148C5.18336 17.3907 5.1626 17.4834 5.17699 17.574C5.18365 20.218 5.18365 22.8617 5.17699 25.505C5.16263 25.5955 5.18341 25.6881 5.23509 25.7638C5.28678 25.8394 5.36547 25.8925 5.455 25.912C5.81485 26.0329 6.14324 26.2323 6.41637 26.4959C6.68949 26.7595 6.90047 27.0807 7.03398 27.436C7.06655 27.5643 7.14663 27.6756 7.25798 27.7472C7.36934 27.8188 7.50372 27.8456 7.63402 27.822C16.2187 27.8133 24.8033 27.811 33.388 27.815H33.845C33.9809 27.3353 34.2374 26.8984 34.5899 26.5459C34.9424 26.1934 35.3793 25.9369 35.859 25.801C35.859 23.355 35.859 20.93 35.852 18.501C35.844 18.3605 35.7899 18.2266 35.698 18.12C34.6496 16.8707 33.378 15.8273 31.948 15.043C30.8052 14.396 29.5066 14.0756 28.194 14.117ZM19.694 9.57101L26.799 16.671C26.799 15.709 26.799 14.696 26.799 13.682C26.7815 13.5769 26.787 13.4693 26.8151 13.3666C26.8432 13.2638 26.8933 13.1684 26.9618 13.0869C27.0303 13.0053 27.1157 12.9396 27.212 12.8942C27.3084 12.8488 27.4135 12.8249 27.52 12.824C29.3887 12.5059 31.3084 12.9103 32.89 13.955C35.9674 15.9024 38.3949 18.7223 39.863 22.055C39.922 22.179 39.983 22.303 40.043 22.427H40.195C40.364 21.242 40.606 20.063 40.689 18.872C40.9407 16.2683 40.1824 13.6675 38.571 11.607C37.3091 10.0759 35.6903 8.87848 33.857 8.12C31.8382 7.26035 29.7133 6.67548 27.539 6.38101C26.985 6.29501 26.799 6.07101 26.797 5.50201C26.797 4.61601 26.797 3.72999 26.797 2.84399C26.797 2.72199 26.781 2.60102 26.773 2.49002L19.694 9.57101ZM21.74 13.871L21.784 13.771C21.422 13.416 21.074 13.045 20.691 12.715C20.534 12.579 20.3364 12.4985 20.129 12.486C14.5223 12.474 8.91567 12.471 3.30901 12.477C2.62601 12.477 2.39598 12.709 2.39598 13.393C2.39598 18.8257 2.39598 24.259 2.39598 29.693C2.39598 30.375 2.629 30.607 3.312 30.607H37.739C38.421 30.607 38.653 30.373 38.654 29.691C38.654 27.977 38.561 26.256 38.683 24.551C38.7493 23.1248 38.3317 21.718 37.498 20.559C37.444 20.474 37.373 20.4 37.26 20.259C37.26 22.31 37.26 24.271 37.26 26.231C37.26 26.847 37.069 27.051 36.449 27.125C36.1209 27.1572 35.8141 27.3025 35.5813 27.536C35.3485 27.7695 35.2042 28.0767 35.173 28.405C35.1 29.021 34.894 29.212 34.273 29.212C25.1077 29.212 15.941 29.212 6.773 29.212C6.153 29.212 5.94697 29.023 5.87297 28.407C5.8429 28.0785 5.69926 27.7707 5.46672 27.5367C5.23418 27.3027 4.92731 27.1571 4.59898 27.125C3.97398 27.05 3.787 26.85 3.786 26.234C3.786 23.1113 3.786 19.9884 3.786 16.865C3.786 16.238 3.97198 16.032 4.58598 15.965C4.90719 15.9366 5.20924 15.8 5.44255 15.5774C5.67586 15.3548 5.82656 15.0595 5.86998 14.74C5.96998 14.014 6.12799 13.877 6.84599 13.877H21.739L21.74 13.871Z" fill="#FFFBFB"/>
<path d="M26.101 21.567C26.1186 22.3035 25.986 23.0358 25.7112 23.7194C25.4364 24.4029 25.0253 25.0233 24.5029 25.5427C23.9805 26.0621 23.3577 26.4697 22.6726 26.7405C21.9875 27.0114 21.2544 27.1398 20.518 27.118C19.7783 27.1386 19.0422 27.0076 18.355 26.7331C17.6678 26.4586 17.0441 26.0464 16.5222 25.5218C16.0002 24.9973 15.5911 24.3714 15.3201 23.6829C15.049 22.9943 14.9217 22.2576 14.946 21.518C14.9279 20.7778 15.0615 20.0418 15.3388 19.3553C15.616 18.6687 16.0309 18.0463 16.558 17.5262C17.085 17.0062 17.713 16.5997 18.4032 16.3317C19.0934 16.0637 19.8312 15.9399 20.571 15.968C21.3073 15.9528 22.0389 16.0877 22.7213 16.3646C23.4036 16.6415 24.0224 17.0545 24.5399 17.5785C25.0574 18.1024 25.4627 18.7263 25.7311 19.412C25.9995 20.0978 26.1254 20.831 26.101 21.567ZM20.543 25.723C21.0964 25.7384 21.647 25.6399 22.1606 25.4336C22.6743 25.2273 23.1401 24.9176 23.529 24.5237C23.918 24.1299 24.2219 23.6603 24.4218 23.1441C24.6217 22.6279 24.7133 22.0761 24.691 21.523C24.7087 20.9695 24.6123 20.4183 24.4077 19.9036C24.2032 19.389 23.8949 18.922 23.502 18.5316C23.1092 18.1413 22.6402 17.836 22.1242 17.6348C21.6083 17.4336 21.0564 17.3407 20.503 17.362C19.9496 17.3462 19.3989 17.4444 18.8851 17.6505C18.3712 17.8567 17.9053 18.1664 17.5164 18.5604C17.1274 18.9543 16.8236 19.4241 16.624 19.9405C16.4244 20.4569 16.3332 21.0088 16.356 21.562C16.3385 22.1154 16.435 22.6665 16.6396 23.181C16.8441 23.6955 17.1523 24.1624 17.545 24.5527C17.9378 24.943 18.4066 25.2482 18.9223 25.4496C19.4381 25.6509 19.9898 25.744 20.543 25.723Z" fill="#FFFBFB"/>
<path d="M10.749 19.451C11.2982 19.4509 11.8257 19.666 12.2182 20.0501C12.6108 20.4343 12.8372 20.9569 12.849 21.506C12.8524 21.7821 12.8014 22.0561 12.6989 22.3124C12.5963 22.5687 12.4442 22.8022 12.2513 22.9997C12.0584 23.1972 11.8284 23.3546 11.5746 23.4631C11.3208 23.5716 11.048 23.629 10.772 23.632C10.215 23.632 9.68091 23.4108 9.28708 23.017C8.89325 22.6231 8.672 22.089 8.672 21.532C8.67694 20.9823 8.89725 20.4565 9.28558 20.0674C9.67392 19.6783 10.1993 19.457 10.749 19.451ZM11.456 21.537C11.4531 21.3533 11.3781 21.1781 11.2471 21.0492C11.1162 20.9203 10.9398 20.848 10.756 20.8481C10.5723 20.8509 10.397 20.926 10.2681 21.0569C10.1392 21.1879 10.067 21.3643 10.067 21.548C10.0696 21.7319 10.1446 21.9074 10.2755 22.0366C10.4065 22.1657 10.5831 22.2381 10.767 22.238C10.9509 22.2351 11.1263 22.16 11.2552 22.0288C11.3842 21.8976 11.4563 21.721 11.456 21.537Z" fill="#FFFBFB"/>
<path d="M30.988 23.631C30.7116 23.631 30.438 23.5764 30.1827 23.4704C29.9275 23.3645 29.6957 23.2091 29.5006 23.0134C29.3055 22.8177 29.1509 22.5853 29.0458 22.3297C28.9407 22.0742 28.887 21.8003 28.888 21.524C28.8947 20.9741 29.117 20.4488 29.5068 20.061C29.8967 19.6732 30.4231 19.4538 30.973 19.45C31.2493 19.45 31.5228 19.5045 31.778 19.6104C32.0332 19.7163 32.2649 19.8715 32.46 20.0671C32.6551 20.2628 32.8097 20.495 32.9148 20.7505C33.02 21.0059 33.0738 21.2797 33.073 21.5559C33.0664 22.106 32.8443 22.6315 32.4544 23.0195C32.0646 23.4075 31.538 23.6271 30.988 23.631ZM30.965 20.847C30.7816 20.8532 30.608 20.9312 30.4816 21.0642C30.3551 21.1972 30.286 21.3745 30.289 21.558C30.2952 21.7413 30.3733 21.9149 30.5062 22.0414C30.6392 22.1678 30.8165 22.2369 31 22.2339C31.1835 22.2277 31.3573 22.1495 31.4837 22.0163C31.6102 21.8831 31.6792 21.7056 31.676 21.5219C31.6695 21.3387 31.5913 21.1654 31.4584 21.0392C31.3254 20.913 31.1483 20.844 30.965 20.847Z" fill="#FFFBFB"/>
<path d="M19.922 18.2169C19.894 17.8849 19.96 17.629 20.363 17.627C20.783 17.627 20.801 17.916 20.799 18.085C21.269 18.374 21.685 18.593 22.055 18.873C22.2176 19.0192 22.3281 19.2143 22.37 19.429C22.423 19.666 22.454 20.104 22.37 20.138C22.0825 20.2184 21.7813 20.2375 21.486 20.194C21.425 20.194 21.376 20.017 21.317 19.925C21.188 19.725 21.055 19.525 20.924 19.325L20.81 19.391V20.821C21.837 21.064 22.635 21.568 22.63 22.752C22.625 23.936 21.845 24.452 20.812 24.685C20.729 25.007 20.962 25.496 20.335 25.474C19.777 25.455 19.978 25.026 19.911 24.711C19.754 24.671 19.589 24.6359 19.427 24.5869C19.0291 24.4636 18.6825 24.2135 18.44 23.8748C18.1975 23.5361 18.0725 23.1274 18.084 22.711C18.096 22.435 18.203 22.3309 18.484 22.3239C19.149 22.3069 19.149 22.296 19.298 22.934C19.384 23.301 19.505 23.423 19.908 23.534V21.904C18.666 21.449 18.224 20.926 18.258 19.963C18.28 19.1 18.807 18.5359 19.922 18.2169ZM20.798 23.602C21.298 23.416 21.498 23.146 21.432 22.754C21.4237 22.5876 21.3545 22.4301 21.2376 22.3116C21.1207 22.193 20.9642 22.1216 20.798 22.111V23.602ZM19.904 19.331C19.7558 19.3664 19.6238 19.4507 19.5293 19.5702C19.4348 19.6898 19.3833 19.8376 19.383 19.99C19.3782 20.1472 19.4272 20.3015 19.5219 20.4271C19.6166 20.5528 19.7514 20.6423 19.904 20.681V19.331Z" fill="#FFFBFB"/>
</svg>
