<!-- <svg width="63" height="34" viewBox="0 0 63 34" fill="none" xmlns="http://www.w3.org/2000/svg">
    <path d="M0 29L5.347 34V29H0Z" fill="#4E009A" />
    <path d="M62.0252 3C62.0252 1.34315 60.6821 0 59.0252 0H3C1.34314 0 0 1.34315 0 3V29H59.0252C60.6821 29 62.0252 27.6569 62.0252 26V3Z" fill="#8200FF" />
</svg> -->

<svg width="85" height="34" viewBox="0 0 85 34" fill="none" xmlns="http://www.w3.org/2000/svg">
    <path d="M0 29L5 34V29H0Z" fill="#4E009A"/>
    <path d="M85 3C85 1.34315 83.6569 0 82 0H3C1.34315 0 0 1.34315 0 3V29H82C83.6569 29 85 27.6569 85 26V3Z" fill="#8200FF"/>
    </svg>