<svg width="449" height="263" viewBox="0 0 449 263" fill="none" xmlns="http://www.w3.org/2000/svg">
    <path d="M448.965 173.804V0H444.845C444.845 2.11924 442.62 3.83609 439.873 3.83609C437.126 3.83609 434.901 2.11924 434.901 0H431.442C431.442 2.11924 429.216 3.83609 426.47 3.83609C423.723 3.83609 421.498 2.11924 421.498 0H418.038C418.038 2.11924 415.813 3.83609 413.067 3.83609C410.32 3.83609 408.095 2.11924 408.095 0H404.635C404.635 2.11924 402.41 3.83609 399.663 3.83609C396.917 3.83609 394.691 2.11924 394.691 0H391.232C391.232 2.11924 389.007 3.83609 386.26 3.83609C383.513 3.83609 381.288 2.11924 381.288 0H377.829C377.829 2.11924 375.604 3.83609 372.857 3.83609C370.11 3.83609 367.885 2.11924 367.885 0H364.425C364.425 2.11924 362.2 3.83609 359.454 3.83609C356.707 3.83609 354.482 2.11924 354.482 0H351.022C351.022 2.11924 348.797 3.83609 346.05 3.83609C343.738 3.83609 341.791 2.61551 341.235 0.952315V0H341.078H337.619H337.115C337.115 2.05217 335.029 3.72878 332.386 3.82267C329.761 3.71537 327.658 2.05217 327.658 0H327.154H323.694H323.538V0.965728C322.981 2.61551 321.034 3.8495 318.722 3.8495C315.976 3.8495 313.75 2.13265 313.75 0.0134129H310.291C310.291 2.13265 308.066 3.8495 305.319 3.8495C302.572 3.8495 300.347 2.13265 300.347 0.0134129H296.888C296.888 2.13265 294.663 3.8495 291.916 3.8495C289.169 3.8495 286.944 2.13265 286.944 0.0134129H283.484C283.484 2.13265 281.259 3.8495 278.513 3.8495C275.766 3.8495 273.541 2.13265 273.541 0.0134129H270.081C270.081 2.13265 267.856 3.8495 265.109 3.8495C262.363 3.8495 260.137 2.13265 260.137 0.0134129H256.678C256.678 2.13265 254.453 3.8495 251.706 3.8495C248.959 3.8495 246.734 2.13265 246.734 0.0134129H243.275C243.275 2.13265 241.05 3.8495 238.303 3.8495C235.556 3.8495 233.331 2.13265 233.331 0.0134129H233.088H229.889H228.985C228.985 2.01193 227.003 3.63489 224.465 3.82267C221.927 3.64831 219.945 2.02535 219.945 0.0134129H219.041H215.842H215.599C215.599 2.13265 213.374 3.8495 210.627 3.8495C207.88 3.8495 205.655 2.13265 205.655 0.0134129H202.196C202.196 2.13265 199.971 3.8495 197.224 3.8495C194.477 3.8495 192.252 2.13265 192.252 0.0134129H188.793C188.793 2.13265 186.567 3.8495 183.821 3.8495C181.074 3.8495 178.849 2.13265 178.849 0.0134129H175.389C175.389 2.13265 173.164 3.8495 170.417 3.8495C167.671 3.8495 165.445 2.13265 165.445 0.0134129H161.986C161.986 2.13265 159.761 3.8495 157.014 3.8495C154.267 3.8495 152.042 2.13265 152.042 0.0134129H148.583C148.583 2.13265 146.358 3.8495 143.611 3.8495C140.864 3.8495 138.639 2.13265 138.639 0.0134129H135.18C135.18 2.13265 132.954 3.8495 130.208 3.8495C127.896 3.8495 125.949 2.62893 125.392 0.965728V0H125.236H121.776H121.272C121.272 2.05217 119.186 3.72878 116.544 3.82267C113.936 3.72878 111.833 2.05217 111.833 0H111.328H107.869H107.712V0.965728C107.156 2.61551 105.209 3.8495 102.897 3.8495C100.15 3.8495 97.9252 2.13265 97.9252 0.0134129H94.4657C94.4657 2.13265 92.2405 3.8495 89.4938 3.8495C86.7471 3.8495 84.5219 2.13265 84.5219 0.0134129H81.0624C81.0624 2.13265 78.8373 3.8495 76.0905 3.8495C73.3438 3.8495 71.1187 2.13265 71.1187 0.0134129H67.6592C67.6592 2.13265 65.434 3.8495 62.6873 3.8495C59.9406 3.8495 57.7328 2.11924 57.7328 0H54.2733C54.2733 2.11924 52.0482 3.83609 49.3014 3.83609C46.5547 3.83609 44.3296 2.11924 44.3296 0H40.8701C40.8701 2.11924 38.6449 3.83609 35.8982 3.83609C33.1515 3.83609 30.9263 2.11924 30.9263 0H27.4668C27.4668 2.11924 25.2417 3.83609 22.495 3.83609C19.7482 3.83609 17.5231 2.11924 17.5231 0H14.0636C14.0636 2.11924 11.8384 3.83609 9.09171 3.83609C6.345 3.83609 4.11982 2.11924 4.11982 0H-0.000244141V173.804V186.761V262.987H4.11982C4.11982 260.867 6.345 259.15 9.09171 259.15C11.8384 259.15 14.0636 260.867 14.0636 262.987H17.5231C17.5231 260.867 19.7482 259.15 22.495 259.15C25.2417 259.15 27.4668 260.867 27.4668 262.987H30.9263C30.9263 260.867 33.1515 259.15 35.8982 259.15C38.6449 259.15 40.8701 260.867 40.8701 262.987H44.3296C44.3296 260.867 46.5547 259.15 49.3014 259.15C52.0482 259.15 54.2733 260.867 54.2733 262.987H57.7328C57.7328 260.867 59.958 259.15 62.7047 259.15C65.4514 259.15 67.6766 260.867 67.6766 262.987H71.136C71.136 260.867 73.3612 259.15 76.1079 259.15C78.8546 259.15 81.0798 260.867 81.0798 262.987H84.5393C84.5393 260.867 86.7645 259.15 89.5112 259.15C92.2579 259.15 94.4831 260.867 94.4831 262.987H97.9425C97.9425 260.867 100.168 259.15 102.914 259.15C105.227 259.15 107.174 260.371 107.73 262.034V263H107.886H111.346H111.85C111.85 260.948 113.936 259.271 116.578 259.177C119.203 259.285 121.307 260.948 121.307 263H121.811H125.271H125.427V262.034C125.983 260.384 127.93 259.15 130.242 259.15C132.989 259.15 135.214 260.867 135.214 262.987H138.674C138.674 260.867 140.899 259.15 143.646 259.15C146.392 259.15 148.618 260.867 148.618 262.987H152.077C152.077 260.867 154.302 259.15 157.049 259.15C159.796 259.15 162.021 260.867 162.021 262.987H165.48C165.48 260.867 167.705 259.15 170.452 259.15C173.199 259.15 175.424 260.867 175.424 262.987H178.884C178.884 260.867 181.109 259.15 183.855 259.15C186.602 259.15 188.827 260.867 188.827 262.987H192.287C192.287 260.867 194.512 259.15 197.259 259.15C200.005 259.15 202.231 260.867 202.231 262.987H205.69C205.69 260.867 207.915 259.15 210.662 259.15C213.409 259.15 215.634 260.867 215.634 262.987H215.877H219.076H219.98C219.98 260.988 221.962 259.365 224.5 259.177C227.038 259.352 229.02 260.975 229.02 262.987H229.924H233.122H233.366C233.366 260.867 235.591 259.15 238.338 259.15C241.084 259.15 243.309 260.867 243.309 262.987H246.769C246.769 260.867 248.994 259.15 251.741 259.15C254.488 259.15 256.713 260.867 256.713 262.987H260.172C260.172 260.867 262.397 259.15 265.144 259.15C267.891 259.15 270.116 260.867 270.116 262.987H273.575C273.575 260.867 275.801 259.15 278.547 259.15C281.294 259.15 283.519 260.867 283.519 262.987H286.979C286.979 260.867 289.204 259.15 291.951 259.15C294.697 259.15 296.922 260.867 296.922 262.987H300.382C300.382 260.867 302.607 259.15 305.354 259.15C308.101 259.15 310.326 260.867 310.326 262.987H313.785C313.785 260.867 316.01 259.15 318.757 259.15C321.069 259.15 323.016 260.371 323.573 262.034V263H323.729H327.188H327.693C327.693 260.948 329.779 259.271 332.421 259.177C335.046 259.285 337.15 260.948 337.15 263H337.654H341.113H341.27V262.034C341.826 260.384 343.773 259.15 346.085 259.15C348.832 259.15 351.057 260.867 351.057 262.987H354.516C354.516 260.867 356.742 259.15 359.488 259.15C362.235 259.15 364.46 260.867 364.46 262.987H367.92C367.92 260.867 370.145 259.15 372.892 259.15C375.638 259.15 377.863 260.867 377.863 262.987H381.323C381.323 260.867 383.548 259.15 386.295 259.15C389.042 259.15 391.267 260.867 391.267 262.987H394.726C394.726 260.867 396.951 259.15 399.698 259.15C402.445 259.15 404.67 260.867 404.67 262.987H408.129C408.129 260.867 410.355 259.15 413.101 259.15C415.848 259.15 418.073 260.867 418.073 262.987H421.533C421.533 260.867 423.758 259.15 426.505 259.15C429.251 259.15 431.476 260.867 431.476 262.987H434.936C434.936 260.867 437.161 259.15 439.908 259.15C442.654 259.15 444.88 260.867 444.88 262.987H449V186.761L448.965 173.804Z" fill="url(#paint0_linear_221_899)"/>
    <defs>
    <linearGradient id="paint0_linear_221_899" x1="224.5" y1="0" x2="224.5" y2="263" gradientUnits="userSpaceOnUse">
    <stop stop-color="#FA473F" stop-opacity="0.4"/>
    <stop offset="1" stop-color="#FFBAC0" stop-opacity="0.6"/>
    </linearGradient>
    </defs>
    </svg>
    