<svg width="15" height="16" viewBox="0 0 15 16" fill="none" xmlns="http://www.w3.org/2000/svg">
<g clip-path="url(#clip0_40_793)">
<path d="M7.64971 0C8.05806 0.0556522 8.38474 0.306087 8.65697 0.612174C8.87476 0.834783 9.11977 1.05739 9.33755 1.30783C9.50089 1.47478 9.66423 1.50261 9.85479 1.47478C10.2359 1.41913 10.617 1.36348 11.0254 1.30783C11.8693 1.19652 12.4954 1.66957 12.6316 2.53217C12.686 2.92174 12.7677 3.3113 12.8221 3.67304C12.8493 3.89565 12.9582 4.03478 13.1488 4.11826C13.5027 4.31304 13.8566 4.48 14.2105 4.67478C14.9455 5.06435 15.1905 5.84348 14.8094 6.59478C14.6461 6.95652 14.4827 7.31826 14.2922 7.68C14.1833 7.87478 14.1833 8.06957 14.2922 8.26435C14.4555 8.59826 14.6189 8.96 14.7822 9.29391C15.1633 10.1009 14.9183 10.8522 14.1561 11.2696C13.8294 11.4643 13.4755 11.6313 13.1488 11.8261C12.9582 11.9374 12.8493 12.0765 12.8221 12.2991C12.7677 12.6887 12.686 13.1061 12.6043 13.4957C12.441 14.3304 11.7876 14.8035 10.9437 14.6643C10.5626 14.6087 10.1815 14.553 9.77312 14.4974C9.58256 14.4696 9.44645 14.5252 9.31033 14.6643C9.01087 14.9426 8.73864 15.2487 8.43919 15.527C7.84027 16.1113 7.0508 16.1113 6.45189 15.527C6.17966 15.2487 5.8802 14.9704 5.60797 14.6922C5.44463 14.5252 5.28129 14.4696 5.06351 14.5252C4.68238 14.5809 4.30126 14.6365 3.89291 14.6922C3.04899 14.8035 2.42285 14.3026 2.28674 13.44C2.23229 13.0504 2.15062 12.6887 2.09617 12.2991C2.06895 12.1043 1.96006 11.9374 1.7695 11.8539C1.41559 11.6591 1.08891 11.4922 0.735013 11.2974C-1.44541e-05 10.88 -0.245023 10.1287 0.108878 9.34957C0.272218 9.01565 0.435557 8.65391 0.598897 8.32C0.707789 8.09739 0.707789 7.90261 0.598897 7.70783C0.408334 7.34609 0.244995 7.01217 0.0816552 6.65043C-0.272247 5.89913 -0.0272377 5.12 0.680566 4.73043C1.03447 4.53565 1.36115 4.34087 1.71505 4.17391C1.93283 4.06261 2.0145 3.89565 2.06895 3.67304C2.1234 3.28348 2.20507 2.89391 2.25951 2.50435C2.42285 1.64174 3.07621 1.19652 3.92013 1.33565C4.30126 1.3913 4.68238 1.44696 5.06351 1.50261C5.25407 1.53043 5.39018 1.47478 5.5263 1.33565C5.77131 1.08522 6.01632 0.862609 6.2341 0.64C6.50634 0.333913 6.83302 0.111304 7.24136 0.0278261C7.45915 0 7.54082 0 7.64971 0ZM3.75679 13.8017C4.13792 13.7461 4.54626 13.6904 4.95461 13.6348C5.47185 13.5513 5.90743 13.6904 6.28855 14.0522C6.56078 14.3304 6.86024 14.6087 7.13247 14.887C7.37748 15.1096 7.62249 15.1096 7.8675 14.887C8.16695 14.6087 8.43919 14.3026 8.73864 14.0243C9.06532 13.7183 9.44645 13.5513 9.88202 13.607C10.3176 13.6626 10.7259 13.7183 11.1615 13.8017C11.4882 13.8574 11.6788 13.7183 11.7604 13.3843C11.8149 13.0504 11.8965 12.6887 11.9238 12.3548C12.0054 11.7148 12.3049 11.2417 12.9038 10.9635C13.2033 10.8243 13.4755 10.6574 13.7477 10.5183C14.1288 10.2957 14.2105 10.1009 13.9927 9.68348C13.8294 9.34957 13.666 8.98783 13.5027 8.65391C13.2849 8.2087 13.2849 7.76348 13.5027 7.31826C13.666 6.95652 13.8566 6.59478 14.0199 6.23304C14.1833 5.89913 14.1016 5.67652 13.7749 5.48174C13.421 5.28696 13.0944 5.09217 12.7405 4.92522C12.2777 4.67478 12.0327 4.31304 11.951 3.81217C11.8965 3.39478 11.8149 3.00522 11.7332 2.58783C11.6788 2.28174 11.461 2.14261 11.1615 2.17043C10.7804 2.22609 10.3993 2.28174 9.99091 2.33739C9.47367 2.42087 9.0381 2.28174 8.65697 1.89217C8.38474 1.61391 8.11251 1.33565 7.81305 1.05739C7.56804 0.806957 7.32303 0.806957 7.07802 1.05739C6.83302 1.3913 6.56078 1.66957 6.26133 1.97565C5.93465 2.30957 5.55352 2.4487 5.09073 2.39304C4.68238 2.33739 4.24681 2.28174 3.83846 2.22609C3.51178 2.17043 3.294 2.30957 3.23955 2.64348C3.1851 2.97739 3.10343 3.33913 3.07621 3.67304C2.99454 4.31304 2.69509 4.78609 2.1234 5.03652C1.82394 5.17565 1.52449 5.34261 1.25225 5.50957C0.898352 5.70435 0.843906 5.92696 1.00724 6.2887C1.17058 6.65044 1.33392 6.98435 1.49726 7.34609C1.71505 7.7913 1.71505 8.26435 1.49726 8.70957C1.33392 9.0713 1.14336 9.43304 0.980022 9.79478C0.816682 10.1287 0.898352 10.3513 1.22503 10.5183C1.57893 10.713 1.93283 10.9078 2.28674 11.0748C2.72231 11.2974 2.96732 11.687 3.04899 12.1878C3.10343 12.6052 3.1851 13.0226 3.26677 13.44C3.294 13.6626 3.48456 13.8017 3.75679 13.8017Z" fill="url(#paint0_linear_40_793)"/>
<path d="M4.51903 11.4922C4.32847 11.4922 4.21957 11.4087 4.1379 11.2418C4.05623 11.0748 4.08346 10.9078 4.16513 10.7687C4.19235 10.7131 4.2468 10.6852 4.30124 10.6296C6.20687 8.65392 8.13972 6.67827 10.0726 4.70262C10.1815 4.59132 10.2904 4.48001 10.4537 4.48001C10.6443 4.48001 10.7804 4.56349 10.862 4.73045C10.9437 4.8974 10.9165 5.06436 10.8076 5.20349C10.7804 5.25914 10.7259 5.28697 10.6987 5.34262C8.76585 7.31827 6.833 9.29392 4.90015 11.2696C4.81849 11.4087 4.68237 11.52 4.51903 11.4922Z" fill="url(#paint1_linear_40_793)"/>
<path d="M5.68964 7.23479C4.76405 7.23479 4.02902 6.48348 4.02902 5.53739C4.02902 4.61913 4.79127 3.86783 5.68964 3.86783C6.58801 3.86783 7.32303 4.64696 7.32303 5.56522C7.35026 6.48348 6.58801 7.23479 5.68964 7.23479ZM5.68964 4.78609C5.28129 4.78609 4.95461 5.12 4.92739 5.53739C4.92739 5.95479 5.28129 6.31652 5.68964 6.31652C6.09799 6.31652 6.42467 5.95479 6.42467 5.53739C6.45189 5.12 6.12521 4.78609 5.68964 4.78609Z" fill="url(#paint2_linear_40_793)"/>
<path d="M9.31034 8.76523C10.2359 8.76523 10.971 9.51653 10.9437 10.4626C10.9437 11.3809 10.1815 12.1322 9.28311 12.1322C8.38475 12.1322 7.64972 11.3531 7.64972 10.4348C7.64972 9.51653 8.41197 8.76523 9.31034 8.76523ZM9.31034 11.2139C9.71869 11.2139 10.0454 10.88 10.0726 10.4626C10.0726 10.0452 9.71869 9.68349 9.31034 9.68349C8.90199 9.68349 8.57531 10.0452 8.57531 10.4626C8.54809 10.88 8.87476 11.2139 9.31034 11.2139Z" fill="url(#paint3_linear_40_793)"/>
</g>
<defs>
<linearGradient id="paint0_linear_40_793" x1="7.45428" y1="0" x2="7.45428" y2="15.9652" gradientUnits="userSpaceOnUse">
<stop stop-color="#FE858C"/>
<stop offset="1" stop-color="#FA9A40"/>
</linearGradient>
<linearGradient id="paint1_linear_40_793" x1="7.49906" y1="4.48001" x2="7.49906" y2="11.4965" gradientUnits="userSpaceOnUse">
<stop stop-color="#FE858C"/>
<stop offset="1" stop-color="#FA9A40"/>
</linearGradient>
<linearGradient id="paint2_linear_40_793" x1="5.67638" y1="3.86783" x2="5.67638" y2="7.23479" gradientUnits="userSpaceOnUse">
<stop stop-color="#FE858C"/>
<stop offset="1" stop-color="#FA9A40"/>
</linearGradient>
<linearGradient id="paint3_linear_40_793" x1="9.29709" y1="8.76523" x2="9.29709" y2="12.1322" gradientUnits="userSpaceOnUse">
<stop stop-color="#FE858C"/>
<stop offset="1" stop-color="#FA9A40"/>
</linearGradient>
<clipPath id="clip0_40_793">
<rect width="15" height="16" fill="white"/>
</clipPath>
</defs>
</svg>
