<svg width="20" height="18" viewBox="0 0 20 18" fill="none" xmlns="http://www.w3.org/2000/svg">
    <g clip-path="url(#clip0_40_802)">
    <path d="M10 18C7.32394 18 4.6831 18 2.00704 18C0.774648 18 0 17.1935 0 15.9104C0 11.2912 0 6.70876 0 2.08961C0 0.806517 0.774648 0 2.00704 0C3.06338 0 4.11972 0 5.17606 0C5.84507 0 6.37324 0.256619 6.76056 0.843177C7.11268 1.35642 7.5 1.86965 7.85211 2.38289C8.06338 2.71283 8.34507 2.85947 8.73239 2.85947C11.7958 2.85947 14.8592 2.85947 17.9577 2.85947C19.1901 2.85947 19.9648 3.66599 19.9648 4.94908C19.9648 8.61507 19.9648 12.2811 19.9648 15.947C19.9648 17.2301 19.1901 18.0367 17.9577 18.0367C15.3169 18 12.6408 18 10 18ZM10 16.9369C12.6761 16.9369 15.3169 16.9369 17.993 16.9369C18.662 16.9369 18.9789 16.6069 18.9789 15.9104C18.9789 12.2444 18.9789 8.57841 18.9789 4.91242C18.9789 4.21589 18.662 3.88595 17.993 3.88595C14.8944 3.88595 11.831 3.88595 8.73239 3.88595C8.02817 3.88595 7.5 3.59267 7.07747 3.00611C6.72535 2.49287 6.33803 2.01629 5.98592 1.50305C5.77465 1.17312 5.49296 1.02648 5.10563 1.02648C4.0493 1.02648 3.02817 1.02648 1.97183 1.02648C1.33803 1.02648 0.985915 1.35642 0.985915 2.05295C0.985915 6.6721 0.985915 11.2912 0.985915 15.9104C0.985915 16.5703 1.30282 16.9369 1.97183 16.9369C4.64789 16.9369 7.32394 16.9369 10 16.9369Z" fill="url(#paint0_linear_40_802)"/>
    <path d="M11.5845 13.0143C9.71831 14.4073 7.5 13.8208 6.40845 12.2811C5.28169 10.7414 5.45775 8.57842 6.79578 7.22201C8.1338 5.90225 10.2113 5.79227 11.6549 7.00205C13.0986 8.21183 13.5211 10.4847 12.2535 12.3177C12.3944 12.4644 12.5704 12.5744 12.7113 12.721C13.169 13.1976 13.662 13.7108 14.1197 14.1874C14.3662 14.444 14.4014 14.7739 14.1549 14.9939C13.9437 15.2139 13.6268 15.2139 13.3803 14.9572C12.8169 14.3707 12.2535 13.7841 11.6901 13.1976C11.6549 13.1609 11.6197 13.0509 11.5845 13.0143ZM9.33099 7.22201C7.88733 7.22201 6.69014 8.43178 6.69014 9.9715C6.69014 11.5112 7.85211 12.7576 9.33099 12.7576C10.8099 12.7576 12.007 11.5479 12.007 10.0082C12.007 8.46844 10.8099 7.22201 9.33099 7.22201Z" fill="url(#paint1_linear_40_802)"/>
    </g>
    <defs>
    <linearGradient id="paint0_linear_40_802" x1="9.98239" y1="0" x2="9.98239" y2="18.0367" gradientUnits="userSpaceOnUse">
    <stop stop-color="#FF8393"/>
    <stop offset="1" stop-color="#FA9A40"/>
    </linearGradient>
    <linearGradient id="paint1_linear_40_802" x1="9.99445" y1="6.15942" x2="9.99445" y2="15.1546" gradientUnits="userSpaceOnUse">
    <stop stop-color="#FF8393"/>
    <stop offset="1" stop-color="#FA9A40"/>
    </linearGradient>
    <clipPath id="clip0_40_802">
    <rect width="20" height="18" fill="white"/>
    </clipPath>
    </defs>
    </svg>
    