<svg width="14" height="14" viewBox="0 0 14 14" fill="none" xmlns="http://www.w3.org/2000/svg">
    <path d="M11.7653 1.48067C11.6465 1.28368 11.4789 1.12063 11.2788 1.00725C11.0786 0.893861 10.8526 0.833964 10.6226 0.833333H3.37725C2.91192 0.833333 2.47392 1.08133 2.23459 1.48067L0.428586 4.49C0.366089 4.59361 0.333122 4.71234 0.333252 4.83333C0.335915 5.47681 0.572915 6.09728 0.999919 6.57867V12.1667C0.999919 12.902 1.59792 13.5 2.33325 13.5H11.6666C12.4019 13.5 12.9999 12.902 12.9999 12.1667V6.57867C13.4269 6.09728 13.6639 5.47681 13.6666 4.83333C13.6667 4.71234 13.6337 4.59361 13.5713 4.49L11.7653 1.48067ZM12.3226 5.00067C12.2814 5.32255 12.1245 5.61843 11.8811 5.83302C11.6376 6.0476 11.3244 6.16621 10.9999 6.16667C10.2646 6.16667 9.66659 5.56867 9.66659 4.83333C9.66659 4.788 9.64992 4.748 9.64059 4.70533L9.65392 4.70267L9.14659 2.16667H10.6226L12.3226 5.00067ZM6.21259 2.16667H7.78659L8.32859 4.87667C8.30525 5.59133 7.71992 6.16667 6.99992 6.16667C6.27992 6.16667 5.69459 5.59133 5.67125 4.87667L6.21259 2.16667ZM3.37725 2.16667H4.85325L4.34659 4.70267L4.35992 4.70533C4.34992 4.748 4.33325 4.788 4.33325 4.83333C4.33325 5.56867 3.73525 6.16667 2.99992 6.16667C2.67542 6.16621 2.36219 6.0476 2.11877 5.83302C1.87535 5.61843 1.7184 5.32255 1.67725 5.00067L3.37725 2.16667ZM5.66659 12.1667V10.1667H8.33325V12.1667H5.66659ZM9.66659 12.1667V10.1667C9.66659 9.43133 9.06859 8.83333 8.33325 8.83333H5.66659C4.93125 8.83333 4.33325 9.43133 4.33325 10.1667V12.1667H2.33325V7.40533C2.54725 7.46067 2.76792 7.5 2.99992 7.5C3.37846 7.5002 3.75269 7.4196 4.09759 7.26359C4.44249 7.10758 4.75012 6.87975 4.99992 6.59533C5.48859 7.15 6.20459 7.5 6.99992 7.5C7.79525 7.5 8.51125 7.15 8.99992 6.59533C9.24972 6.87975 9.55735 7.10758 9.90225 7.26359C10.2471 7.4196 10.6214 7.5002 10.9999 7.5C11.2319 7.5 11.4526 7.46067 11.6666 7.40533V12.1667H9.66659Z" fill="black"/>
    </svg>
    