<svg width="19" height="19" viewBox="0 0 19 19" fill="none" xmlns="http://www.w3.org/2000/svg">
    <g clip-path="url(#clip0_200_732)">
    <path d="M0 11.8563C0.0748032 11.4823 0.336614 11.2579 0.635827 11.0334C2.3563 9.9114 4.03937 8.75195 5.75984 7.6299C5.87205 7.5551 5.94685 7.4803 6.02165 7.36809C7.85433 5.04919 9.64961 2.7677 11.4449 0.448799C11.8563 -0.0748235 12.3799 -0.149627 12.9035 0.261791C14.7736 1.72045 16.6811 3.17911 18.5512 4.67518C19.0374 5.04919 19.1122 5.57281 18.7382 6.09644C18.4016 6.54526 18.065 6.95667 17.7283 7.40549C17.6535 7.5177 17.6161 7.5925 17.7283 7.70471C18.0276 8.11612 18.2894 8.52754 18.5886 8.97636C18.9252 9.49998 18.813 10.0236 18.3268 10.3602C16.3819 11.6693 14.3996 12.9783 12.4547 14.2874C12.3425 14.3622 12.2677 14.437 12.1929 14.5492C11.2205 15.6712 10.2854 16.8307 9.35039 18.0275C8.93898 18.5886 8.41535 18.626 7.89173 18.2146C7.66732 18.0649 7.48031 17.8779 7.25591 17.7283C7.0315 17.8779 6.80709 18.0275 6.58268 18.1771C6.28346 18.3642 5.98425 18.5886 5.68504 18.7756C5.53543 18.8878 5.34842 18.9626 5.19882 19.0374C5.08661 19.0374 4.97441 19.0374 4.8622 19.0374C4.52559 18.9252 4.33858 18.7008 4.15158 18.439C2.87992 16.4941 1.60827 14.624 0.336614 12.7165C0.187008 12.4921 0.112205 12.2677 0 12.0433C0 12.0059 0 11.9311 0 11.8563ZM17.2795 7.03148C17.6161 6.58266 17.9528 6.17124 18.2894 5.72242C18.4764 5.49801 18.439 5.311 18.2146 5.124C16.3071 3.62793 14.437 2.16927 12.5295 0.673208C12.2677 0.4862 12.1181 0.4862 11.8937 0.748011C10.7343 2.24407 9.5748 3.74014 8.41535 5.2362C8.07874 5.64762 7.77953 6.05904 7.44291 6.47045C7.51772 6.47045 7.55512 6.43305 7.62992 6.39565C8.22835 5.98423 8.82677 5.61022 9.4252 5.1988C9.5 5.1614 9.64961 5.124 9.72441 5.1614C9.79921 5.1988 9.87402 5.34841 9.87402 5.42321C9.83661 5.53541 9.76181 5.64762 9.64961 5.68502C7.40551 7.18108 5.16142 8.67715 2.95472 10.1732C2.87992 10.248 2.76772 10.2854 2.69291 10.3602C3.32874 11.8189 3.10433 13.0905 1.94488 14.1752C2.4311 14.8858 2.91732 15.6338 3.40354 16.3445C4.86221 15.7086 6.13386 15.9331 7.2185 17.0925C10.1732 15.0728 13.0906 13.0905 16.0453 11.1456C15.4094 9.68699 15.6339 8.41534 16.7933 7.33069C16.3071 6.62006 15.8209 5.87203 15.3346 5.1614C14.6988 5.49801 14.0256 5.61022 13.315 5.46061C12.6043 5.311 12.0059 4.97439 11.5571 4.41337C11.3701 4.52557 11.2205 4.63778 11.0709 4.71258C10.9961 4.74998 10.8465 4.74998 10.7717 4.71258C10.6968 4.63778 10.6594 4.52557 10.6594 4.41337C10.6594 4.33856 10.7717 4.26376 10.8091 4.22636C11.5945 3.74014 12.3425 3.21652 13.128 2.69289C13.689 2.31888 14.1752 2.43108 14.5492 2.99211C15.4094 4.30116 16.2697 5.57281 17.1673 6.88187C17.1673 6.91927 17.2421 6.95667 17.2795 7.03148ZM16.5315 10.809C17.0177 10.4724 17.4665 10.1732 17.9528 9.83659C18.2146 9.64959 18.252 9.49998 18.065 9.23817C17.8032 8.82675 17.5039 8.41533 17.2421 8.00392C17.2047 7.92911 17.1673 7.89171 17.1299 7.81691C16.2697 8.49014 15.9705 9.9488 16.5315 10.809ZM15.0354 4.67518C14.6988 4.18896 14.3996 3.74014 14.063 3.25392C13.9134 3.02951 13.7264 2.99211 13.4646 3.14171C13.0157 3.44093 12.6043 3.70274 12.1555 4.00195C12.1181 4.03935 12.0433 4.07675 12.0059 4.11415C12.6791 4.97439 14.1378 5.2362 15.0354 4.67518ZM3.74016 16.7933C4.07677 17.2795 4.41339 17.7657 4.7126 18.252C4.86221 18.439 5.04921 18.4764 5.23622 18.3642C5.61024 18.1397 5.94685 17.8779 6.32087 17.6535C6.47047 17.5787 6.58268 17.4665 6.69488 17.3917C6.13386 16.5315 4.6378 16.2323 3.74016 16.7933ZM1.64567 13.6516C2.61811 12.8661 2.73031 11.4823 2.20669 10.6594C1.68307 10.996 1.19685 11.3327 0.71063 11.6693C0.561024 11.7815 0.523622 11.9685 0.635827 12.1181C0.935039 12.6417 1.30906 13.1653 1.64567 13.6516ZM7.74213 17.3543C7.92913 17.5039 8.11614 17.6161 8.26575 17.7657C8.52756 17.9901 8.71457 17.9527 8.93898 17.6909C9.5 16.9803 10.061 16.2697 10.622 15.559C10.6594 15.5216 10.6969 15.4842 10.6969 15.4468C10.6969 15.4468 10.6969 15.4468 10.6594 15.4468C9.68701 16.0453 8.71457 16.7185 7.74213 17.3543Z" fill="#C15254"/>
    <path d="M13.0157 10.7343C13.0157 12.3425 11.9684 13.7638 10.4723 14.2126C10.3227 14.25 10.1731 14.2874 10.0983 14.1004C9.98613 13.9134 10.0609 13.7264 10.2853 13.689C10.6968 13.5768 11.0708 13.3898 11.37 13.0906C12.3798 12.2303 12.7164 11.1083 12.3424 9.83662C11.9684 8.56497 11.0708 7.81694 9.79912 7.62993C8.11605 7.40552 6.61999 8.52757 6.32078 10.2106C6.05897 11.7815 7.10621 13.3524 8.71448 13.7264C8.82668 13.7638 8.93889 13.8012 8.97629 13.9134C9.01369 13.9882 8.97629 14.1378 8.93889 14.2126C8.86408 14.2874 8.71448 14.3248 8.63967 14.2874C7.96645 14.1378 7.33062 13.8386 6.8444 13.315C5.83456 12.2677 5.49794 10.9961 5.94676 9.61221C6.39558 8.22835 7.40542 7.36812 8.82668 7.14371C10.996 6.76969 13.0157 8.49016 13.0157 10.7343Z" fill="#C15254"/>
    <path d="M10.6968 12.2303C10.9212 12.6043 10.9212 12.7165 10.7716 12.8287C10.622 12.9409 10.5098 12.9035 10.2853 12.6043C10.0235 12.6791 9.76173 12.7165 9.53732 12.7539C9.31291 12.7913 9.2007 12.6791 9.2007 12.4921C9.2007 12.3051 9.31291 12.2303 9.49992 12.1929C9.64952 12.1929 9.79913 12.1181 9.98614 12.1181C9.72433 11.7067 9.46252 11.3327 9.2007 10.9587C9.1633 10.9213 9.0885 10.8839 9.0511 10.8839C8.9763 10.8839 8.86409 10.8839 8.78929 10.8839C8.37787 10.8839 8.04126 10.7717 7.85425 10.3976C7.66724 10.0236 7.66724 9.64961 7.92905 9.27559C8.00385 9.16339 8.00385 9.12599 7.92905 9.01378C7.77944 8.82677 7.81685 8.67717 7.96645 8.56496C8.11606 8.45276 8.26566 8.49016 8.41527 8.67717C8.45267 8.71457 8.45267 8.75197 8.49007 8.75197C8.71448 8.71457 8.93889 8.67717 9.1259 8.67717C9.31291 8.67717 9.42511 8.78937 9.42511 8.93898C9.42511 9.12599 9.31291 9.20079 9.1259 9.20079C9.0511 9.20079 8.93889 9.20079 8.82669 9.23819C9.0511 9.5748 9.23811 9.83662 9.42511 10.1358C9.46252 10.1732 9.53732 10.1732 9.57472 10.1732C9.68692 10.1732 9.76173 10.1358 9.87393 10.1358C10.3228 10.0984 10.7342 10.2106 10.9586 10.6595C11.2204 11.1083 11.183 11.5571 10.8838 12.0059C10.7716 12.1181 10.7342 12.1555 10.6968 12.2303ZM10.3602 11.7441C10.5098 11.4449 10.5098 11.1831 10.3228 10.9213C10.1731 10.7343 9.98614 10.6969 9.72433 10.7717C9.91133 11.0709 10.1357 11.4075 10.3602 11.7441ZM8.75189 10.3602C8.60228 10.1358 8.45267 9.91142 8.30307 9.68701C8.11606 10.061 8.34047 10.3976 8.75189 10.3602Z" fill="#C15254"/>
    <path d="M5.46051 13.5768C5.38571 13.689 5.34831 13.7638 5.2735 13.8012C4.86208 14.1004 4.45067 14.3622 4.00185 14.6614C3.85224 14.7736 3.70264 14.7362 3.59043 14.5866C3.51563 14.4744 3.55303 14.2874 3.66523 14.2126C4.07665 13.9134 4.52547 13.6142 4.97429 13.3524C5.04909 13.315 5.1987 13.315 5.2735 13.3524C5.34831 13.3898 5.38571 13.502 5.46051 13.5768Z" fill="#C15254"/>
    <path d="M13.5768 8.19095C13.502 8.11615 13.4272 8.07874 13.3524 8.00394C13.2776 7.89174 13.3524 7.74213 13.4646 7.66733C13.8386 7.40552 14.2126 7.1437 14.5866 6.91929C14.6614 6.88189 14.6988 6.84449 14.7736 6.80709C14.9232 6.73229 15.0354 6.76969 15.1477 6.88189C15.2225 6.9941 15.2225 7.18111 15.0728 7.25591C14.624 7.55512 14.1752 7.85433 13.7264 8.15355C13.7264 8.15355 13.6516 8.15355 13.5768 8.19095Z" fill="#C15254"/>
    </g>
    <defs>
    <clipPath id="clip0_200_732">
    <rect width="19" height="19" fill="white"/>
    </clipPath>
    </defs>
    </svg>
    