<svg width="33" height="27" viewBox="0 0 33 27" fill="none" xmlns="http://www.w3.org/2000/svg">
    <g clip-path="url(#clip0_40_820)">
    <path d="M14.5286 9.35032C14.2296 9.04584 14.0054 8.82976 13.7905 8.59404C13.4728 8.25028 13.4728 7.95563 13.7998 7.61187C16.1263 5.15643 18.4621 2.71081 20.7978 0.255371C20.9941 0.049114 21.2183 -0.0589254 21.4892 0.0589357C21.7602 0.176797 21.8443 0.422341 21.8349 0.716993C21.8256 1.8956 21.8349 3.06439 21.8349 4.27247C22.3208 4.37069 22.7973 4.4689 23.2644 4.57694C25.2639 5.04839 27.1886 5.73591 28.889 6.98327C31.8882 9.17352 33.1775 12.2281 32.9907 16.0193C32.9066 17.8068 32.4861 19.5257 31.8508 21.1855C31.776 21.3721 31.5892 21.4998 31.4771 21.6766C31.4117 21.7748 31.3556 21.8927 31.3556 22.0106C31.3463 23.0418 31.3556 24.0731 31.3463 25.0946C31.3463 26.2732 30.6455 27.0098 29.543 27.0098C20.3027 27.0098 11.0529 27.0098 1.81257 27.0098C0.700736 27 0 26.2536 0 25.0848C0 20.4784 0 15.872 0 11.2656C0 10.0771 0.691393 9.35032 1.8406 9.35032C5.90487 9.35032 9.97848 9.35032 14.0428 9.35032C14.1642 9.35032 14.295 9.35032 14.5286 9.35032ZM21.8349 11.9138C21.8349 13.1219 21.8349 14.2808 21.8349 15.4496C21.8349 15.7541 21.7882 16.0193 21.4986 16.1568C21.1996 16.2943 20.966 16.1568 20.7511 15.9309C19.8822 15.0076 19.004 14.0942 18.135 13.171C17.9482 12.9745 17.7707 12.8763 17.4997 12.8861C16.5 12.9058 15.4909 12.896 14.4912 12.896C11.4267 12.896 8.36212 12.896 5.28822 12.896C5.09202 12.896 4.95187 12.896 4.86778 13.1513C4.64354 13.8094 4.19507 14.2612 3.56908 14.5067C3.39156 14.5755 3.34485 14.6639 3.34485 14.8505C3.35419 17.08 3.35419 19.3096 3.34485 21.5391C3.34485 21.7257 3.39156 21.8141 3.56908 21.8829C4.16704 22.1088 4.61551 22.5409 4.83975 23.1695C4.94252 23.4445 5.07333 23.4936 5.32559 23.4936C12.2208 23.4838 19.1067 23.4838 26.002 23.4838C26.1141 23.4838 26.2356 23.4838 26.3664 23.4838C26.628 22.6195 27.1605 22.0597 27.9827 21.7847C27.9827 19.7221 27.9827 17.6792 27.9734 15.6264C27.9734 15.5184 27.9173 15.3907 27.8519 15.3023C26.9924 14.2612 26.0113 13.3576 24.8434 12.7094C23.9185 12.179 22.9468 11.8549 21.8349 11.9138ZM15.0144 8.07349C16.9111 10.0673 18.8171 12.0709 20.7138 14.0746C20.7138 13.2594 20.7138 12.4049 20.7138 11.5504C20.7138 11.0986 20.8632 10.912 21.293 10.8236C22.8533 10.5191 24.2828 10.9316 25.6002 11.7763C28.1602 13.4165 29.9261 15.7934 31.1968 18.6122C31.2435 18.7203 31.2902 18.8185 31.3369 18.9265C31.3743 18.9265 31.421 18.9265 31.4584 18.9265C31.5985 17.9247 31.7854 16.9327 31.8508 15.9309C32.0003 13.6817 31.5051 11.5995 30.1503 9.80212C29.1413 8.46636 27.8332 7.55294 26.3664 6.85559C24.75 6.08949 23.0402 5.67698 21.293 5.39215C20.8446 5.3234 20.6951 5.12696 20.6951 4.65552C20.6951 3.90906 20.6951 3.16261 20.6951 2.41616C20.6951 2.31794 20.6857 2.2099 20.6764 2.1215C18.7797 4.11532 16.8737 6.10914 15.0144 8.07349ZM16.6495 11.6977C16.6588 11.6683 16.6775 11.6388 16.6869 11.6093C16.3972 11.3147 16.1169 11.0004 15.8086 10.7155C15.6871 10.6075 15.5096 10.5191 15.3601 10.5191C10.8567 10.5093 6.36268 10.5093 1.85929 10.5093C1.30804 10.5093 1.13052 10.7057 1.13052 11.2852C1.13052 15.872 1.13052 20.4489 1.13052 25.0357C1.13052 25.6151 1.31738 25.8018 1.86863 25.8018C11.081 25.8018 20.2933 25.8018 29.5057 25.8018C30.0569 25.8018 30.2438 25.6053 30.2438 25.0258C30.2438 23.582 30.169 22.1284 30.2625 20.6846C30.3465 19.398 29.9354 18.3372 29.3095 17.3158C29.2627 17.247 29.2067 17.1783 29.1226 17.0604C29.1226 18.789 29.1226 20.4489 29.1226 22.099C29.1226 22.6195 28.9731 22.7865 28.4686 22.8552C27.908 22.924 27.5062 23.3463 27.4408 23.9356C27.3848 24.4562 27.2166 24.6133 26.7214 24.6133C19.359 24.6133 12.0059 24.6133 4.64354 24.6133C4.14836 24.6133 3.98018 24.4562 3.92412 23.9356C3.85872 23.3463 3.45696 22.924 2.90572 22.8552C2.40119 22.7963 2.2517 22.6195 2.2517 22.099C2.2517 19.4667 2.2517 16.8247 2.2517 14.1924C2.2517 13.6621 2.40119 13.4853 2.89638 13.4263C3.44762 13.3576 3.84938 12.9549 3.92412 12.3951C4.00821 11.7861 4.12967 11.6683 4.70895 11.6683C8.56767 11.6683 12.4264 11.6683 16.2851 11.6683C16.3972 11.6977 16.528 11.6977 16.6495 11.6977Z" fill="url(#paint0_linear_40_820)"/>
    <path d="M11.1931 18.1604C11.1931 15.4595 13.0898 13.4656 15.6591 13.4656C18.2378 13.4656 20.1532 15.4693 20.1438 18.1801C20.1438 20.8909 18.2192 22.8945 15.6404 22.8749C13.0804 22.865 11.1931 20.8614 11.1931 18.1604ZM15.6872 21.7061C17.6212 21.6963 19.032 20.2034 19.0133 18.1604C19.004 16.1175 17.5932 14.6442 15.6498 14.6541C13.7158 14.6639 12.3143 16.1568 12.3236 18.1997C12.3423 20.2328 13.7438 21.7061 15.6872 21.7061Z" fill="url(#paint1_linear_40_820)"/>
    <path d="M9.51129 18.18C9.51129 19.1524 8.73581 19.948 7.81084 19.9381C6.89521 19.9283 6.1571 19.1328 6.1571 18.1702C6.1571 17.1979 6.93258 16.4023 7.85756 16.4121C8.77318 16.422 9.52064 17.2175 9.51129 18.18ZM8.39012 18.1899C8.39946 17.8756 8.14719 17.6006 7.84821 17.5907C7.53989 17.5809 7.28762 17.8363 7.27828 18.1604C7.26894 18.4747 7.5212 18.7497 7.82018 18.7595C8.11916 18.7694 8.38077 18.5042 8.39012 18.1899Z" fill="url(#paint2_linear_40_820)"/>
    <path d="M25.7497 18.1604C25.7591 19.1426 24.9929 19.9382 24.068 19.9382C23.1523 19.9382 22.4049 19.1524 22.3955 18.1899C22.3862 17.2077 23.1523 16.4122 24.0773 16.4122C24.9929 16.4122 25.7404 17.1979 25.7497 18.1604ZM24.0773 18.7596C24.3763 18.7497 24.6285 18.4747 24.6192 18.1604C24.6099 17.8461 24.3576 17.581 24.0493 17.5908C23.7409 17.6006 23.498 17.8658 23.5074 18.1899C23.5167 18.5042 23.7783 18.7694 24.0773 18.7596Z" fill="url(#paint3_linear_40_820)"/>
    <path d="M15.1919 15.371C15.1732 15.096 15.22 14.8701 15.547 14.8701C15.8833 14.8701 15.902 15.1157 15.902 15.2532C16.2757 15.4987 16.6121 15.6853 16.9111 15.921C17.0419 16.0193 17.126 16.2157 17.1633 16.3925C17.2101 16.5889 17.2287 16.9621 17.1633 16.9916C16.9484 17.08 16.6962 17.0505 16.4533 17.0407C16.4065 17.0407 16.3692 16.8934 16.3131 16.8148C16.2103 16.6479 16.0982 16.4809 15.9954 16.3139C15.9674 16.3336 15.93 16.3532 15.902 16.3728C15.902 16.7657 15.902 17.1684 15.902 17.5809C16.7242 17.7872 17.3689 18.2095 17.3595 19.2113C17.3595 20.2033 16.7336 20.6453 15.902 20.8417C15.8366 21.1167 16.0235 21.5293 15.5189 21.5096C15.0705 21.49 15.2387 21.1266 15.1732 20.8614C15.0518 20.8319 14.921 20.8024 14.7902 20.7533C14.1362 20.5471 13.6877 19.8694 13.7157 19.172C13.7251 18.9363 13.8092 18.8479 14.0334 18.8479C14.5659 18.8381 14.5659 18.8283 14.6874 19.3587C14.7435 19.6337 14.8836 19.8203 15.1826 19.8792C15.1826 19.3979 15.1826 18.9363 15.1826 18.4845C14.1829 18.1015 13.8278 17.6595 13.8559 16.8443C13.8746 16.1175 14.295 15.6362 15.1919 15.371ZM15.8927 19.9087C16.2944 19.7515 16.4533 19.5256 16.4065 19.1917C16.3598 18.897 16.2197 18.681 15.8927 18.6515C15.8927 19.0738 15.8927 19.4765 15.8927 19.9087ZM15.1732 16.3139C14.8462 16.4514 14.6967 16.6675 14.7715 16.9621C14.8182 17.1488 14.977 17.3059 15.0892 17.4729C15.1172 17.4532 15.1452 17.4336 15.1732 17.4041C15.1732 17.0505 15.1732 16.7068 15.1732 16.3139Z" fill="url(#paint4_linear_40_820)"/>
    </g>
    <defs>
    <linearGradient id="paint0_linear_40_820" x1="16.5042" y1="0.0102539" x2="16.5042" y2="27.0098" gradientUnits="userSpaceOnUse">
    <stop stop-color="#FD7929"/>
    <stop offset="1" stop-color="#FEB5A0"/>
    </linearGradient>
    <linearGradient id="paint1_linear_40_820" x1="15.6685" y1="13.4656" x2="15.6685" y2="22.875" gradientUnits="userSpaceOnUse">
    <stop stop-color="#FD7929"/>
    <stop offset="1" stop-color="#FEB5A0"/>
    </linearGradient>
    <linearGradient id="paint2_linear_40_820" x1="7.83424" y1="16.412" x2="7.83424" y2="19.9382" gradientUnits="userSpaceOnUse">
    <stop stop-color="#FD7929"/>
    <stop offset="1" stop-color="#FEB5A0"/>
    </linearGradient>
    <linearGradient id="paint3_linear_40_820" x1="24.0726" y1="16.4122" x2="24.0726" y2="19.9382" gradientUnits="userSpaceOnUse">
    <stop stop-color="#FD7929"/>
    <stop offset="1" stop-color="#FEB5A0"/>
    </linearGradient>
    <linearGradient id="paint4_linear_40_820" x1="15.5371" y1="14.8701" x2="15.5371" y2="21.5103" gradientUnits="userSpaceOnUse">
    <stop stop-color="#FD7929"/>
    <stop offset="1" stop-color="#FEB5A0"/>
    </linearGradient>
    <clipPath id="clip0_40_820">
    <rect width="33" height="27" fill="white"/>
    </clipPath>
    </defs>
    </svg>
    