<svg width="16" height="20" viewBox="0 0 16 20" fill="none" xmlns="http://www.w3.org/2000/svg">
<path d="M15.5 8.33337C15.5 14.1667 8 19.1667 8 19.1667C8 19.1667 0.5 14.1667 0.5 8.33337C0.5 6.34425 1.29018 4.4366 2.6967 3.03007C4.10322 1.62355 6.01088 0.833374 8 0.833374C9.98912 0.833374 11.8968 1.62355 13.3033 3.03007C14.7098 4.4366 15.5 6.34425 15.5 8.33337Z" stroke="black" stroke-opacity="0.6" stroke-linecap="round" stroke-linejoin="round"/>
<path d="M8 10.8334C9.38071 10.8334 10.5 9.71409 10.5 8.33337C10.5 6.95266 9.38071 5.83337 8 5.83337C6.61929 5.83337 5.5 6.95266 5.5 8.33337C5.5 9.71409 6.61929 10.8334 8 10.8334Z" stroke="black" stroke-opacity="0.6" stroke-linecap="round" stroke-linejoin="round"/>
</svg>
