<svg width="47" height="36" viewBox="0 0 47 36" fill="none" xmlns="http://www.w3.org/2000/svg">
<path d="M24.402 15.704C24.318 15.704 24.248 15.6807 24.192 15.634C24.136 15.578 24.108 15.5033 24.108 15.41C24.108 15.3167 24.108 15.2233 24.108 15.13C24.108 15.0367 24.108 14.9433 24.108 14.85C24.1267 14.4487 24.2153 14.094 24.374 13.786C24.5327 13.478 24.724 13.198 24.948 12.946C25.1813 12.694 25.4147 12.456 25.648 12.232C25.8813 11.9987 26.0773 11.7653 26.236 11.532C26.404 11.2987 26.5067 11.0513 26.544 10.79C26.5813 10.454 26.516 10.174 26.348 9.95C26.18 9.71667 25.9513 9.53933 25.662 9.418C25.3727 9.29667 25.074 9.236 24.766 9.236C24.2713 9.236 23.8467 9.36667 23.492 9.628C23.1467 9.88 22.918 10.3093 22.806 10.916C22.778 11.028 22.7313 11.1073 22.666 11.154C22.6007 11.2007 22.526 11.224 22.442 11.224H21.77C21.686 11.224 21.6113 11.196 21.546 11.14C21.49 11.084 21.462 11.0093 21.462 10.916C21.4713 10.5333 21.5553 10.1693 21.714 9.824C21.8727 9.47867 22.0967 9.17533 22.386 8.914C22.6847 8.65267 23.0347 8.44733 23.436 8.298C23.8467 8.13933 24.304 8.06 24.808 8.06C25.3773 8.06 25.8627 8.13933 26.264 8.298C26.6747 8.44733 27.0013 8.65267 27.244 8.914C27.496 9.166 27.678 9.446 27.79 9.754C27.902 10.062 27.9487 10.37 27.93 10.678C27.902 11.0513 27.8087 11.3873 27.65 11.686C27.4913 11.9753 27.3 12.246 27.076 12.498C26.852 12.7407 26.6233 12.9833 26.39 13.226C26.166 13.4593 25.97 13.7067 25.802 13.968C25.6433 14.22 25.5547 14.4953 25.536 14.794C25.5267 14.8967 25.5173 14.9993 25.508 15.102C25.508 15.1953 25.508 15.2887 25.508 15.382C25.4893 15.4847 25.452 15.564 25.396 15.62C25.34 15.676 25.2607 15.704 25.158 15.704H24.402ZM24.29 18C24.1967 18 24.1173 17.972 24.052 17.916C23.996 17.8507 23.968 17.7713 23.968 17.678V16.824C23.968 16.7307 23.996 16.656 24.052 16.6C24.1173 16.5347 24.1967 16.502 24.29 16.502H25.2C25.3027 16.502 25.382 16.5347 25.438 16.6C25.5033 16.656 25.536 16.7307 25.536 16.824V17.678C25.536 17.7713 25.5033 17.8507 25.438 17.916C25.382 17.972 25.3027 18 25.2 18H24.29Z" fill="url(#paint0_linear_43_67)"/>
<path d="M3.64452 11.8452C3.63195 11.7879 3.638 11.7409 3.66268 11.7042C3.69261 11.6665 3.73384 11.6432 3.78639 11.6341L8.9336 10.7416C8.9914 10.7316 9.0395 10.7395 9.07788 10.7653C9.12152 10.7901 9.14963 10.8312 9.1622 10.8885L9.2496 11.2871C9.26217 11.3444 9.25349 11.3918 9.22356 11.4295C9.20003 11.4714 9.15936 11.4974 9.10156 11.5074L6.92602 11.8846L7.51559 14.5727L9.69113 14.1955C9.74894 14.1855 9.79703 14.1934 9.83542 14.2192C9.8802 14.2492 9.90831 14.2903 9.91973 14.3424L10.0071 14.741C10.0197 14.7983 10.011 14.8457 9.9811 14.8834C9.95757 14.9253 9.9169 14.9513 9.85909 14.9613L4.71189 15.8538C4.65934 15.8629 4.61067 15.8524 4.56589 15.8223C4.52751 15.7965 4.50203 15.755 4.48946 15.6976L4.40205 15.2991C4.39063 15.247 4.39668 15.2 4.42021 15.1581C4.45014 15.1204 4.49138 15.0971 4.54393 15.088L6.80618 14.6957L6.2166 12.0076L3.95435 12.3999C3.9018 12.409 3.85314 12.3985 3.80836 12.3684C3.76997 12.3426 3.74449 12.301 3.73193 12.2437L3.64452 11.8452Z" fill="black"/>
<path d="M7.00984 20.9169C6.78309 20.5809 6.66187 20.2638 6.64617 19.9656C6.63048 19.6673 6.70234 19.3945 6.86177 19.1471C7.02591 18.8972 7.25878 18.6827 7.56039 18.5038C7.63741 18.4567 7.73708 18.4005 7.85943 18.3352C7.98648 18.2675 8.08914 18.2157 8.16741 18.1799C8.49163 18.025 8.81401 17.9432 9.13455 17.9345C9.45807 17.9303 9.76413 18.0045 10.0528 18.1571C10.3414 18.3098 10.5976 18.5519 10.8213 18.8835C11.0451 19.215 11.1648 19.5299 11.1805 19.8282C11.1962 20.1265 11.1243 20.3993 10.9649 20.6467C10.8085 20.8985 10.5771 21.1151 10.2708 21.2966C10.1985 21.3412 10.0988 21.3974 9.97173 21.4651C9.84939 21.5304 9.74673 21.5822 9.66375 21.6204C9.34423 21.7729 9.02186 21.8547 8.69661 21.8659C8.37608 21.8745 8.0715 21.8025 7.78288 21.6499C7.49426 21.4972 7.23658 21.2529 7.00984 20.9169ZM7.55333 20.627C7.7383 20.9011 7.97774 21.0709 8.27165 21.1366C8.57026 21.1997 8.90285 21.1426 9.26942 20.965C9.34299 20.9318 9.43388 20.8863 9.54211 20.8286C9.65034 20.7708 9.73825 20.7209 9.80585 20.6788C10.1545 20.4748 10.3654 20.242 10.4385 19.9805C10.5164 19.7165 10.4628 19.4475 10.2778 19.1734C10.0929 18.8993 9.84957 18.7285 9.54798 18.6609C9.25407 18.5953 8.92533 18.6534 8.56174 18.8354C8.48817 18.8686 8.39728 18.9141 8.28905 18.9718C8.18082 19.0296 8.09291 19.0795 8.02531 19.1216C7.67365 19.3212 7.45891 19.553 7.38108 19.817C7.31093 20.0829 7.36835 20.3529 7.55333 20.627Z" fill="black"/>
<path d="M10.8775 26.729C10.8208 26.6892 10.7878 26.6466 10.7785 26.6012C10.7727 26.5518 10.7802 26.4955 10.8009 26.4324L12.3375 23.0048C12.3464 22.9787 12.3598 22.9557 12.3775 22.9358C12.4094 22.8999 12.4491 22.8792 12.4965 22.8737C12.5483 22.8713 12.5917 22.8823 12.6266 22.9068L12.9146 23.1092C12.9626 23.1429 12.9891 23.181 12.994 23.2233C12.9989 23.2656 12.9969 23.2998 12.9879 23.3258L11.7108 26.0906L14.4721 24.4076C14.5057 24.3858 14.5479 24.3702 14.5989 24.3607C14.6543 24.3542 14.7103 24.371 14.767 24.4108L14.9896 24.5672C15.0463 24.6071 15.0775 24.6517 15.0833 24.701C15.089 24.7504 15.0817 24.7906 15.0612 24.8215L13.8578 27.5992L16.588 25.8555C16.6101 25.8386 16.6449 25.8274 16.6923 25.8219C16.7397 25.8164 16.7875 25.8305 16.8355 25.8642L17.1235 26.0666C17.1627 26.0942 17.1848 26.1291 17.1898 26.1714C17.1947 26.2138 17.1812 26.2529 17.1493 26.2887C17.1316 26.3087 17.1095 26.3255 17.0831 26.3393L13.6876 28.4607C13.632 28.4993 13.5743 28.5203 13.5146 28.5237C13.4628 28.5262 13.4063 28.5059 13.3452 28.463L13.0899 28.2836C13.0332 28.2438 12.9958 28.1981 12.9778 28.1466C12.9677 28.0941 12.9774 28.0394 13.0068 27.9824L14.1502 25.3082L11.4882 26.9153C11.4282 26.9509 11.3684 26.9704 11.3087 26.9737C11.2525 26.9731 11.1939 26.9513 11.1328 26.9084L10.8775 26.729Z" fill="black"/>
<path d="M31.45 32.3174C31.3927 32.3564 31.3381 32.3742 31.2864 32.371C31.2312 32.3636 31.1717 32.3432 31.1079 32.3097L27.7485 30.1334C27.7223 30.1192 27.7005 30.1019 27.6831 30.0817C27.6518 30.0453 27.6389 30.006 27.6446 29.9638C27.6546 29.9185 27.6772 29.8839 27.7125 29.8599L28.0036 29.662C28.0522 29.6291 28.1001 29.6157 28.1474 29.622C28.1947 29.6283 28.2315 29.6385 28.2577 29.6528L30.9583 31.4406L29.8004 28.6428C29.7849 28.6085 29.7782 28.5682 29.7803 28.5219C29.7868 28.4726 29.8188 28.4284 29.8761 28.3895L30.1011 28.2366C30.1584 28.1976 30.2147 28.1818 30.2699 28.1891C30.3252 28.1964 30.3671 28.2127 30.3959 28.2381L33.1285 29.9657L31.8968 27.1795C31.8839 27.1563 31.8802 27.1236 31.8858 27.0813C31.8914 27.0391 31.9185 27.0015 31.967 26.9685L32.2581 26.7706C32.2978 26.7437 32.3413 26.7333 32.3886 26.7396C32.436 26.7459 32.4753 26.7672 32.5066 26.8036C32.524 26.8238 32.5369 26.847 32.5455 26.8733L34.0258 30.3266C34.0543 30.3841 34.0631 30.439 34.0521 30.4913C34.0421 30.5366 34.0062 30.5802 33.9445 30.6222L33.6864 30.7975C33.6291 30.8365 33.5701 30.8573 33.5096 30.8601C33.4499 30.8557 33.3927 30.8338 33.3377 30.7943L30.7031 29.1441L31.8026 31.8375C31.8267 31.898 31.8333 31.9544 31.8223 32.0067C31.8079 32.055 31.7698 32.1001 31.7081 32.1421L31.45 32.3174Z" fill="black"/>
<path d="M38.7685 27.3653C38.4445 27.6089 38.1205 27.7564 37.7965 27.8077C37.4725 27.8591 37.1593 27.8295 36.8567 27.7189C36.5505 27.6045 36.2697 27.4245 36.0144 27.1791C35.9476 27.1166 35.8665 27.0351 35.7709 26.9346C35.6717 26.8303 35.5948 26.7456 35.5402 26.6805C35.3068 26.412 35.1539 26.1359 35.0816 25.8522C35.0135 25.5654 35.0349 25.2842 35.1457 25.0087C35.2565 24.7332 35.4718 24.4752 35.7915 24.2349C36.1113 23.9945 36.4331 23.8486 36.7571 23.7973C37.0811 23.7459 37.3944 23.7755 37.6969 23.8861C38.0037 23.9934 38.2867 24.1718 38.5457 24.4211C38.6088 24.4798 38.6899 24.5612 38.7891 24.6656C38.8847 24.7661 38.9616 24.8508 39.0198 24.9197C39.2496 25.1844 39.4025 25.4605 39.4785 25.748C39.5508 26.0316 39.5316 26.3112 39.4207 26.5867C39.3099 26.8622 39.0925 27.1218 38.7685 27.3653ZM38.344 26.919C38.6083 26.7203 38.7477 26.4863 38.7621 26.217C38.7728 25.9438 38.6449 25.6555 38.3784 25.3522C38.3275 25.291 38.2598 25.216 38.1753 25.1271C38.0907 25.0382 38.0188 24.9664 37.9594 24.9116C37.6673 24.6275 37.3707 24.4694 37.0696 24.4372C36.7649 24.4012 36.4803 24.4825 36.216 24.6812C35.9517 24.8799 35.8121 25.1175 35.7971 25.3939C35.7827 25.6632 35.9109 25.9479 36.1817 26.248C36.2325 26.3092 36.3002 26.3842 36.3848 26.4731C36.4693 26.562 36.5413 26.6338 36.6007 26.6886C36.8885 26.9759 37.1848 27.1376 37.4896 27.1736C37.7949 27.2025 38.0797 27.1177 38.344 26.919Z" fill="black"/>
<path d="M41.1592 23.7126C41.1331 23.7591 41.0962 23.7922 41.0487 23.8118C40.9989 23.8245 40.9497 23.8201 40.9009 23.7985L37.4419 22.2643C37.3931 22.2427 37.3595 22.2103 37.3411 22.1673C37.3252 22.1196 37.3303 22.0725 37.3564 22.026L37.5365 21.705C37.5626 21.6585 37.6018 21.6266 37.6542 21.6091C37.7066 21.5917 37.7572 21.5938 37.8059 21.6154L38.1277 21.7582C38.0141 21.5916 37.9616 21.4086 37.97 21.209C37.9785 21.0095 38.0467 20.7957 38.1745 20.5678L38.3311 20.2887C38.3572 20.2422 38.3952 20.2126 38.4449 20.1998C38.4899 20.1849 38.5367 20.1882 38.5854 20.2098L38.8853 20.3428C38.934 20.3645 38.9652 20.3957 38.9788 20.4366C38.9924 20.4775 38.9861 20.5212 38.96 20.5677L38.7252 20.9863C38.5842 21.2375 38.5513 21.4697 38.6265 21.6831C38.6967 21.8943 38.8634 22.0583 39.1267 22.1751L41.2767 23.1287C41.3255 23.1503 41.3578 23.185 41.3736 23.2327C41.3846 23.2782 41.3771 23.3242 41.351 23.3708L41.1592 23.7126Z" fill="black"/>
<path d="M43.2005 18.9069C43.1912 18.9595 43.1675 19.0019 43.1294 19.0343C43.0869 19.0606 43.0392 19.0702 42.9864 19.0628L37.7249 18.332C37.672 18.3247 37.6326 18.3031 37.6064 18.2671C37.5759 18.2252 37.5652 18.178 37.5745 18.1255L37.6395 17.7552C37.6488 17.7026 37.6746 17.6632 37.7172 17.6368C37.7553 17.6044 37.8008 17.5919 37.8536 17.5993L40.6112 17.9823L39.5844 16.2495C39.5426 16.1792 39.5166 16.1271 39.5063 16.0934C39.4916 16.0537 39.4912 15.9945 39.505 15.9157L39.5784 15.4981C39.5867 15.4508 39.6095 15.4136 39.6467 15.3865C39.6839 15.3594 39.7263 15.3491 39.7739 15.3557C39.795 15.3586 39.8174 15.3698 39.841 15.3892C39.8656 15.4034 39.8879 15.4307 39.9078 15.4712L41.1094 17.5026L43.4369 15.7596C43.5008 15.7039 43.5539 15.6789 43.5961 15.6848C43.6437 15.6914 43.6805 15.7127 43.7067 15.7486C43.7328 15.7845 43.7418 15.8261 43.7335 15.8734L43.6615 16.2831C43.6476 16.3619 43.6295 16.4186 43.6072 16.4532C43.5796 16.487 43.5344 16.5291 43.4714 16.5796L41.4749 18.1022L43.1151 18.3301C43.1679 18.3374 43.2096 18.362 43.2401 18.4039C43.2663 18.4398 43.2748 18.4841 43.2655 18.5366L43.2005 18.9069Z" fill="black"/>
<path d="M43.1877 11.235C43.2226 11.5317 43.2153 11.7894 43.1658 12.0081C43.1164 12.2269 43.0463 12.4075 42.9557 12.5497C42.865 12.692 42.7706 12.8025 42.6725 12.8813C42.5738 12.9547 42.4928 12.997 42.4297 13.0082C42.372 13.019 42.3246 13.0046 42.2878 12.9652C42.2509 12.9258 42.23 12.8849 42.2251 12.8425L42.184 12.4929C42.1802 12.4611 42.1828 12.4368 42.1915 12.4199C42.1943 12.3982 42.2125 12.3698 42.2459 12.3346C42.3122 12.2588 42.3775 12.1751 42.4419 12.0834C42.5063 11.9918 42.5552 11.8828 42.5887 11.7565C42.6215 11.625 42.6271 11.4665 42.6053 11.2811C42.5735 11.011 42.497 10.7932 42.3755 10.6277C42.2488 10.4628 42.0845 10.3897 41.8827 10.4085C41.7499 10.4208 41.6481 10.4677 41.5771 10.5493C41.5056 10.6256 41.4488 10.7593 41.4069 10.9507C41.3643 11.1367 41.3272 11.3918 41.2955 11.716C41.2585 12.0407 41.1978 12.3007 41.1133 12.496C41.0236 12.6917 40.9091 12.8362 40.7697 12.9295C40.625 13.0233 40.4571 13.079 40.2659 13.0968C40.0694 13.115 39.8741 13.0743 39.6798 12.9745C39.4803 12.8752 39.309 12.7198 39.166 12.5082C39.0224 12.2913 38.9307 12.0133 38.8909 11.6743C38.8585 11.3989 38.8654 11.1599 38.9114 10.9575C38.9574 10.7552 39.026 10.5855 39.1173 10.4485C39.2032 10.312 39.2929 10.2073 39.3864 10.1343C39.4798 10.0614 39.5607 10.0191 39.6291 10.0074C39.6816 9.99712 39.7286 10.0088 39.7702 10.0424C39.8064 10.0766 39.8273 10.1175 39.8329 10.1651L39.8721 10.4988C39.8765 10.5359 39.8722 10.5684 39.8594 10.5964C39.846 10.6191 39.8299 10.642 39.8111 10.6651C39.7483 10.7245 39.6867 10.7945 39.6264 10.8751C39.5655 10.9503 39.5206 11.0482 39.4918 11.1687C39.4571 11.2844 39.4506 11.4349 39.4724 11.6203C39.5035 11.8851 39.5826 12.0786 39.7097 12.2007C39.8368 12.3227 39.9853 12.3759 40.1552 12.3601C40.2561 12.3507 40.343 12.3132 40.4158 12.2475C40.4886 12.1819 40.5472 12.064 40.5916 11.8938C40.6361 11.7237 40.6765 11.4736 40.7129 11.1436C40.7408 10.7876 40.8014 10.5035 40.8946 10.2914C40.9878 10.0793 41.1064 9.92369 41.2504 9.82463C41.3945 9.72558 41.5674 9.66668 41.7692 9.64793C41.9922 9.62722 42.2045 9.67444 42.4059 9.78959C42.6067 9.89946 42.7778 10.0763 42.9192 10.3202C43.0546 10.5593 43.1441 10.8642 43.1877 11.235Z" fill="black"/>
<path d="M20.9088 33.4629C20.8555 33.4655 20.8093 33.4517 20.77 33.4216C20.7358 33.3859 20.7171 33.3414 20.7138 33.2882L20.4825 29.5032C20.4792 29.45 20.4926 29.4066 20.5226 29.3731C20.5576 29.3341 20.6018 29.3133 20.655 29.3107L21.0386 29.2922C21.0918 29.2896 21.1356 29.3062 21.1698 29.3419C21.2038 29.3723 21.2223 29.4141 21.2256 29.4673L21.4569 33.2523C21.4602 33.3055 21.447 33.3515 21.4173 33.3903C21.3873 33.4238 21.3456 33.4418 21.2924 33.4444L20.9088 33.4629ZM20.5438 28.5392C20.4905 28.5418 20.4442 28.528 20.405 28.4979C20.3707 28.4622 20.352 28.4177 20.3487 28.3644L20.3224 27.9332C20.3191 27.88 20.3325 27.8367 20.3625 27.8032C20.3975 27.7641 20.4417 27.7433 20.4949 27.7407L20.9984 27.7164C21.0516 27.7138 21.0954 27.7304 21.1296 27.7661C21.1689 27.7962 21.1901 27.8379 21.1934 27.8912L21.2197 28.3224C21.223 28.3756 21.2071 28.4217 21.1721 28.4608C21.1421 28.4943 21.1004 28.5123 21.0472 28.5149L20.5438 28.5392Z" fill="black"/>
<path d="M25.2343 33.2602C24.9368 33.2866 24.6889 33.2523 24.4905 33.1574C24.2915 33.0573 24.1379 32.9076 24.0298 32.7084C23.921 32.504 23.8507 32.2586 23.8186 31.9724L23.5837 29.8735L22.9621 29.9285C22.909 29.9332 22.862 29.9213 22.8213 29.8928C22.7853 29.8585 22.7643 29.8149 22.7583 29.7619L22.7281 29.4916C22.7221 29.4386 22.7333 29.3947 22.7617 29.3601C22.7947 29.3197 22.8378 29.2972 22.8909 29.2925L23.5125 29.2375L23.3638 27.9098C23.3579 27.8568 23.3691 27.813 23.3974 27.7783C23.4304 27.7379 23.4735 27.7154 23.5267 27.7107L23.9012 27.6775C23.9543 27.6728 23.9989 27.6876 24.0349 27.7219C24.0757 27.7504 24.099 27.7912 24.1049 27.8442L24.2536 29.1719L25.2417 29.0844C25.2948 29.0797 25.3394 29.0945 25.3754 29.1288C25.4162 29.1573 25.4395 29.1981 25.4455 29.2511L25.4757 29.5214C25.4817 29.5744 25.4681 29.6211 25.4351 29.6615C25.4068 29.6961 25.366 29.7158 25.3129 29.7205L24.3248 29.8079L24.5535 31.8512C24.5814 32.1003 24.6458 32.2926 24.7469 32.4282C24.8479 32.5638 25.0073 32.6219 25.2251 32.6027L25.7112 32.5596C25.7643 32.5549 25.8089 32.5697 25.8449 32.604C25.8857 32.6325 25.909 32.6733 25.915 32.7263L25.947 33.0125C25.9529 33.0655 25.9394 33.1122 25.9063 33.1526C25.878 33.1872 25.8373 33.2069 25.7842 33.2116L25.2343 33.2602Z" fill="black"/>
<circle cx="24.5" cy="12.5" r="11.5" stroke="url(#paint1_linear_43_67)" stroke-width="2"/>
<defs>
<linearGradient id="paint0_linear_43_67" x1="25" y1="5" x2="25" y2="22" gradientUnits="userSpaceOnUse">
<stop stop-color="#FF7937"/>
<stop offset="1" stop-color="#FF9225"/>
</linearGradient>
<linearGradient id="paint1_linear_43_67" x1="24.5" y1="0" x2="24.5" y2="25" gradientUnits="userSpaceOnUse">
<stop stop-color="#FF485A"/>
<stop offset="1" stop-color="#FF8A2B"/>
</linearGradient>
</defs>
</svg>
