<svg width="25" height="27" viewBox="0 0 25 27" fill="none" xmlns="http://www.w3.org/2000/svg">
    <path d="M8.817 24.824V20.869C8.81858 20.3858 9.01129 19.9229 9.35305 19.5813C9.6948 19.2397 10.1578 19.0473 10.641 19.046H14.35C14.5903 19.045 14.8284 19.0915 15.0507 19.1826C15.273 19.2737 15.4752 19.4078 15.6457 19.5771C15.8162 19.7464 15.9517 19.9476 16.0444 20.1693C16.1371 20.3909 16.1852 20.6287 16.186 20.869V24.812C16.1873 25.2311 16.3544 25.6328 16.6508 25.9292C16.9472 26.2256 17.3488 26.3927 17.768 26.394H20.297C21.475 26.3966 22.6063 25.9332 23.444 25.105C23.8572 24.6963 24.1854 24.2098 24.4095 23.6736C24.6337 23.1374 24.7494 22.5621 24.75 21.981V10.748C24.7495 10.2793 24.6458 9.81658 24.4462 9.39261C24.2465 8.96863 23.9559 8.59386 23.595 8.29497L15.005 1.47397C14.2757 0.896395 13.3686 0.589832 12.4385 0.606611C11.5084 0.62339 10.6129 0.96247 9.905 1.56597L1.497 8.29497C1.11925 8.58485 0.81118 8.95563 0.5954 9.38009C0.37962 9.80456 0.261601 10.2719 0.25 10.748L0.25 21.97C0.252097 22.5532 0.369045 23.1302 0.594166 23.6683C0.819287 24.2063 1.14817 24.6947 1.56204 25.1056C1.97592 25.5165 2.46667 25.8418 3.00628 26.063C3.54589 26.2843 4.1238 26.3971 4.707 26.395H7.177C7.59794 26.3982 8.00294 26.2342 8.303 25.939C8.45081 25.7935 8.56821 25.6201 8.64839 25.4289C8.72856 25.2376 8.7699 25.0323 8.77 24.825L8.817 24.824Z" fill="url(#paint0_linear_40_114)"/>
    <defs>
    <linearGradient id="paint0_linear_40_114" x1="12.5" y1="0.605957" x2="12.5" y2="26.395" gradientUnits="userSpaceOnUse">
    <stop stop-color="#FD6584"/>
    <stop offset="1" stop-color="#FF794D"/>
    </linearGradient>
    </defs>
    </svg>
    