<svg width="21" height="21" viewBox="0 0 21 21" fill="none" xmlns="http://www.w3.org/2000/svg">
    <path d="M10.211 0.48584C8.19146 0.48584 6.21727 1.0847 4.53808 2.2067C2.85889 3.3287 1.55012 4.92344 0.777271 6.78926C0.00442433 8.65508 -0.197788 10.7082 0.196206 12.6889C0.5902 14.6696 1.5627 16.4891 2.99074 17.9171C4.41877 19.3451 6.2382 20.3176 8.21894 20.7116C10.1997 21.1056 12.2528 20.9034 14.1186 20.1306C15.9844 19.3577 17.5791 18.049 18.7011 16.3698C19.8231 14.6906 20.422 12.7164 20.422 10.6968C20.4188 7.98969 19.342 5.39433 17.4278 3.48008C15.5135 1.56583 12.9182 0.489016 10.211 0.48584ZM10.211 18.9318C8.58228 18.9318 6.99012 18.4489 5.63588 17.544C4.28164 16.6391 3.22614 15.353 2.60286 13.8482C1.97957 12.3435 1.81649 10.6877 2.13424 9.09027C2.45199 7.49284 3.23629 6.0255 4.38798 4.87382C5.53967 3.72213 7.007 2.93782 8.60444 2.62007C10.2019 2.30232 11.8577 2.4654 13.3624 3.08869C14.8672 3.71198 16.1533 4.76748 17.0582 6.12172C17.963 7.47596 18.446 9.06811 18.446 10.6968C18.4436 12.8802 17.5752 14.9734 16.0314 16.5172C14.4876 18.0611 12.3943 18.9295 10.211 18.9318Z" fill="#D1D1D1"/>
    <path d="M7.05299 10.3577C7.61057 10.3579 8.1557 10.1928 8.61941 9.88313C9.08312 9.57349 9.4446 9.13329 9.65811 8.61821C9.87163 8.10312 9.9276 7.53628 9.81894 6.98938C9.71028 6.44248 9.44188 5.94009 9.04767 5.54575C8.65347 5.1514 8.15117 4.88282 7.60431 4.77397C7.05745 4.66511 6.4906 4.72088 5.97543 4.93422C5.46027 5.14755 5.01994 5.50887 4.71014 5.97247C4.40034 6.43607 4.23499 6.98114 4.23499 7.53873C4.23578 8.28596 4.5329 9.00237 5.06117 9.53083C5.58945 10.0593 6.30576 10.3567 7.05299 10.3577ZM7.05299 6.69673C7.21952 6.69673 7.38231 6.74611 7.52078 6.83863C7.65924 6.93115 7.76716 7.06265 7.83089 7.21651C7.89462 7.37036 7.9113 7.53966 7.87881 7.70299C7.84632 7.86633 7.76613 8.01636 7.64837 8.13411C7.53061 8.25187 7.38058 8.33206 7.21725 8.36455C7.05392 8.39704 6.88462 8.38036 6.73077 8.31663C6.57691 8.2529 6.44541 8.14498 6.35289 8.00652C6.26037 7.86805 6.21099 7.70526 6.21099 7.53873C6.21125 7.3155 6.30005 7.10148 6.45789 6.94364C6.61574 6.78579 6.82975 6.69699 7.05299 6.69673ZM13.368 11.0357C12.8104 11.0357 12.2654 11.2011 11.8018 11.5108C11.3383 11.8206 10.9769 12.2608 10.7636 12.7759C10.5502 13.291 10.4944 13.8579 10.6032 14.4047C10.7119 14.9515 10.9804 15.4538 11.3747 15.8481C11.7689 16.2423 12.2712 16.5108 12.818 16.6196C13.3649 16.7283 13.9317 16.6725 14.4468 16.4591C14.9619 16.2458 15.4021 15.8845 15.7119 15.4209C16.0217 14.9573 16.187 14.4123 16.187 13.8547C16.1862 13.1073 15.8889 12.3908 15.3604 11.8623C14.8319 11.3338 14.1154 11.0365 13.368 11.0357ZM13.368 14.6967C13.2015 14.6967 13.0387 14.6473 12.9002 14.5548C12.7617 14.4623 12.6538 14.3308 12.5901 14.1769C12.5264 14.0231 12.5097 13.8538 12.5422 13.6905C12.5747 13.5271 12.6548 13.3771 12.7726 13.2593C12.8904 13.1416 13.0404 13.0614 13.2037 13.0289C13.3671 12.9964 13.5364 13.0131 13.6902 13.0768C13.8441 13.1406 13.9756 13.2485 14.0681 13.3869C14.1606 13.5254 14.21 13.6882 14.21 13.8547C14.2084 14.0771 14.119 14.2898 13.9613 14.4466C13.8036 14.6034 13.5904 14.6915 13.368 14.6917V14.6967ZM15.568 5.34073C15.4762 5.24857 15.3671 5.17544 15.247 5.12555C15.1269 5.07565 14.9981 5.04997 14.868 5.04997C14.7379 5.04997 14.6091 5.07565 14.489 5.12555C14.3689 5.17544 14.2598 5.24857 14.168 5.34073L4.85499 14.6557C4.76306 14.7477 4.69014 14.8568 4.64039 14.9769C4.59064 15.097 4.56504 15.2257 4.56504 15.3557C4.56504 15.4857 4.59064 15.6145 4.64039 15.7346C4.69014 15.8547 4.76306 15.9638 4.85499 16.0557C5.04064 16.2414 5.29243 16.3457 5.55499 16.3457C5.68499 16.3457 5.81372 16.3201 5.93382 16.2703C6.05393 16.2206 6.16306 16.1477 6.25499 16.0557L15.57 6.74073C15.6619 6.64874 15.7348 6.53949 15.7845 6.41926C15.8341 6.29903 15.8595 6.17018 15.8592 6.0401C15.859 5.91003 15.833 5.78129 15.7829 5.66127C15.7327 5.54126 15.6593 5.43232 15.567 5.34073H15.568Z" fill="#D1D1D1"/>
    </svg>
    