<svg width="26" height="26" viewBox="0 0 26 26" fill="none" xmlns="http://www.w3.org/2000/svg">
    <path d="M12.697 2.11597C10.6043 2.11597 8.55855 2.73653 6.81851 3.89919C5.07848 5.06184 3.72228 6.71437 2.92143 8.64779C2.12058 10.5812 1.91104 12.7087 2.31931 14.7612C2.72758 16.8137 3.73533 18.6991 5.21511 20.1789C6.69488 21.6586 8.58024 22.6664 10.6328 23.0747C12.6853 23.4829 14.8127 23.2734 16.7462 22.4725C18.6796 21.6717 20.3321 20.3155 21.4948 18.5755C22.6574 16.8354 23.278 14.7897 23.278 12.697C23.2769 9.89104 22.1618 7.20033 20.1777 5.21624C18.1936 3.23215 15.5029 2.11703 12.697 2.11597ZM12.697 21.162C11.0228 21.162 9.38616 20.6655 7.9941 19.7354C6.60204 18.8052 5.51706 17.4832 4.87636 15.9364C4.23567 14.3896 4.06803 12.6876 4.39465 11.0455C4.72128 9.40348 5.52749 7.89516 6.71134 6.71131C7.8952 5.52746 9.40351 4.72124 11.0456 4.39462C12.6876 4.068 14.3896 4.23563 15.9364 4.87633C17.4832 5.51702 18.8052 6.602 19.7354 7.99406C20.6655 9.38613 21.162 11.0227 21.162 12.697C21.1591 14.9411 20.2663 17.0925 18.6794 18.6794C17.0926 20.2663 14.9412 21.1591 12.697 21.162ZM6.878 18.516L14.824 14.823L18.516 6.87797L10.57 10.571L6.878 18.516ZM12.698 11.532C12.9282 11.532 13.1533 11.6002 13.3447 11.7281C13.5361 11.856 13.6853 12.0378 13.7734 12.2505C13.8615 12.4632 13.8845 12.6973 13.8396 12.9231C13.7947 13.1488 13.6839 13.3563 13.5211 13.519C13.3583 13.6818 13.1509 13.7927 12.9251 13.8376C12.6993 13.8825 12.4653 13.8595 12.2526 13.7714C12.0399 13.6833 11.8581 13.5341 11.7302 13.3427C11.6023 13.1512 11.534 12.9262 11.534 12.696C11.5337 12.5432 11.5636 12.3918 11.622 12.2506C11.6803 12.1094 11.766 11.9811 11.874 11.873C11.9821 11.765 12.1104 11.6793 12.2516 11.621C12.3929 11.5626 12.5442 11.5327 12.697 11.533L12.698 11.532Z" fill="#D1D1D1"/>
    </svg>
    