<svg width="25" height="23" viewBox="0 0 25 23" fill="none" xmlns="http://www.w3.org/2000/svg">
    <path d="M23.8611 14.6548H19.1831C18.3583 14.6548 17.5673 14.3272 16.984 13.7439C16.4008 13.1607 16.0731 12.3696 16.0731 11.5448C16.0731 10.72 16.4008 9.92895 16.984 9.34571C17.5673 8.76247 18.3583 8.43481 19.1831 8.43481H23.8611" stroke="#D1D1D1" stroke-width="1.5" stroke-linecap="round" stroke-linejoin="round"/>
    <path d="M19.7131 11.4739H19.3521" stroke="#D1D1D1" stroke-width="1.5" stroke-linecap="round" stroke-linejoin="round"/>
    <path fill-rule="evenodd" clip-rule="evenodd" d="M7.80814 1.48584H17.7961C19.4044 1.48584 20.9468 2.12472 22.084 3.26194C23.2213 4.39916 23.8601 5.94157 23.8601 7.54984V15.8438C23.8601 17.4521 23.2213 18.9945 22.084 20.1317C20.9468 21.269 19.4044 21.9078 17.7961 21.9078H7.80814C6.19987 21.9078 4.65747 21.269 3.52025 20.1317C2.38302 18.9945 1.74414 17.4521 1.74414 15.8438L1.74414 7.54984C1.74414 5.94157 2.38302 4.39916 3.52025 3.26194C4.65747 2.12472 6.19987 1.48584 7.80814 1.48584V1.48584Z" stroke="#D1D1D1" stroke-width="1.5" stroke-linecap="round" stroke-linejoin="round"/>
    <path d="M6.98615 6.72974H13.2251" stroke="#D1D1D1" stroke-width="1.5" stroke-linecap="round" stroke-linejoin="round"/>
    </svg>
    