<svg width="38" height="38" viewBox="0 0 38 38" fill="none" xmlns="http://www.w3.org/2000/svg">
    <circle cx="19" cy="19" r="19" fill="white"/>
    <path d="M18.9216 26.0473C18.5825 25.9982 18.2434 25.9786 17.9142 25.9C15.1214 25.2422 13.3061 23.5533 12.6777 20.8039C12.0493 18.0349 12.9769 15.7274 15.2611 13.9796C16.3084 13.1843 17.5153 12.7719 18.8418 12.6933C19.0713 12.6835 19.3106 12.6933 19.54 12.6933C19.54 12.6835 19.55 12.6639 19.55 12.654C19.1909 12.3104 18.8319 11.9765 18.4528 11.623C18.7022 11.3677 18.9416 11.1223 19.1909 10.8571C20.0288 11.6427 20.8666 12.4282 21.7045 13.2137C20.9065 14.0385 20.1186 14.8535 19.3106 15.6882C19.0513 15.4427 18.8019 15.207 18.5326 14.9615C18.8718 14.6081 19.2109 14.2644 19.55 13.9011C17.6749 13.7047 15.0616 14.8044 14.0641 17.3967C13.1166 19.8515 14.0342 22.6303 16.3582 24.0344C18.782 25.4975 21.904 24.9672 23.6894 22.7088C24.6269 21.5207 24.996 20.1559 24.7965 18.6732C24.607 17.1807 23.8789 15.9729 22.6919 15.0205C22.9413 14.7062 23.1807 14.4019 23.43 14.0876C23.819 14.3724 24.1482 14.6964 24.4574 15.0499C25.2254 15.9533 25.7441 16.9843 25.9436 18.1528C26.3026 20.2246 25.8139 22.0902 24.4275 23.7006C23.3403 24.9672 21.9339 25.7135 20.2682 25.9786C20.0687 26.0081 19.8592 26.0277 19.6597 26.0571C19.4204 26.0473 19.171 26.0473 18.9216 26.0473Z" fill="#FC6B52"/>
    <path d="M18.8069 16.2857C19.2047 16.2857 19.5703 16.2857 19.9681 16.2857C19.9681 16.3956 19.9681 16.5055 19.9681 16.6154C19.9681 16.8852 19.9681 16.8852 20.2476 16.9551C20.6777 17.055 21.0325 17.2549 21.3013 17.5846C21.3981 17.7045 21.4626 17.8244 21.5594 17.9642C21.2153 18.1141 20.8927 18.254 20.5702 18.3839C20.1079 17.8743 19.3553 17.6945 18.6887 17.9343C18.6134 17.9642 18.5274 18.0042 18.4629 18.0542C18.1833 18.254 18.2156 18.6137 18.5381 18.7136C18.8499 18.8135 19.1725 18.8535 19.495 18.9034C19.9466 18.9734 20.3982 19.0333 20.8282 19.1932C22.0002 19.6428 21.9249 21.1614 21.097 21.701C20.753 21.9208 20.3874 22.0507 19.9681 22.1106C19.9681 22.3404 19.9681 22.5702 19.9681 22.8C19.581 22.8 19.2047 22.8 18.8069 22.8C18.8069 22.6202 18.8069 22.4503 18.8069 22.2705C18.8069 22.1706 18.7747 22.1306 18.6672 22.1206C17.9898 22.0207 17.42 21.7509 17.0436 21.2114C16.9791 21.1215 16.9254 21.0216 16.8716 20.9216C16.8609 20.8917 16.8501 20.8717 16.8286 20.8217C17.1834 20.6819 17.5382 20.542 17.8823 20.4021C18.2263 21.0016 18.7854 21.1614 19.4413 21.1415C19.7316 21.1315 20.0111 21.0915 20.2584 20.9216C20.6132 20.6719 20.581 20.2522 20.1616 20.1124C19.8498 20.0025 19.5058 19.9625 19.1725 19.8925C18.8069 19.8226 18.4199 19.7826 18.0651 19.6727C17.4415 19.4829 17.1189 19.0733 17.0974 18.4538C17.0759 17.8743 17.3339 17.4347 17.8823 17.1649C18.1188 17.045 18.3876 16.9751 18.6564 16.9052C18.7854 16.8752 18.8284 16.8352 18.8177 16.7153C18.7962 16.5954 18.8069 16.4456 18.8069 16.2857Z" fill="#FC6B52"/>
    </svg>
    