<svg width="76" height="41" viewBox="0 0 76 41" fill="none" xmlns="http://www.w3.org/2000/svg">
<path fill-rule="evenodd" clip-rule="evenodd" d="M67.7071 6.08354L68.4017 6.7709L70.4118 8.75984C70.4479 8.78712 70.4921 8.8019 70.5375 8.8019C70.5829 8.8019 70.627 8.78712 70.6631 8.75984L71.1804 8.24798C71.208 8.21228 71.2229 8.1686 71.2229 8.12367C71.2229 8.07874 71.208 8.03506 71.1804 7.99936L69.8797 6.7124C70.106 6.64649 70.3163 6.53547 70.4976 6.38616C70.679 6.23685 70.8275 6.05241 70.9341 5.84419C71.0407 5.63597 71.1031 5.40837 71.1175 5.1754C71.1319 4.94242 71.098 4.70899 71.0178 4.48947H72.082C72.1053 4.48947 72.1283 4.48493 72.1499 4.47611C72.1714 4.46729 72.1909 4.45436 72.2074 4.43807C72.2239 4.42177 72.2369 4.40242 72.2458 4.38113C72.2548 4.35984 72.2593 4.33702 72.2593 4.31397V3.59737C72.2593 3.55083 72.2407 3.50619 72.2074 3.47328C72.1741 3.44036 72.129 3.42188 72.082 3.42188H67.4706C67.4235 3.42188 67.3784 3.44036 67.3452 3.47328C67.3119 3.50619 67.2932 3.55083 67.2932 3.59737V4.2701C67.2932 4.31664 67.3119 4.36128 67.3452 4.39419C67.3784 4.4271 67.4235 4.4456 67.4706 4.4456H69.4363C69.5827 4.46814 69.716 4.5417 69.8123 4.65299C69.9087 4.76429 69.9616 4.90599 69.9616 5.05251C69.9616 5.19904 69.9087 5.34074 69.8123 5.45204C69.716 5.56333 69.5827 5.63689 69.4363 5.65943H67.8844C67.8348 5.65955 67.7864 5.6742 67.7451 5.70153C67.7039 5.72885 67.6718 5.76764 67.6529 5.81299C67.6339 5.85835 67.6289 5.90824 67.6386 5.95639C67.6482 6.00453 67.6721 6.04878 67.7071 6.08354Z" fill="white"/>
<path fill-rule="evenodd" clip-rule="evenodd" d="M74.8175 12.3955L74.108 13.0389L74.0046 13.1413L74.8175 12.3955ZM63.2742 2.40687L63.6289 1.92426L63.8506 1.61714L63.2742 2.40687ZM75.4087 12.2785L71.6102 15.7006H69.3488L65.9642 20.088L66.9101 15.7006H61.3527C61.1358 15.7006 60.9274 15.6164 60.7726 15.4659C60.6178 15.3155 60.5289 15.1109 60.5251 14.8963V5.97527C60.502 5.77823 60.5548 5.57984 60.6729 5.41953L63.9245 1.03216C63.9665 0.973842 64.0219 0.926207 64.0862 0.89316C64.1504 0.860113 64.2216 0.842594 64.294 0.842041H75.0835C75.205 0.842041 75.3216 0.889807 75.4075 0.974828C75.4934 1.05985 75.5417 1.17516 75.5417 1.2954V11.9713C75.5447 12.0313 75.5344 12.0913 75.5114 12.1469C75.4884 12.2025 75.4533 12.2524 75.4087 12.2931V12.2785ZM69.7035 12.3955L69.807 12.0737H64.3088C64.2696 12.0737 64.232 12.0583 64.2043 12.0309C64.1765 12.0035 64.161 11.9663 64.161 11.9275V1.28078C64.161 1.26157 64.1648 1.24256 64.1722 1.22481C64.1797 1.20707 64.1905 1.19095 64.2043 1.17737C64.218 1.16379 64.2343 1.15302 64.2522 1.14567C64.2701 1.13832 64.2894 1.13453 64.3088 1.13453H75.0687C75.0894 1.13248 75.1102 1.13474 75.1298 1.14117C75.1495 1.1476 75.1676 1.15804 75.1829 1.17183C75.1983 1.18562 75.2105 1.20245 75.2188 1.22122C75.2272 1.23999 75.2314 1.26028 75.2313 1.28078V11.9275C75.2314 11.948 75.2272 11.9683 75.2188 11.987C75.2105 12.0058 75.1983 12.0226 75.1829 12.0364C75.1676 12.0502 75.1495 12.0607 75.1298 12.0671C75.1102 12.0735 75.0894 12.0758 75.0687 12.0737H71.1077L70.8564 12.3955L70.413 12.9512L68.935 14.7208L69.4818 12.9512L69.7035 12.3955Z" fill="white"/>
<path fill-rule="evenodd" clip-rule="evenodd" d="M5.5869 29.4047V40.3146H0V12.9374H10.1835C12.8623 12.7642 15.5065 13.6119 17.5736 15.3066C18.4064 16.0396 19.0698 16.9415 19.5186 17.951C19.9675 18.9604 20.1914 20.0537 20.1749 21.1564C20.172 22.8917 19.6132 24.5814 18.5787 25.9825C17.3537 27.5787 15.5734 28.6679 13.583 29.0391L20.6479 40.3H14.0264L7.40486 29.3901L5.5869 29.4047ZM5.5869 17.1639V25.2367H10.1835C11.3532 25.3144 12.5064 24.9305 13.3908 24.1691C14.1179 23.3647 14.5199 22.3234 14.5199 21.2442C14.5199 20.165 14.1179 19.1237 13.3908 18.3193C12.5087 17.5526 11.3553 17.1634 10.1835 17.2371L5.5869 17.1639Z" fill="white"/>
<path fill-rule="evenodd" clip-rule="evenodd" d="M28.3916 40.3438C27.1187 40.392 25.8497 40.1762 24.6661 39.7102C23.4825 39.2443 22.4104 38.5385 21.5188 37.6383C20.6206 36.6794 19.924 35.5534 19.4698 34.3256C19.0156 33.0978 18.8128 31.7929 18.8732 30.4869C18.8104 29.1838 19.0136 27.8815 19.4707 26.6578C19.9278 25.4341 20.6294 24.3141 21.5336 23.3647C22.4366 22.4733 23.5155 21.7756 24.703 21.3151C25.8906 20.8546 27.1614 20.6413 28.436 20.6884C29.7131 20.6416 30.9868 20.8477 32.1822 21.2948C33.3777 21.7418 34.4708 22.4207 35.3974 23.2916C36.3123 24.1999 37.0264 25.2865 37.4946 26.4823C37.9627 27.6781 38.1747 28.9571 38.117 30.2382C38.1227 30.8653 38.0732 31.4916 37.9692 32.1102H23.8985C23.9772 33.2224 24.4726 34.2654 25.2878 35.0351C26.1289 35.8071 27.2451 36.2174 28.3916 36.1758C29.1513 36.2135 29.9064 36.0386 30.5703 35.6714C31.2343 35.3041 31.7803 34.7592 32.1458 34.0991H37.511C36.9523 35.8756 35.8139 37.4186 34.2741 38.4865C32.572 39.6683 30.5292 40.2737 28.4507 40.2122L28.3916 40.3438ZM33.0769 28.9659C33.0611 28.3865 32.9212 27.8171 32.6664 27.2953C32.4116 26.7734 32.0478 26.311 31.5989 25.9386C30.7276 25.1776 29.5979 24.7702 28.436 24.7979C27.2999 24.7657 26.1962 25.1752 25.3617 25.9386C24.5138 26.7366 23.9885 27.8127 23.8837 28.9659H33.0769Z" fill="white"/>
<path fill-rule="evenodd" clip-rule="evenodd" d="M45.3005 25.9246V40.3151H39.758V17.3692C39.6633 16.3199 39.8022 15.2629 40.1648 14.2724C40.5274 13.282 41.1049 12.3822 41.8568 11.6363C43.7793 10.2804 46.1255 9.643 48.4783 9.83752H51.5525V14.4443H48.4783C47.6045 14.3604 46.7303 14.6001 46.0248 15.117C45.7543 15.4202 45.5503 15.7755 45.4256 16.1607C45.301 16.5458 45.2584 16.9523 45.3005 17.3546V21.4056H48.7887V25.9099L45.3005 25.9246Z" fill="white"/>
<path fill-rule="evenodd" clip-rule="evenodd" d="M55.2485 21.5349V22.9974C56.4605 21.7543 58.8253 21.5349 61.2492 21.5349V26.01C59.2835 26.01 55.3372 26.5804 55.3372 29.1689V40.3129H50.4302V21.5349H55.2485Z" fill="white"/>
</svg>