<svg id="_ëîé_1" data-name="—ëîé_1" xmlns="http://www.w3.org/2000/svg" xmlns:xlink="http://www.w3.org/1999/xlink" viewBox="0 0 3250.45 2982.34"><defs><style>.cls-1{fill:#f2e9e1;}.cls-2{clip-path:url(#clip-path);}.cls-3{fill:#dba465;}.cls-4{fill:#d14bf3;}.cls-5{fill:#0d0500;}.cls-6{fill:#f0b976;}</style><clipPath id="clip-path"><circle class="cls-1" cx="1625.22" cy="1491.17" r="1220.47"/></clipPath></defs><circle class="cls-1" cx="1625.22" cy="1491.17" r="1220.47"/><g class="cls-2"><path class="cls-3" d="M1438.65,2103.89c236.1,448.77,337.76,60.67,388.78,0V1941.18H1438.65Z"/><path class="cls-3" d="M1827.43,2037.62s-166.36,162.72-388.78,0H1314.4a549.67,549.67,0,0,0-130.88,15.77c56.77,66.84,204,206.4,449.52,216.23,229.57,9.19,386.21-130.19,453.49-205.27-56.62-17-115.38-26.4-173.64-26.73Z"/><path class="cls-4" d="M2086.53,2064.35c-67.28,75.08-223.92,214.46-453.49,205.27-245.57-9.83-392.75-149.39-449.52-216.23-174.76,42.77-316.66,169.21-380.9,334.47,217.63,200.45,508.2,322.93,827.41,322.93,322.17,0,615.15-124.76,833.43-328.53C2402.26,2232,2253.76,2114.65,2086.53,2064.35Z"/><path class="cls-5" d="M2046.53,680.07c-100.91-40.75-163-184.35-361-139.72s-232.87-17.47-370.65,55.85-137.15,144.57-219.49,231.36-36.68,230.71-52.19,343.48,26,159.63,26,159.63,938,196,1023,128.79c97.09-76.73,74.54-305.51,86.28-420.38S2147.44,720.83,2046.53,680.07Z"/><path class="cls-5" d="M1661.6,565.2S1183.51,527,1082.43,928.55s86.9,689.42,86.9,689.42-91.1-940.76,447.82-875.19,535.12,555.88,444.14,842.08C2061.29,1584.86,2481.18,636.23,1661.6,565.2Z"/><path class="cls-6" d="M1109.92,1334.78c-18.78-10.72-43,.82-40.55,19.37l22.82,176.17c4.43,34.19,39.19,61.27,80.14,62.43h0l-42.62-246.67Z"/><path class="cls-6" d="M2123.7,1326.9l-15.71,6.62-46.7,251.34c40.95-1.16,75.7-28.23,80.13-62.42l22.83-176.18C2166.65,1327.72,2142.47,1316.18,2123.7,1326.9Z"/><path class="cls-5" d="M1293,1650.7s-84,128.51,0,200.38c0,0-128.89,134.76,0,216.33,0,0-116.81,81.1,0,189.5,0,0-86.61,44.57,0,136.77,0,0-121.1,66.51,32.26,237.62,0,0-16.37-19.12,25.84-87.5,28.43-46.07,93.27-56.56,17.89-147.49,0,0,61.93-45.27,13-139.4,0,0,94.52-119,0-187.92,0,0,110.82-97.62,19.56-204.81,0,0,117.72-32.54,36-160.79Z"/><path class="cls-5" d="M1971.16,1851.08c84-71.87,0-200.38,0-200.38l-144.63,52.69c-81.68,128.25,36,160.79,36,160.79-91.26,107.19,19.56,204.81,19.56,204.81-94.52,68.91,0,187.92,0,187.92-48.89,94.13,13,139.4,13,139.4-75.38,90.93-10.54,101.42,17.89,147.49,42.21,68.38,25.84,87.5,25.84,87.5,153.36-171.11,32.26-237.62,32.26-237.62,86.61-92.2,0-136.77,0-136.77,116.81-108.4,0-189.5,0-189.5C2100,1985.84,1971.16,1851.08,1971.16,1851.08Z"/><path class="cls-6" d="M2105.86,1202.6c-36.42-337.87-195.57-559.45-488.71-559.45s-452.28,221.58-488.71,559.45c-3.12,29-1.86,119.64-1.94,149.65-.22,76.21,28.08,207.84,42.83,265.72,8.92,35,182.59,400.21,447.82,400.21S2056.05,1652.94,2065,1618c14.76-57.88,43.06-189.51,42.84-265.72C2107.72,1322.24,2109,1231.59,2105.86,1202.6Z"/><path class="cls-5" d="M1701.13,607s-262,36.48-275.07,222c0,0,124.43,189.93,310,203s134.37,161.59,246.7,255.42c92.59,77.35,45.69,265,45.69,265h0a339.73,339.73,0,0,0,95.26-235.9V1008.73l-106-243Z"/><path class="cls-5" d="M1394.24,658.05,1183.68,765.73l-88.24,340.56,30.87,237.85s-15.37-130.8,86.37-170.21,41.86-159.82,175.8-172.92S1633,686.87,1633,686.87C1623.59,501.3,1394.24,658.05,1394.24,658.05Z"/></g></svg>