<svg id="_ëîé_1" data-name="—ëîé_1" xmlns="http://www.w3.org/2000/svg" xmlns:xlink="http://www.w3.org/1999/xlink" viewBox="0 0 3250.45 2982.34"><defs><style>.cls-1{fill:#f2e9e1;}.cls-2{clip-path:url(#clip-path);}.cls-3{fill:#eaff00;}.cls-4{fill:#f0b976;}.cls-5{fill:#8c6a43;}</style><clipPath id="clip-path"><circle class="cls-1" cx="1698.66" cy="1491.17" r="1326.36" transform="translate(-556.89 1637.88) rotate(-45)"/></clipPath></defs><circle class="cls-1" cx="1698.66" cy="1491.17" r="1326.36" transform="translate(-556.89 1637.88) rotate(-45)"/><g class="cls-2"><path class="cls-3" d="M1491.46,2158.22c256.57,487.7,367.07,65.93,422.51,0V1981.39H1491.46Z"/><path class="cls-4" d="M1134.23,1322.37c-20.41-11.65-46.68.89-44.07,21l24.8,191.46c4.81,37.16,42.58,66.58,87.08,67.85h0l-46.3-268.07Z"/><path class="cls-4" d="M2216.57,1178.74c-39.57-367.19-212.52-608-531.09-608s-491.53,240.8-531.12,608c-3.4,31.51-2,130-2.12,162.63-.23,82.82,30.51,225.87,46.55,288.77,9.69,38,198.42,434.94,486.66,435s477-396.92,486.68-434.93c16-62.9,46.8-206,46.56-288.77C2218.6,1308.76,2220,1210.25,2216.57,1178.74Z"/><path class="cls-5" d="M1405.57,592.7h0a522.87,522.87,0,0,0-257,394L1136.37,1096c-9.26,82.82-11.64,166.67,15.87,245.34,50.57-455.88,550.5-491.87,550.5-491.87v-332h-18A555.82,555.82,0,0,0,1405.57,592.7Z"/><path class="cls-4" d="M2236,1313.82l-17.06,7.2-50.76,273.15c44.5-1.26,82.27-30.68,87.09-67.85l24.8-191.45C2282.63,1314.72,2256.36,1302.17,2236,1313.82Z"/><path class="cls-5" d="M2226.37,986.69a522.86,522.86,0,0,0-256.95-394h0a555.69,555.69,0,0,0-279.18-75.22h-18v332s499.93,36,550.48,491.89c27.52-78.67,25.14-162.52,15.88-245.34Z"/><path class="cls-5" d="M1169.62,404.65s-174.89,45.24-127.37,165-87.45,143.71,0,250.17,255.27,0,255.27,0l203-146.21s-46.1-66.7,12.45-133.23S1342.62,245,1169.62,404.65Z"/><path class="cls-5" d="M2339.11,569.68c47.52-119.76-127.37-165-127.37-165-173-159.69-401.88,69.19-343.32,135.73s12.44,133.23,12.44,133.23l203,146.22s167.81,106.46,255.26,0S2291.58,689.44,2339.11,569.68Z"/><path class="cls-5" d="M1689.58,599.48c-248.34,64.44-459.9,121.57-522.89,370.29l-12.49,149.44c-16.38,64.69,2.25,118.49-5.08,184.82l-13.4,121.13c-22.08,199.56,17.1,397.1,169.74,527.53h0c-54.62-126.37-63.23-268.06-23.35-399.82,25.25-83.46,52.64-194.35,73.33-331.24,51.82-343,568.91-429.37,568.91-429.37l-124-221.52Z"/><path class="cls-4" d="M2006.85,2086.2H1914s-180.8,176.85-422.51,0h-135c-253.31,0-469.61,157.92-556.19,380.62a1331.14,1331.14,0,0,0,306.37,211.44L1259,2390.38s174.92-152.39,443.77,0c268.84-152.39,443.77,0,443.77,0l151,285.24a1331.3,1331.3,0,0,0,307.69-214.87C2516.15,2242.12,2257.14,2087.63,2006.85,2086.2Z"/><path class="cls-3" d="M2146.52,2390.38s-174.93-152.39-443.77,0c-268.85-152.39-443.77,0-443.77,0l-152.37,287.86c178.44,89.23,379.74,139.52,592.82,139.52,1.1,0,2.2,0,3.29,0h0c213.93-.52,415.92-51.7,594.72-142.1Z"/></g></svg>