<svg id="_ëîé_1" data-name="—ëîé_1" xmlns="http://www.w3.org/2000/svg" xmlns:xlink="http://www.w3.org/1999/xlink" viewBox="0 0 3250.45 2982.34"><defs><style>.cls-1{fill:#f2e9e1;}.cls-2{clip-path:url(#clip-path);}.cls-3{fill:#f0b976;}.cls-4{fill:#dba465;}.cls-5{fill:#191c21;}.cls-6{fill:#15b6be;}.cls-7{fill:#91faff;}</style><clipPath id="clip-path"><circle class="cls-1" cx="1625.22" cy="1491.17" r="1213.24" transform="translate(-578.4 1585.96) rotate(-45)"/></clipPath></defs><circle class="cls-1" cx="1625.22" cy="1491.17" r="1213.24" transform="translate(-578.4 1585.96) rotate(-45)"/><g class="cls-2"><path class="cls-3" d="M1105.21,1336.56c-18.67-10.66-42.7.82-40.31,19.25l22.68,175.13c4.41,34,39,60.9,79.66,62h0l-42.36-245.2Z"/><path class="cls-3" d="M2113,1328.72,2093.29,1340l-42.36,245.2c40.71-1.15,75.26-28.07,79.66-62.06L2153.28,1348C2155.67,1329.54,2131.64,1318.07,2113,1328.72Z"/><path class="cls-4" d="M1432,2101.11c234.7,446.11,335.77,60.31,386.48,0V1939.36H1432Z"/><path class="cls-3" d="M2095.24,1205.16C2059,869.29,1900.83,649,1609.43,649s-449.61,220.27-485.81,556.14c-3.11,28.82-1.85,118.93-1.94,148.76-.21,75.76,27.92,206.61,42.58,264.15,8.87,34.76,181.51,397.84,445.17,397.84s436.3-363.08,445.16-397.84c14.67-57.54,42.81-188.39,42.59-264.15C2097.09,1324.09,2098.35,1234,2095.24,1205.16Z"/><path class="cls-5" d="M1789.88,638.73c-195.54-22.21-161.38-95.46-446.56-46.81-132.52,22.61-204.38,76.1-238.87,133.72-19.38,32.38-25.91,71.63-20,109.5.21,1.36.44,2.72.67,4.07a192.45,192.45,0,0,0,8.45,31.11c3.33,9.5,7.05,25.29.16,36.21-21.36,30.23-104.57,171.08,23.55,376.8,0,9.83.09,18.72.1,25.88l-.64-.36c2.37,22.06,11.15,124.08,29.59,230.65,36.29-87.25,71.08-263.2,51.06-365.86-8.26-42.38-3.6-83.74,13.48-119.6,30-63,80.25-85.12,149.3-65.69,55,15.48,88.7,28,115.78,38,53.56,19.86,80.44,29.83,191.2,32.38,119.64,2.69,184.23-31,231.36-55.63,26.61-13.91,45.85-24,64.88-21.56,49,6.18,94.18,79.09,81.46,202.06-7.9,76.25-14.58,262.73,29.22,347.81,23.24-135.75,31.21-220.12,42.59-237.06,30-55.82,97-200.56,57.08-316C2123.23,832.16,1985.43,660.94,1789.88,638.73Z"/><path class="cls-6" d="M1308.47,2035.23c-231.71,0-429.55,144.46-508.75,348.17,190.63,175.58,437.57,290.92,710.66,315.87l-78.4-664Z"/><path class="cls-7" d="M1432,2035.23l78.4,664q55.26,5.05,111.85,5.14,59.67,0,117.9-5.66l78.33-663.52S1653.08,2197,1432,2035.23Z"/><path class="cls-6" d="M1903.42,2035.23h-85l-78.33,663.52c273.56-26.37,520.56-143.52,710.6-320.92C2369.28,2177.85,2132.36,2036.53,1903.42,2035.23Z"/></g></svg>