<svg width="27" height="22" viewBox="0 0 27 22" fill="none" xmlns="http://www.w3.org/2000/svg">
    <path d="M17.8637 1H1.50024V15.4445H17.8637V1Z" stroke="black" stroke-width="2" stroke-linecap="round" stroke-linejoin="round"/>
    <path d="M17.8635 6.55542H22.2271L25.4998 9.88877V15.4444H17.8635V6.55542Z" stroke="black" stroke-width="2" stroke-linecap="round" stroke-linejoin="round"/>
    <path d="M6.40815 20.9999C7.91437 20.9999 9.13539 19.7563 9.13539 18.2221C9.13539 16.688 7.91437 15.4443 6.40815 15.4443C4.90194 15.4443 3.68091 16.688 3.68091 18.2221C3.68091 19.7563 4.90194 20.9999 6.40815 20.9999Z" stroke="black" stroke-width="2" stroke-linecap="round" stroke-linejoin="round"/>
    <path d="M20.5908 20.9999C22.097 20.9999 23.318 19.7563 23.318 18.2221C23.318 16.688 22.097 15.4443 20.5908 15.4443C19.0846 15.4443 17.8635 16.688 17.8635 18.2221C17.8635 19.7563 19.0846 20.9999 20.5908 20.9999Z" stroke="black" stroke-width="2" stroke-linecap="round" stroke-linejoin="round"/>
    </svg>
    