<svg width="26" height="26" viewBox="0 0 26 26" fill="none" xmlns="http://www.w3.org/2000/svg">
<path d="M9.72665 25.0001C10.3291 25.0001 10.8176 24.4884 10.8176 23.8572C10.8176 23.226 10.3291 22.7144 9.72665 22.7144C9.12416 22.7144 8.63574 23.226 8.63574 23.8572C8.63574 24.4884 9.12416 25.0001 9.72665 25.0001Z" stroke="#F0F0F0" stroke-width="2" stroke-linecap="round" stroke-linejoin="round"/>
<path d="M21.7267 25.0001C22.3291 25.0001 22.8176 24.4884 22.8176 23.8572C22.8176 23.226 22.3291 22.7144 21.7267 22.7144C21.1242 22.7144 20.6357 23.226 20.6357 23.8572C20.6357 24.4884 21.1242 25.0001 21.7267 25.0001Z" stroke="#F0F0F0" stroke-width="2" stroke-linecap="round" stroke-linejoin="round"/>
<path d="M1 1H5.36364L8.28727 16.3028C8.38703 16.829 8.66026 17.3016 9.05914 17.638C9.45802 17.9744 9.95713 18.1531 10.4691 18.1428H21.0727C21.5847 18.1531 22.0838 17.9744 22.4827 17.638C22.8816 17.3016 23.1548 16.829 23.2545 16.3028L25 6.71427H6.45455" stroke="#F0F0F0" stroke-width="2" stroke-linecap="round" stroke-linejoin="round"/>
</svg>
