<svg width="91" height="91" viewBox="0 0 91 91" fill="none" xmlns="http://www.w3.org/2000/svg">
    <g clip-path="url(#clip0_40_785)">
    <path d="M90.9998 7.87395C90.9505 8.23971 90.9029 8.60603 90.8519 8.97178C90.642 10.4858 90.0858 11.9001 89.5893 13.331C87.213 20.1794 84.8334 27.0266 82.4514 33.8733C80.5391 39.3705 78.6216 44.8654 76.7058 50.3608C76.668 50.4686 76.625 50.5747 76.578 50.6991C76.5361 50.6733 76.4914 50.6578 76.4644 50.6268C75.1708 49.1254 73.5486 48.0597 71.8164 47.1476C69.4121 45.8812 66.8627 44.9817 64.2623 44.2147C64.1986 44.1958 64.1361 44.1717 64.0403 44.1385C64.0403 43.3152 64.0111 42.4851 64.0461 41.6567C64.1287 39.6915 64.1934 37.724 64.3569 35.7646C64.5169 33.8452 64.7365 31.927 65.026 30.0232C65.416 27.4606 65.8552 24.9032 66.3523 22.359C66.9906 19.0913 67.8707 15.8855 69.095 12.7824C70.107 10.2169 71.3427 7.77248 73.0504 5.58886C74.6909 3.49066 76.6537 1.7949 79.175 0.847844C81.4669 -0.0132214 83.8242 -0.294701 86.2222 0.357117C88.8513 1.072 90.501 3.10828 90.8834 5.82735C90.9201 6.08934 90.9608 6.35075 90.9993 6.61217C90.9998 7.03353 90.9998 7.45374 90.9998 7.87395Z" fill="#474B9C"/>
    <path d="M48.6478 63.6616C42.5702 63.6616 36.4932 63.6685 30.4156 63.6547C29.4442 63.6524 28.4573 63.653 27.5055 63.4914C25.186 63.0969 23.4371 61.7904 22.1452 59.8539C21.0942 58.2785 20.5202 56.5226 20.2409 54.6623C20.0603 53.4607 19.9651 52.2545 20.0632 51.038C20.2547 48.66 21.4462 46.9471 23.5294 45.8315C24.967 45.0615 26.5238 44.6499 28.1202 44.3983C32.0337 43.7808 35.9794 43.692 39.9227 43.8949C42.4458 44.0245 44.963 44.3249 47.4746 44.623C51.4071 45.0902 55.3011 45.7953 59.1596 46.6897C62.2996 47.4177 65.4052 48.2668 68.3858 49.5159C70 50.1924 71.5654 50.9635 72.9077 52.1135C73.6882 52.7819 74.3722 53.5398 74.5546 54.5895C74.6463 55.1174 74.6268 55.6747 74.5896 56.2136C74.4904 57.6628 74.1675 59.0622 73.4984 60.3624C72.7208 61.873 71.609 63.0224 69.9237 63.4873C69.4415 63.6203 68.9283 63.7012 68.4288 63.7017C61.8351 63.7155 55.2415 63.7109 48.6478 63.7109C48.6478 63.6949 48.6478 63.6782 48.6478 63.6616Z" fill="#474B9C"/>
    <path d="M74.6371 91C60.0655 91 45.5324 91 31.001 91C30.9872 90.9839 30.9643 90.969 30.9643 90.9552C30.9723 90.1727 30.9121 89.3822 31.0073 88.61C31.1736 87.2576 31.9895 86.2538 32.981 85.3881C34.4839 84.0765 36.254 83.2315 38.101 82.5378C40.8556 81.503 43.7124 80.8896 46.6247 80.505C49.5319 80.1215 52.4483 80.0028 55.3739 80.173C59.7777 80.4287 64.0874 81.1677 68.2028 82.8227C69.731 83.4373 71.1869 84.1929 72.4541 85.2637C73.4025 86.0646 74.2087 86.9836 74.4955 88.2299C74.6113 88.7344 74.6061 89.2692 74.6331 89.7915C74.6537 90.1888 74.6371 90.5883 74.6371 91Z" fill="#474B9C"/>
    <path d="M32.3061 67.3225C32.2143 67.7714 32.1398 68.2002 32.0383 68.6227C31.3267 71.5929 30.107 74.3188 28.1282 76.6739C26.2491 78.9097 23.9262 80.5418 21.2547 81.6907C18.9347 82.6882 16.5103 83.2987 13.9993 83.5452C12.9649 83.6467 11.9236 83.7161 10.8851 83.7247C7.90451 83.7482 4.92334 83.7344 1.94217 83.7321C0.948448 83.7315 0.240284 83.1886 0.0413102 82.288C-0.197803 81.2028 0.626764 80.1176 1.73689 80.1118C4.82299 80.0958 7.90852 80.1095 10.9946 80.0981C13.5377 80.0889 16.0384 79.777 18.4605 78.9658C21.8906 77.817 24.6642 75.8168 26.5593 72.6867C27.5169 71.105 28.1419 69.392 28.5456 67.5948C28.5932 67.3816 28.6597 67.2996 28.8931 67.3024C29.9344 67.3151 30.9757 67.3047 32.0171 67.3042C32.1014 67.3042 32.1851 67.3145 32.3061 67.3225Z" fill="#474B9C"/>
    <path d="M38.617 40.1507C37.3784 40.1507 36.1685 40.1507 34.9369 40.1507C35.2247 38.5002 35.7442 36.9575 36.6015 35.5375C37.9169 33.3596 39.8114 31.8634 42.1275 30.8659C43.9113 30.0977 45.7835 29.6746 47.7022 29.4287C49.5629 29.1902 51.4322 29.1334 53.3061 29.1403C55.8859 29.1495 58.4663 29.1426 61.0461 29.1426C61.1596 29.1426 61.2726 29.1426 61.4279 29.1426C61.3781 29.5491 61.3316 29.932 61.2846 30.3144C61.1929 31.0625 61.0942 31.8095 61.0139 32.5588C60.9944 32.7382 60.9211 32.7778 60.7599 32.776C60.0913 32.7703 59.4221 32.7715 58.7536 32.7743C56.164 32.7858 53.5739 32.7583 50.9861 32.8231C48.5755 32.8832 46.1918 33.1814 43.9222 34.0745C41.1974 35.1466 39.4089 37.0584 38.6916 39.9266C38.6721 39.9994 38.644 40.0693 38.617 40.1507Z" fill="#474B9C"/>
    <path d="M47.3392 76.7386C47.3392 73.5534 47.3392 70.4245 47.3392 67.2709C50.9735 67.2709 54.5952 67.2709 58.2358 67.2709C58.2358 70.409 58.2358 73.546 58.2358 76.7351C54.6135 76.3688 50.9884 76.3608 47.3392 76.7386Z" fill="#474B9C"/>
    </g>
    <defs>
    <clipPath id="clip0_40_785">
    <rect width="91" height="91" fill="white"/>
    </clipPath>
    </defs>
    </svg>
    