<svg width="16" height="13" viewBox="0 0 16 13" fill="none" xmlns="http://www.w3.org/2000/svg">
    <path d="M16 7.02589C15.9563 7.32039 15.9126 7.65695 15.8688 7.95145C15.5628 9.84466 14.6885 11.4434 13.2896 12.7896C13.071 13 12.8087 13 12.5902 12.7896C12.4153 12.6214 12.4153 12.3269 12.6339 12.1165C13.7268 11.0647 14.4699 9.80259 14.776 8.37216C15.3443 6.01618 14.9071 3.82848 13.5082 1.85113C13.4645 1.80906 13.4645 1.80906 13.4208 1.76699C13.4208 1.8932 13.4208 2.01941 13.4208 2.1877C13.4208 2.56634 13.0273 2.7767 12.7213 2.56634C12.5902 2.4822 12.5027 2.35598 12.5027 2.1877C12.5027 1.5987 12.5027 1.05178 12.5027 0.46278C12.5027 0.210353 12.6776 0.0420685 12.9399 0.0420685C13.5082 0.0420685 14.1202 0.0420685 14.6885 0.0420685C14.9508 0.0420685 15.1694 0.252424 15.1694 0.504852C15.1694 0.757279 14.9508 0.925564 14.6885 0.967635C14.4699 0.967635 14.2514 0.967635 13.9891 0.967635C14.0328 1.05178 14.0765 1.09385 14.0765 1.13592C15.1257 2.44013 15.7377 3.91262 15.9126 5.55339C15.9126 5.72168 15.9563 5.88996 15.9563 6.01618C16 6.35275 16 6.68932 16 7.02589Z" fill="url(#paint0_linear_40_699)"/>
    <path d="M6.77596 0C10.4918 0 13.5082 2.94498 13.5082 6.52104C13.5082 10.0971 10.4481 13 6.73224 13C3.01639 13 0 10.055 0 6.47896C0 2.90291 3.06011 0 6.77596 0ZM0.961749 6.94175C1.0929 9.59223 3.49727 11.9061 6.29508 12.0744C6.29508 11.9482 6.29508 11.822 6.29508 11.6958C6.29508 11.4013 6.51366 11.233 6.77596 11.233C7.03825 11.233 7.25683 11.4434 7.25683 11.6958C7.25683 11.822 7.25683 11.9482 7.25683 12.0744C10.0984 11.9061 12.459 9.50809 12.5464 6.94175C12.4153 6.94175 12.2842 6.94175 12.153 6.94175C11.847 6.94175 11.6284 6.73139 11.6284 6.47896C11.6284 6.22654 11.847 6.01618 12.153 6.01618C12.2842 6.01618 12.4153 6.01618 12.5464 6.01618C12.3279 3.15534 9.74863 1.00971 7.21311 0.925566C7.21311 1.05178 7.21311 1.17799 7.21311 1.30421C7.21311 1.59871 7.03825 1.76699 6.73224 1.80906C6.46994 1.80906 6.25137 1.59871 6.25137 1.30421C6.25137 1.17799 6.25137 1.05178 6.25137 0.925566C3.23497 1.13592 1.04918 3.66019 1.00546 6.05825C1.13661 6.05825 1.26776 6.05825 1.39891 6.05825C1.70492 6.05825 1.87978 6.26861 1.87978 6.52104C1.87978 6.77346 1.6612 6.98382 1.39891 6.98382C1.22404 6.94175 1.0929 6.94175 0.961749 6.94175Z" fill="url(#paint1_linear_40_699)"/>
    <path d="M6.77595 7.86731C5.98906 7.86731 5.37704 7.27832 5.37704 6.52104C5.37704 6.39482 5.33333 6.35275 5.24589 6.31068C4.80874 6.10032 4.37158 5.93204 3.93442 5.72168C3.71584 5.63754 3.62841 5.46926 3.67212 5.2589C3.71584 5.04854 3.84699 4.88026 4.06557 4.88026C4.19671 4.88026 4.32786 4.88026 4.41529 4.92233C4.85245 5.09061 5.28961 5.30097 5.68305 5.51133C5.77048 5.5534 5.85792 5.5534 5.94535 5.46926C6.46994 5.04854 7.21311 5.04854 7.7377 5.46926C7.82513 5.5534 7.86885 5.5534 7.95628 5.51133C8.87431 5.09062 9.79234 4.6699 10.7104 4.29126C10.8852 4.20712 11.1038 4.20712 11.235 4.33333C11.3661 4.45955 11.4098 4.58576 11.4098 4.79612C11.3661 4.9644 11.235 5.04854 11.1038 5.13269C10.1858 5.5534 9.26775 5.97411 8.34972 6.35275C8.26229 6.39482 8.21857 6.43689 8.21857 6.56311C8.17486 7.23625 7.51912 7.86731 6.77595 7.86731ZM6.73223 6.05825C6.46994 6.05825 6.25136 6.26861 6.25136 6.52104C6.25136 6.77346 6.46994 6.98382 6.73223 6.98382C6.99453 6.98382 7.21311 6.77346 7.21311 6.52104C7.21311 6.22654 6.99453 6.05825 6.73223 6.05825Z" fill="url(#paint2_linear_40_699)"/>
    <defs>
    <linearGradient id="paint0_linear_40_699" x1="14.232" y1="0.0420685" x2="14.232" y2="12.9474" gradientUnits="userSpaceOnUse">
    <stop stop-color="#FF8391"/>
    <stop offset="1" stop-color="#FA9943"/>
    </linearGradient>
    <linearGradient id="paint1_linear_40_699" x1="6.7541" y1="0" x2="6.7541" y2="13" gradientUnits="userSpaceOnUse">
    <stop stop-color="#FF8391"/>
    <stop offset="1" stop-color="#FA9943"/>
    </linearGradient>
    <linearGradient id="paint2_linear_40_699" x1="7.53551" y1="4.23262" x2="7.53551" y2="7.86731" gradientUnits="userSpaceOnUse">
    <stop stop-color="#FF8391"/>
    <stop offset="1" stop-color="#FA9943"/>
    </linearGradient>
    </defs>
    </svg>
    