<svg width="58" height="58" viewBox="0 0 58 58" fill="none" xmlns="http://www.w3.org/2000/svg">
    <path d="M29 57C44.464 57 57 44.464 57 29C57 13.536 44.464 1 29 1C13.536 1 1 13.536 1 29C1 44.464 13.536 57 29 57Z" stroke="#1877F2" stroke-width="2" stroke-linecap="round" stroke-linejoin="round"/>
    <rect x="4.69238" y="5" width="48" height="48" rx="24" fill="#1877F2"/>
    <path d="M38.0346 35.9375L39.0986 29H32.4424V24.5C32.4424 22.6016 33.3705 20.75 36.3518 20.75H39.3799V14.8438C39.3799 14.8438 36.633 14.375 34.008 14.375C28.5236 14.375 24.9424 17.6984 24.9424 23.7125V29H18.8486V35.9375H24.9424V52.7094C26.1658 52.9016 27.4174 53 28.6924 53C29.9674 53 31.2189 52.9016 32.4424 52.7094V35.9375H38.0346Z" fill="white"/>
    </svg>
    