<svg width="17" height="17" viewBox="0 0 17 17" fill="none" xmlns="http://www.w3.org/2000/svg">
    <g clip-path="url(#clip0_200_724)">
    <path d="M0.322266 10.6857C0.349106 10.6052 0.375946 10.4978 0.402786 10.4173C0.590667 9.77313 1.20799 9.29 1.87899 9.26316C3.3552 9.26316 4.80456 9.23632 6.28077 9.26316C7.13965 9.26316 7.83749 9.98785 7.83749 10.8199C7.83749 12.2693 7.83749 13.7186 7.83749 15.168C7.83749 15.9195 7.27385 16.5637 6.52233 16.7247C6.49549 16.7247 6.44181 16.7516 6.41497 16.7516C4.85824 16.7516 3.27468 16.7516 1.71795 16.7516C1.69111 16.7516 1.66427 16.7247 1.63743 16.7247C1.20799 16.6442 0.832227 16.4295 0.617507 16.0537C0.483306 15.839 0.402786 15.5706 0.322266 15.3559C0.322266 13.7991 0.322266 12.2424 0.322266 10.6857ZM4.07988 16C4.77772 16 5.47556 16 6.17341 16C6.73705 16 7.11281 15.6243 7.11281 15.0606C7.11281 13.6918 7.11281 12.2961 7.11281 10.9273C7.11281 10.3636 6.76389 9.98785 6.20025 9.98785C4.80456 9.98785 3.40888 9.98785 2.01319 9.98785C1.44955 9.98785 1.10063 10.3636 1.10063 10.9273C1.10063 12.2961 1.10063 13.6918 1.10063 15.0606C1.10063 15.6243 1.47639 16 2.04003 16C2.68419 16 3.38204 16 4.07988 16Z" fill="#C15254"/>
    <path d="M0.322266 2.1237C0.402786 1.8553 0.483306 1.58689 0.671187 1.34533C0.993268 0.942733 1.39587 0.701172 1.87899 0.701172C3.3552 0.701172 4.80456 0.701172 6.28077 0.701172C7.11281 0.701172 7.83749 1.42585 7.83749 2.2579C7.86433 3.70726 7.86433 5.18347 7.83749 6.63283C7.83749 7.46488 7.13965 8.18956 6.28077 8.18956C4.8314 8.2164 3.3552 8.2164 1.90583 8.18956C1.10063 8.18956 0.483306 7.62592 0.349106 6.84755C0.349106 6.82071 0.322266 6.79387 0.322266 6.76703C0.322266 5.23715 0.322266 3.68042 0.322266 2.1237ZM4.07988 7.46488C4.77772 7.46488 5.47556 7.46488 6.17341 7.46488C6.73705 7.46488 7.11281 7.08911 7.11281 6.52547C7.11281 5.15663 7.11281 3.78778 7.11281 2.41894C7.11281 1.8553 6.73705 1.47953 6.17341 1.47953C4.80456 1.47953 3.40888 1.47953 2.04003 1.47953C1.44955 1.47953 1.10063 1.8553 1.10063 2.41894C1.10063 3.78778 1.10063 5.15663 1.10063 6.49863C1.10063 7.08911 1.44955 7.46488 2.06687 7.46488C2.71103 7.46488 3.40888 7.46488 4.07988 7.46488Z" fill="#C15254"/>
    <path d="M10.2531 16.7515C9.98469 16.671 9.71629 16.5905 9.47473 16.4295C9.07213 16.1074 8.83057 15.7048 8.83057 15.168C8.83057 13.7186 8.83057 12.2692 8.83057 10.8199C8.83057 9.98784 9.52841 9.26316 10.3873 9.26316C11.8635 9.23632 13.3397 9.23632 14.8159 9.26316C15.648 9.26316 16.3458 9.98784 16.3726 10.8199C16.3726 11.1688 16.3726 11.5177 16.3726 11.8935C16.3726 12.135 16.2116 12.2961 15.9969 12.2961C15.7822 12.2961 15.6211 12.135 15.6211 11.8935C15.6211 11.5714 15.6211 11.2493 15.6211 10.9272C15.6211 10.3904 15.2454 10.0147 14.7354 10.0147C13.3129 10.0147 11.9172 10.0147 10.4947 10.0147C9.95785 10.0147 9.60893 10.3904 9.60893 10.9272C9.60893 12.3229 9.60893 13.7186 9.60893 15.1143C9.60893 15.6243 9.98469 16.0269 10.4947 16.0269C11.8903 16.0269 13.3129 16.0269 14.7085 16.0269C15.2453 16.0269 15.5943 15.6511 15.6211 15.1411C15.6211 14.9264 15.6211 14.7117 15.6211 14.5238C15.6211 14.2823 15.7822 14.1212 15.9969 14.1212C16.2116 14.1212 16.3726 14.2823 16.3726 14.5238C16.3726 14.8459 16.3995 15.1948 16.319 15.5169C16.1848 16.1879 15.7285 16.5905 15.0575 16.7515C15.0306 16.7515 14.9769 16.7784 14.9501 16.7784C13.3934 16.7515 11.8367 16.7515 10.2531 16.7515Z" fill="#C15254"/>
    <path d="M12.615 8.2164C11.944 8.2164 11.2462 8.2164 10.5752 8.2164C9.55526 8.2164 8.85742 7.51856 8.85742 6.49863C8.85742 5.15663 8.85742 3.78778 8.85742 2.44578C8.85742 1.42585 9.55526 0.728012 10.5752 0.728012C11.944 0.728012 13.3129 0.728012 14.6549 0.728012C15.6748 0.728012 16.3726 1.42585 16.3726 2.44578C16.3726 3.81462 16.3726 5.21031 16.3726 6.57915C16.3726 7.4112 15.809 8.05536 15.0038 8.2164C14.8696 8.2164 14.7622 8.2164 14.628 8.2164C13.957 8.2164 13.286 8.2164 12.615 8.2164ZM12.615 7.46488C13.3129 7.46488 13.9839 7.46488 14.6817 7.46488C15.2722 7.46488 15.6211 7.11595 15.6211 6.52547C15.6211 5.15663 15.6211 3.78778 15.6211 2.44578C15.6211 1.8553 15.2722 1.47953 14.6549 1.47953C13.286 1.47953 11.9172 1.47953 10.5215 1.47953C9.93103 1.47953 9.5821 1.8553 9.5821 2.41894C9.5821 3.78778 9.5821 5.15663 9.5821 6.49863C9.5821 7.08911 9.93103 7.46488 10.5483 7.46488C11.2462 7.46488 11.9172 7.46488 12.615 7.46488Z" fill="#C15254"/>
    </g>
    <defs>
    <clipPath id="clip0_200_724">
    <rect width="16.0504" height="16.0504" fill="white" transform="translate(0.322266 0.701172)"/>
    </clipPath>
    </defs>
    </svg>
    