<svg width="28" height="28" viewBox="0 0 28 28" fill="none" xmlns="http://www.w3.org/2000/svg">
    <circle cx="14" cy="14" r="14" fill="#EFEFEF" />
    <path d="M19.5723 8.57667C19.2503 8.20736 18.8681 7.9144 18.4473 7.71453C18.0266 7.51465 17.5756 7.41177 17.1202 7.41177C16.6648 7.41177 16.2138 7.51465 15.7931 7.71453C15.3723 7.9144 14.9901 8.20736 14.6681 8.57667L13.9999 9.34275L13.3318 8.57667C12.6814 7.83105 11.7994 7.41216 10.8797 7.41216C9.95994 7.41216 9.07789 7.83105 8.42756 8.57667C7.77722 9.32229 7.41187 10.3336 7.41187 11.388C7.41187 12.4425 7.77722 13.4538 8.42756 14.1994L9.09574 14.9655L13.9999 20.5882L18.9041 14.9655L19.5723 14.1994C19.8944 13.8303 20.1499 13.392 20.3243 12.9096C20.4986 12.4272 20.5883 11.9102 20.5883 11.388C20.5883 10.8659 20.4986 10.3488 20.3243 9.86646C20.1499 9.38408 19.8944 8.9458 19.5723 8.57667Z" stroke="#FF415F" stroke-width="2" stroke-linecap="round" stroke-linejoin="round" />
</svg>
    