<svg width="58" height="58" viewBox="0 0 58 58" fill="none" xmlns="http://www.w3.org/2000/svg">
    <path d="M29 57C44.464 57 57 44.464 57 29C57 13.536 44.464 1 29 1C13.536 1 1 13.536 1 29C1 44.464 13.536 57 29 57Z" stroke="black" stroke-width="2" stroke-linecap="round" stroke-linejoin="round"/>
    <circle cx="29" cy="28.9231" r="24" fill="black"/>
    <path fill-rule="evenodd" clip-rule="evenodd" d="M23.5093 19.9104C23.0981 18.9219 22.6658 18.8992 22.2757 18.8878C21.9594 18.8765 21.5904 18.8765 21.2214 18.8765C20.8524 18.8765 20.262 19.0242 19.756 19.615C19.2499 20.2058 17.8372 21.6374 17.8372 24.5574C17.8372 27.466 19.8087 30.2837 20.0828 30.6814C20.3569 31.0791 23.8888 37.2485 29.466 39.6232C34.1049 41.6001 35.0538 41.2025 36.0553 41.1002C37.0569 40.9979 39.3026 39.6686 39.7665 38.2825C40.2198 36.8963 40.2198 35.7147 40.0827 35.4647C39.9457 35.2148 39.5767 35.0671 39.0284 34.7717C38.4802 34.4763 35.7812 33.0447 35.2752 32.8402C34.7691 32.647 34.4001 32.5447 34.0416 33.1356C33.6726 33.7264 32.6183 35.0557 32.3021 35.4534C31.9858 35.851 31.6589 35.8965 31.1107 35.6011C30.5625 35.3057 28.7913 34.6808 26.6932 32.6584C25.0591 31.0904 23.9521 29.1476 23.6358 28.5567C23.3195 27.9659 23.6041 27.6478 23.8783 27.3524C24.1207 27.0911 24.4265 26.6593 24.7006 26.3185C24.9747 25.9776 25.0696 25.7276 25.2488 25.33C25.4281 24.9323 25.3437 24.5915 25.2067 24.2961C25.0696 24.012 23.9942 21.0807 23.5093 19.9104Z" fill="white"/>
    </svg>
    