<svg width="85" height="87" viewBox="0 0 85 87" fill="none" xmlns="http://www.w3.org/2000/svg">
    <g clip-path="url(#clip0_40_392)">
    <path fill-rule="evenodd" clip-rule="evenodd" d="M28.061 16.6759C28.2157 16.4051 28.6093 16.3624 29.0733 16.4336C29.5372 16.5049 29.0452 17.189 29.0452 17.189L28.6515 17.2461L28.3282 17.0893L28.061 16.6759Z" fill="#C8CDD6"/>
    <path fill-rule="evenodd" clip-rule="evenodd" d="M59.9178 7.06944C59.9178 6.77013 59.6788 6.52783 59.3836 6.52783C59.0884 6.52783 58.8494 6.77013 58.8494 7.06944C58.8494 7.26898 58.9478 7.42576 59.1024 7.52553V7.81059H59.6226V7.53979C59.7913 7.44002 59.9178 7.26898 59.9178 7.06944Z" fill="url(#paint0_radial_40_392)"/>
    <path fill-rule="evenodd" clip-rule="evenodd" d="M56.4875 18.3008C56.4031 18.1298 56.1923 18.03 56.0376 18.2011C56.0236 18.2153 55.9955 18.2438 55.9814 18.2723C55.9111 18.3151 55.8549 18.3721 55.8268 18.4434C55.7986 18.5146 55.7846 18.5859 55.7565 18.6571C55.7002 18.7712 55.6581 18.8995 55.6159 19.0277C55.2363 20.0254 54.9692 20.8378 54.5615 21.5647C54.5615 21.5647 54.3085 22.0778 54.3085 22.0921C54.1538 22.2631 54.5475 22.4342 54.7162 22.4912C54.8568 22.5482 55.0395 22.5054 55.0676 22.3201C55.0676 22.3059 55.0676 22.3059 55.0676 22.2916C55.405 21.9068 55.7565 21.522 55.9955 21.0659C56.0236 21.0089 56.0376 20.9376 56.0236 20.8949C56.0798 20.8521 56.9373 20.5243 56.853 20.4673C56.361 20.0539 56.853 19.0847 56.4875 18.3008Z" fill="#EC8F46"/>
    <path fill-rule="evenodd" clip-rule="evenodd" d="M45.817 25.8263C45.817 25.8263 47.4619 32.0549 47.5462 33.8507C47.5744 34.4779 47.6025 34.8769 46.1966 34.8484C45.4375 34.8342 44.7626 35.0052 44.2144 35.0622C43.4552 35.1335 42.7101 34.9625 42.4992 34.8484C42.1337 34.6346 43.2162 30.6723 43.2162 30.6723L43.4974 27.5081C43.4974 27.5081 43.7926 26.2539 43.877 26.1684C43.9613 26.0828 44.8189 25.8263 44.8189 25.8263H45.817Z" fill="#BCC1C9"/>
    <path fill-rule="evenodd" clip-rule="evenodd" d="M27.3019 77.6216V80.8712L30.6619 80.1158V80.1443V76.7236L28.1594 76.4243L27.3019 77.6216Z" fill="#A9A8BA"/>
    <path opacity="0.6" fill-rule="evenodd" clip-rule="evenodd" d="M27.9205 76.6096L27.3019 77.6216V79.56C27.3019 79.56 29.2982 78.6905 30.6619 78.6905V76.9232L27.9205 76.6096Z" fill="#9390A3"/>
    <path fill-rule="evenodd" clip-rule="evenodd" d="M27.3582 82.8524C26.9786 82.8524 26.8661 82.7669 26.8239 82.4106C26.7536 81.5696 26.838 80.743 27.1051 79.9448C27.2035 79.6598 27.2879 79.6598 27.5128 79.8593C28.0049 80.3012 28.5813 80.3154 29.1858 80.1871C29.5232 80.1159 29.8465 79.9733 30.1418 79.7881C30.5354 79.56 30.8869 79.56 31.2946 79.8023C31.9272 80.1729 32.602 80.4579 33.2628 80.7715C33.7548 81.0138 34.2891 81.0138 34.8092 81.0851C35.7511 81.2133 36.679 81.3844 37.635 81.3701C37.9021 81.3701 38.0708 81.6267 38.0005 81.8975C37.9302 82.1683 37.7475 82.3678 37.4944 82.4818C36.3838 82.5958 35.2732 82.5958 34.1625 82.5388C33.3752 82.4961 32.5739 82.4818 31.7866 82.4106C30.4651 82.268 29.1436 82.5673 27.8221 82.4676C27.5269 82.4248 27.4847 82.6671 27.3582 82.8524Z" fill="#5F341A"/>
    <path fill-rule="evenodd" clip-rule="evenodd" d="M26.7536 82.8809C26.7677 82.4247 26.7395 82.3535 27.1894 82.3677C28.0751 82.382 29.6356 82.2965 30.5213 82.268C31.8288 82.2394 33.1362 82.4105 34.4437 82.4675C35.2309 82.496 36.0323 82.5245 36.8196 82.439C37.0445 82.4105 37.3679 82.3962 37.7053 82.3677C37.7193 82.5245 37.5647 82.6386 37.41 82.7098C37.0726 82.8666 36.5525 82.8809 36.2291 82.8809C33.3611 82.8809 26.838 82.8951 26.7536 82.8809Z" fill="#292A2E"/>
    <path opacity="0.4" fill-rule="evenodd" clip-rule="evenodd" d="M37.6491 81.3701C36.6931 81.3844 35.7652 81.2133 34.8233 81.0851C34.3031 81.0138 33.7689 81.0138 33.2768 80.7715C32.6161 80.4579 31.9413 80.1586 31.3086 79.8023C30.9009 79.56 30.5495 79.56 30.1558 79.7881C30.0996 79.8166 30.0434 79.8451 29.9871 79.8736C30.3948 80.1301 31.3649 80.7145 32.3209 81.028C33.558 81.4414 34.9779 81.5411 36.0464 81.5696C37.1148 81.5839 37.7194 81.4556 37.7053 81.7692C37.6913 82.0685 37.4101 82.4533 37.4101 82.4533H37.5788C37.8037 82.3393 37.9584 82.154 38.0146 81.8975C38.099 81.6124 37.9302 81.3559 37.6491 81.3701Z" fill="#8E4623"/>
    <path fill-rule="evenodd" clip-rule="evenodd" d="M24.6589 77.6216V80.8712L27.808 80.1158L28.0189 80.1443V76.7236L25.5165 76.4243L24.6589 77.6216Z" fill="#A9A8BA"/>
    <path opacity="0.7" fill-rule="evenodd" clip-rule="evenodd" d="M25.2915 77.137L24.6589 77.6216V79.56C24.6589 79.56 26.4303 78.6478 28.0189 78.6905V77.4505L25.2915 77.137Z" fill="#9390A3"/>
    <path fill-rule="evenodd" clip-rule="evenodd" d="M23.8294 18.5716C24.94 17.8304 26.1772 17.3886 27.4706 17.132C27.9345 17.0892 28.3563 17.2175 28.7499 17.4741C29.8324 18.1582 30.5494 19.1417 31.0977 20.2962C31.6179 21.3794 32.0959 22.4911 32.4051 23.6599C32.4614 23.8737 32.602 24.0447 32.7426 24.2015C32.9253 24.458 32.9394 24.458 33.0659 24.2015C33.3893 23.5031 33.558 22.7619 33.6001 22.0065C33.6564 21.0658 33.6564 20.1394 33.3471 19.2272C33.1503 18.6143 32.9394 18.0299 32.377 17.6451C32.2364 17.5453 32.0959 17.4456 32.0677 17.2603C32.0959 17.189 32.1521 17.1748 32.2224 17.2175C33.3049 17.3886 34.3031 17.7876 35.1606 18.486C35.5683 18.7283 35.7933 19.1274 36.0463 19.5122C36.2572 19.8401 36.4259 20.1821 36.5524 20.5385C36.8196 21.3509 36.9039 22.2061 37.0726 23.047C37.3257 24.344 37.4241 25.6695 37.4803 26.9808C37.4944 27.3514 37.4944 27.7077 37.3397 28.0498C37.157 30.8576 36.7352 33.6227 36.0744 36.345C35.7652 37.642 35.5262 38.939 35.2309 40.236C35.0622 40.9629 34.7389 41.6756 34.4015 42.3597C34.3593 42.3597 34.4296 42.374 34.4015 42.3597C34.3171 42.317 34.2187 42.317 34.1344 42.317C32.5457 42.4025 30.9852 42.1459 29.4247 41.8609C28.3282 41.6613 27.2738 41.3335 26.2194 40.9487C26.1069 40.9059 26.0085 40.8632 25.9101 40.8204C25.2774 40.5211 25.165 40.3501 25.2353 39.6374C25.2634 39.3239 25.3196 39.0245 25.3899 38.711C25.7695 37.1004 25.9804 35.4756 26.0928 33.8365C26.2334 31.9123 26.3459 30.0024 26.4162 28.0783C26.4584 27.0236 26.3881 25.9831 26.3459 24.9284C26.3178 24.0304 26.4162 23.1468 26.4021 22.2488C26.3881 21.5932 26.374 20.9375 26.1772 20.2962C25.9804 19.6405 25.643 19.0847 25.0525 18.7141C24.926 18.6571 24.8135 18.5858 24.6729 18.6001C24.4058 18.5573 23.731 18.9849 23.4639 18.9849C23.4217 18.9279 23.6326 18.7141 23.8294 18.5716Z" fill="url(#paint1_radial_40_392)"/>
    <path fill-rule="evenodd" clip-rule="evenodd" d="M34.4999 42.2741C34.4999 42.3027 34.5139 42.3312 34.5139 42.3597C34.2609 44.8397 33.7548 47.2627 33.4736 49.7427C33.1783 52.4365 32.7425 54.1041 32.4192 56.7979C32.3067 57.7528 32.3348 59.7625 32.2083 60.7175C32.0115 62.2995 31.7865 64.8936 31.6319 66.4757C31.4632 68.129 31.3507 69.7966 31.2804 71.4642C31.182 73.5309 31.0836 76.1392 30.9993 78.2058C30.9852 78.4196 30.929 78.4766 30.7181 78.4766C28.778 78.4624 26.8379 78.4766 24.8838 78.4766C24.701 78.4766 24.5745 78.4481 24.6307 78.2201C24.8978 78.3199 25.179 78.3056 25.4461 78.3056C26.2053 78.3056 26.6552 78.2628 26.135 78.2486C25.657 78.2343 25.5586 78.1203 25.6008 77.6357C25.657 77.0371 25.6289 75.8969 25.6711 75.2982C25.7976 73.2315 25.9382 71.1649 25.8679 69.0839C25.8257 67.9295 25.7554 65.7488 25.657 64.6085C25.5305 63.0977 25.3477 61.5869 25.2493 60.0618C25.1368 58.3657 25.2212 56.6696 25.1931 54.9735C25.179 53.6052 25.179 52.2512 25.1931 50.8829C25.2071 48.8163 25.1931 46.7353 25.179 44.6686C25.179 43.7565 25.2915 42.8443 25.3196 41.9321C25.3337 41.6328 25.4321 41.5758 25.7414 41.59C26.9223 41.647 28.0751 41.9036 29.2419 42.0604C30.9149 42.2884 32.5879 42.4024 34.2749 42.2456C34.3733 42.2456 34.6123 41.8608 34.4999 42.2741Z" fill="#423E3F"/>
    <path fill-rule="evenodd" clip-rule="evenodd" d="M25.3196 39.5376C25.2915 39.7372 25.3055 39.951 25.3055 40.1648C25.3196 40.3786 25.4602 40.4926 25.6289 40.5781C26.6692 41.0627 27.7517 41.419 28.8624 41.6471C29.7902 41.8466 30.7322 42.0034 31.6741 42.1459C32.5036 42.2742 33.333 42.2172 34.1625 42.2315C34.2749 42.2315 34.3874 42.1887 34.4858 42.2885C33.8532 42.3882 33.2065 42.431 32.5598 42.4167C30.929 42.374 29.3122 42.26 27.7236 41.9036C27.2034 41.7896 26.6552 41.7896 26.1069 41.7326C26.0366 41.7183 25.9663 41.7326 25.896 41.7326C25.4321 41.6898 25.4602 41.6898 25.418 42.1602C25.2212 44.4407 25.3196 46.7069 25.3055 48.9874C25.2915 52.0945 25.3055 55.2016 25.2915 58.323C25.2915 59.5915 25.418 60.8458 25.5305 62.1143C25.6289 63.1405 25.7132 65.2072 25.7976 66.2334C25.9382 67.9153 25.9803 69.5971 25.9663 71.279C25.9663 72.7613 25.7976 74.2436 25.7273 75.7259C25.7132 76.0965 25.7273 77.0087 25.7132 77.3792C25.7132 77.479 25.7132 77.593 25.6992 77.6928C25.6289 78.1631 26.5146 78.3912 27.9626 78.5052C26.9363 78.5052 25.7976 78.491 24.7713 78.5052C24.6167 78.5052 24.6026 78.4339 24.5464 78.2487C24.448 77.6643 24.4761 76.5383 24.4761 75.9397C24.4901 73.4882 24.4761 71.0367 24.4058 68.5994C24.3355 66.3474 24.223 63.0835 24.1246 60.8315C24.0684 59.4633 24.0262 57.0545 23.984 55.6862C23.9278 53.2917 23.8294 51.9235 23.6326 49.529C23.5201 48.1322 23.3936 46.7211 23.1827 45.3386C22.9296 43.6282 22.8172 41.9036 22.7609 40.179C22.7469 39.8512 22.789 39.5091 22.8031 39.1813C22.6766 38.768 22.789 38.3546 22.8172 37.9556L25.3196 39.5376Z" fill="#353333"/>
    <path fill-rule="evenodd" clip-rule="evenodd" d="M36.4821 20.4529C36.1588 19.7118 35.737 19.0419 35.1747 18.4575C35.5261 18.5715 35.7792 18.8423 36.0604 19.0561C37.3397 20.0396 38.2816 21.3651 39.4344 22.4768C40.4326 23.446 41.5292 24.2727 42.6257 25.0994C43.1881 25.527 43.7926 25.9118 44.2987 26.3964C44.3128 26.71 44.1159 26.9523 43.9894 27.1946C43.8348 27.4939 43.7223 27.7932 43.6801 28.1923C43.8348 27.8217 43.9472 27.4939 44.1159 27.2088C44.1722 27.1091 44.2425 26.9808 44.369 27.0235C44.4815 27.052 44.4534 27.1946 44.4534 27.2943C44.4534 27.4939 44.4534 27.4939 44.5799 27.6649C44.6502 27.2658 44.7205 26.8953 44.7626 26.5247C45.1844 26.0258 45.7889 25.869 46.3372 25.5982C47.8977 24.8428 49.5566 24.3297 51.1312 23.5886C51.7638 23.2893 52.4527 23.047 53.1556 22.8902C53.001 23.5316 53.1416 24.1872 53.0572 24.8428C53.0432 24.9854 53.0713 25.1279 53.0994 25.2704C53.1275 25.6267 53.0853 25.9973 53.1416 26.3679C53.1697 26.5674 53.0432 26.6957 52.8604 26.7527C51.2296 27.2801 49.641 27.9642 48.0383 28.5771C46.5621 29.133 45.1001 29.7031 43.638 30.2732C43.2865 30.4157 42.9631 30.3587 42.696 30.1022C41.3042 28.8052 39.9265 27.5081 38.6753 26.0686C38.1129 25.413 37.7896 24.6861 37.5787 23.8594C37.2554 22.7191 36.9179 21.5789 36.4821 20.4529Z" fill="#E9EBF2"/>
    <path fill-rule="evenodd" clip-rule="evenodd" d="M23.4498 35.333C23.3936 35.8746 23.3233 36.4305 23.1546 36.9436C22.9156 37.6705 22.9156 38.4116 22.8312 39.1528C22.5079 38.9533 22.1283 38.9247 21.805 38.7537C19.9633 37.8273 18.1778 36.8011 16.4346 35.7036C14.8459 34.5776 19.0635 26.4249 21.0317 22.3486C21.6081 21.1513 22.297 20.0396 23.2249 19.0989C23.7169 18.543 24.5464 18.372 24.94 18.5858C25.3337 18.8138 25.5586 19.1702 25.6992 19.5692C25.5867 19.612 25.5305 19.5122 25.4742 19.4552C25.3618 19.3269 25.2352 19.2272 25.0947 19.1559C24.701 18.9421 24.4058 19.0276 24.1949 19.4267C23.1546 21.3794 22.1845 23.3605 21.2848 25.3844C20.8911 26.2539 20.5116 27.1376 20.1742 28.0212C19.7243 29.2185 19.4431 30.4442 19.2322 31.6985C19.2182 31.7555 19.2182 31.8268 19.176 31.9265C20.132 30.7008 21.1161 29.5606 21.9737 28.3206C22.9859 26.8525 23.9278 25.3417 24.9119 23.8451C25.0947 23.5601 25.3055 23.2893 25.4883 23.0042C25.5445 22.9187 25.5867 22.7904 25.7414 22.8189C25.6711 23.1325 25.643 23.4033 25.4602 23.6456C24.8557 24.4295 24.4761 25.3844 24.1387 26.2824C23.984 26.6815 23.8997 27.1376 23.984 26.71C23.9559 26.9523 23.8716 27.1661 23.7591 27.3656C23.0843 28.7624 22.4095 30.1449 21.7065 31.5132C21.4254 32.0406 21.102 32.5537 20.7787 33.0525C20.61 33.3091 20.61 33.3376 20.8911 33.4659C21.58 33.8079 22.2689 34.1785 22.8734 34.6631C23.0983 34.8769 23.3233 35.0622 23.4498 35.333Z" fill="#C8CDD6"/>
    <path fill-rule="evenodd" clip-rule="evenodd" d="M36.4821 20.4529C36.8617 21.1228 37.0585 21.8639 37.2835 22.6051C37.4803 23.2892 37.663 23.9876 37.8739 24.6718C38.0567 25.2989 38.4925 25.755 38.9002 26.2396C39.5891 27.052 40.3623 27.7931 41.1215 28.5343C41.6416 29.0474 42.1899 29.5463 42.7242 30.0451C42.9772 30.2874 43.2724 30.3302 43.6099 30.2019C46.0279 29.2612 48.4601 28.3348 50.8782 27.3941C51.2859 27.2373 51.7076 27.0805 52.1153 26.9095C52.3403 26.8239 52.5652 26.7242 52.8183 26.6814C53.001 26.6529 53.0994 26.5389 53.0713 26.3251C53.001 25.983 53.0432 25.641 53.0432 25.2989C53.3525 25.2704 53.6337 25.1706 53.9008 24.9996C53.957 24.9711 54.0132 24.9568 54.0695 24.9853C54.0976 25.7692 54.0695 26.5389 53.8867 27.3085C53.8024 27.6364 53.6337 27.8359 53.3244 27.9642C51.4686 28.7053 49.627 29.5178 47.729 30.1591C46.5903 30.5297 45.5218 31.0571 44.4393 31.5417C43.8348 31.7982 43.2303 31.9978 42.5695 31.784C42.1899 31.6557 41.9228 31.3706 41.6416 31.1283C40.3482 29.9738 38.9143 29.0046 37.5506 27.9214C37.3678 27.7646 37.4381 28.0069 37.3678 28.0212C37.424 27.4938 37.3959 26.9807 37.3819 26.4534C37.3678 25.5554 37.2835 24.6575 37.1148 23.7738C36.9461 22.8331 36.8476 21.8924 36.6227 20.966C36.5805 20.795 36.5384 20.6239 36.4821 20.4529Z" fill="#C8CDD6"/>
    <path fill-rule="evenodd" clip-rule="evenodd" d="M58.7931 19.9541C59.2992 19.5835 59.8194 19.2272 60.2974 18.8281C60.691 18.4861 61.1409 18.5146 61.647 18.5431C61.2956 19.0419 60.8879 19.4553 60.4661 19.8401C60.452 19.8686 60.4239 19.8971 60.438 19.9399C60.4661 19.9256 60.5083 19.9399 60.5504 19.9114C61.169 19.5978 61.7454 19.2272 62.2797 18.7854C62.7014 18.4433 63.1513 18.5573 63.5871 18.5288C63.7136 18.5288 63.6574 18.6286 63.6293 18.6856C63.559 18.8566 63.4044 18.9279 63.2356 18.9564C62.9685 19.0134 62.7717 19.156 62.589 19.3412C62.2515 19.6833 61.9001 20.0254 61.5627 20.3675C61.2956 20.6383 60.9722 20.8663 60.6067 20.9518C59.8053 21.1371 59.1586 21.6217 58.4979 22.0493C58.2026 22.2488 57.9215 22.4911 57.5841 22.6194C57.1482 22.7334 56.7968 23.0755 56.375 23.2323C55.7424 23.4603 55.1941 23.8309 54.5755 24.0732C54.21 24.2157 54.0835 23.9734 53.8726 23.6314C53.7601 23.4461 53.6336 23.2608 53.5492 23.0613C53.507 22.9615 53.4368 22.8617 53.507 22.7334C53.985 22.2631 54.3506 21.693 54.8989 21.2939C55.1097 21.1514 55.3206 20.9946 55.5737 20.9376C56.0235 20.8093 56.4594 20.6098 56.8952 20.4387C57.0639 20.3675 57.1904 20.2534 57.3029 20.1109C57.6825 19.5835 58.1183 19.0989 58.5682 18.6286C58.6666 18.5288 59.2852 18.4291 59.4117 18.5003C59.5523 18.5716 59.4257 18.6714 59.3976 18.7284C59.1727 19.1132 58.9337 19.4838 58.6947 19.8544C58.6806 19.8971 58.6666 19.9541 58.6385 19.9826V20.0111L58.6525 19.9969C58.6666 19.9684 58.7509 20.0111 58.7931 19.9541Z" fill="#F9A769"/>
    <path fill-rule="evenodd" clip-rule="evenodd" d="M32.4614 17.5026C32.9815 17.9729 33.4033 18.6713 33.5579 19.3127C34.1203 21.6074 33.2908 24.7431 32.8691 24.7431C32.5879 24.6576 32.3629 23.8451 32.3067 23.6171C31.9974 22.4341 31.5054 21.3224 30.9852 20.2249C30.4791 19.1702 29.8043 18.258 28.8202 17.6023C28.3984 17.3173 28.061 17.1177 27.4705 17.132C27.8501 16.9467 28.2859 16.9324 28.6936 16.9039C29.2279 16.8612 29.7761 16.8897 30.3244 16.8897C31.8006 16.8612 32.3629 17.4028 32.4614 17.5026Z" fill="#DCE0EA"/>
    <path fill-rule="evenodd" clip-rule="evenodd" d="M53.4931 22.7476C53.5915 23.1325 53.8586 23.4318 54.0273 23.7881C54.0976 23.9449 54.435 23.9876 54.5193 23.9591C55.4753 23.5886 56.3048 23.1325 57.1343 22.7049C57.2608 22.6479 57.3873 22.5196 57.556 22.6336C56.5016 23.218 55.5597 23.9734 54.5615 24.6433C54.3788 24.7573 54.1538 24.8001 54.0273 24.9996C53.8726 25.0851 53.7039 25.1706 53.5493 25.2562C53.3665 25.3559 53.1978 25.3987 53.001 25.3132C53.001 25.2989 52.9869 25.2989 52.9869 25.2847C52.9869 24.4865 52.8042 23.6741 53.1275 22.9044C53.2541 22.8474 53.3665 22.8046 53.4931 22.7476Z" fill="#EC8F46"/>
    <path fill-rule="evenodd" clip-rule="evenodd" d="M44.7485 26.5247C44.8891 26.7812 44.7204 27.0235 44.7204 27.2801C44.7204 27.3941 44.6923 27.5081 44.6783 27.6221C44.6642 27.6934 44.7064 27.7932 44.608 27.8074C44.5236 27.8217 44.4393 27.7647 44.3971 27.6934C44.3408 27.5936 44.2987 27.4939 44.3408 27.3656C44.369 27.2658 44.3549 27.166 44.369 26.995C43.9753 27.4369 43.905 27.9642 43.6239 28.3776C43.5676 28.007 43.652 27.6649 43.8207 27.3513C43.9894 27.0378 44.144 26.7242 44.2987 26.4106C44.4252 26.5247 44.5517 26.6529 44.7485 26.5247Z" fill="#C8CDD6"/>
    <path fill-rule="evenodd" clip-rule="evenodd" d="M29.9167 44.4977C30.1698 44.8683 30.0995 45.2388 30.1276 45.6094C30.465 45.5381 30.69 45.2958 30.9852 45.1818C31.0555 45.1533 31.1258 45.0535 31.2101 45.1391C31.2804 45.2103 31.1961 45.2958 31.168 45.3671C30.5072 46.5501 30.2823 47.8756 30.0292 49.1869C29.973 49.5005 29.9589 49.8283 29.9449 50.1418C29.9167 51.3819 29.9027 52.6076 29.7199 53.8334C29.6637 54.2752 29.6637 54.717 29.6496 55.1731C29.5793 56.4559 29.6215 57.7529 29.495 59.0357C29.27 61.3162 29.2419 64.6228 29.2982 66.9033C29.3544 68.8987 29.3403 70.8799 29.3263 72.861C29.3263 74.1438 29.2279 75.4266 29.1435 76.7093C29.1295 76.9374 29.1295 77.7071 29.0732 77.9208C29.0311 78.1346 29.1295 78.1774 29.2841 78.1916C29.8043 78.2629 30.2963 78.4197 30.8306 78.4482C30.1136 78.4482 28.4968 78.4482 28.4968 78.4482C28.4968 78.4482 28.4968 75.3268 28.5249 74.2151C28.539 73.5879 28.5249 72.9608 28.5249 72.3337C28.5249 71.1222 28.5671 69.8964 28.6093 68.6849C28.6515 67.5589 28.5952 65.4068 28.6655 64.295C28.7358 63.1833 28.6936 62.0716 28.778 60.9598C28.9326 59.1497 28.8624 57.3396 28.9045 55.5295C28.9326 54.3465 28.9889 53.1635 29.1154 51.9947C29.2279 50.9828 29.2982 49.9708 29.3263 48.9589C29.3685 47.8044 29.4809 46.6641 29.5231 45.5096C29.5372 45.2103 29.7762 44.8825 29.9167 44.4977Z" fill="#353333"/>
    <path fill-rule="evenodd" clip-rule="evenodd" d="M25.7413 22.8332C25.2493 23.4175 24.8556 24.0732 24.4479 24.7146C23.4779 26.1969 22.5641 27.7077 21.4956 29.1187C20.863 29.9454 20.2022 30.7578 19.5555 31.5702C19.415 31.7413 19.2744 31.9266 19.0916 32.1689C19.176 31.4847 19.2884 30.8861 19.415 30.3017C19.7805 28.6199 20.4131 27.052 21.1301 25.5127C21.7346 24.2015 22.3532 22.8759 22.9858 21.5789C23.3232 20.8805 23.7028 20.1964 24.0684 19.5122C24.4198 18.8281 25.0243 18.7711 25.5164 19.384C25.5726 19.4552 25.6007 19.555 25.6992 19.5835C26.149 20.6525 26.2615 21.7357 25.7413 22.8332Z" fill="#DCE0EA"/>
    <g opacity="0.4">
    <path opacity="0.4" d="M31.3508 42.1174L30.8447 41.9606C33.0238 34.7059 32.3911 24.0019 32.3911 23.9021L32.7707 24.572L33.1643 23.7311C33.1784 23.8451 33.572 34.7771 31.3508 42.1174Z" fill="#BD1F13"/>
    </g>
    <path fill-rule="evenodd" clip-rule="evenodd" d="M24.7011 82.8524C24.3215 82.8524 24.209 82.7669 24.1668 82.4106C24.0965 81.5696 24.1809 80.743 24.448 79.9448C24.5464 79.6598 24.6308 79.6598 24.8557 79.8593C25.3478 80.3012 25.9242 80.3154 26.5287 80.1871C26.8661 80.1159 27.1894 79.9733 27.4847 79.7881C27.8783 79.56 28.2298 79.56 28.6375 79.8023C29.2701 80.1729 29.9449 80.4579 30.6057 80.7715C31.0977 81.0138 31.6319 81.0138 32.1521 81.0851C33.094 81.2133 34.0219 81.3844 34.9779 81.3701C35.245 81.3701 35.4137 81.6267 35.3434 81.8975C35.2731 82.1683 35.0903 82.3678 34.8373 82.4818C33.7267 82.5958 32.616 82.5958 31.5054 82.5388C30.7181 82.4961 29.9168 82.4818 29.1295 82.4106C27.808 82.268 26.4865 82.5673 25.165 82.4676C24.8557 82.4248 24.8135 82.6671 24.7011 82.8524Z" fill="#8E4623"/>
    <path fill-rule="evenodd" clip-rule="evenodd" d="M27.091 41.1483C27.0066 41.1198 26.9223 41.0912 26.838 41.0627C26.9223 41.0912 27.0066 41.1198 27.091 41.1483Z" fill="#942118"/>
    <path fill-rule="evenodd" clip-rule="evenodd" d="M28.2017 41.4761C28.2157 41.4761 28.2438 41.4903 28.2579 41.4903C28.2579 41.4903 28.2579 41.4903 28.272 41.4903C28.2579 41.4903 28.2298 41.4903 28.2017 41.4761Z" fill="#942118"/>
    <path fill-rule="evenodd" clip-rule="evenodd" d="M27.4835 41.276C27.4698 41.276 27.4562 41.2622 27.4425 41.2622C27.4698 41.276 27.4698 41.276 27.4835 41.276Z" fill="#942118"/>
    <path opacity="0.4" fill-rule="evenodd" clip-rule="evenodd" d="M34.9919 81.3701C34.036 81.3844 33.1081 81.2133 32.1662 81.0851C31.646 81.0138 31.1118 81.0138 30.6197 80.7715C29.959 80.4579 29.2842 80.1586 28.6515 79.8023C28.2438 79.56 27.8924 79.56 27.4987 79.7881C27.4425 79.8166 27.3863 79.8451 27.33 79.8736C27.7377 80.1301 28.7078 80.7145 29.6637 81.028C30.9009 81.4414 32.3208 81.5411 33.4033 81.5696C34.4718 81.5839 35.0763 81.4556 35.0622 81.7692C35.0482 82.0685 34.767 82.4533 34.767 82.4533H34.9357C35.1606 82.3393 35.3153 82.154 35.3715 81.8975C35.4277 81.6124 35.259 81.3559 34.9919 81.3701Z" fill="#8E4623"/>
    <path fill-rule="evenodd" clip-rule="evenodd" d="M24.0825 82.8809C24.0965 82.4249 24.0684 82.3536 24.5183 82.3678C25.418 82.3821 26.9645 82.2966 27.8502 82.2681C29.1576 82.2396 30.4651 82.4106 31.7725 82.4534C32.5598 82.4819 33.3611 82.5104 34.1484 82.4249C34.3733 82.3963 34.6967 82.3821 35.0341 82.3536C35.0482 82.5104 34.8935 82.6244 34.7389 82.6957C34.4015 82.8524 33.8813 82.8667 33.5579 82.8667C30.7041 82.8809 24.1809 82.8952 24.0825 82.8809Z" fill="#292A2E"/>
    <path fill-rule="evenodd" clip-rule="evenodd" d="M25.643 40.5782C25.4602 40.4926 25.3196 40.3786 25.3196 40.1648C25.3056 39.951 25.3056 39.7515 25.3337 39.5377C25.4602 38.6255 25.7414 37.7418 25.8539 36.8296C25.9663 35.9459 26.0928 35.0623 26.1772 34.1786C26.2616 33.2949 26.3178 32.397 26.36 31.5133C26.4303 30.1165 26.5146 28.7197 26.5427 27.3229C26.5568 26.311 26.4162 25.2847 26.4443 24.2728C26.4724 23.4746 26.4584 22.6765 26.4865 21.8783C26.5146 21.2227 26.4021 20.5955 26.1772 19.9826C25.9523 19.384 25.6289 18.8424 24.9963 18.5859C24.94 18.5573 24.94 18.5431 24.926 18.6001C24.926 18.6001 25.0666 18.6856 25.1369 18.7569C25.3618 18.9849 25.5164 19.3555 25.6289 19.6548C26.0085 20.6953 26.135 21.75 25.657 22.8047C25.5727 23.0755 24.7151 24.6719 24.4902 25.242C23.6326 26.9381 23.9841 27.8503 23.9278 28.0356C23.8575 28.9192 23.9278 29.8172 23.8575 30.7151C23.7732 31.6273 23.7029 32.5395 23.6185 33.4374C23.5623 34.0646 23.4077 34.6917 23.3514 35.3188C23.3093 35.5469 23.2811 35.7749 23.253 36.003C23.1827 36.6586 22.9016 37.2857 22.8313 37.9414C22.7891 38.3547 22.6907 38.7538 22.8172 39.1671C22.8172 39.1671 24.5886 40.2788 26.8098 41.077C26.4303 40.9202 26.0366 40.7492 25.643 40.5782Z" fill="#BD1F13"/>
    <path d="M31.0696 42.6305C26.2616 42.4452 22.775 39.7799 22.775 39.7799C22.775 39.7799 22.6626 38.6824 22.8172 38.2406C22.8172 38.2406 25.8539 41.1482 31.1399 41.4618C31.9553 41.5045 34.3031 41.7041 34.9217 40.9772C35.1185 40.7491 35.245 40.2503 35.2309 40.2218C35.2309 40.236 35.2731 40.065 35.2731 40.065C35.3012 40.1362 35.0622 41.4475 34.514 42.1317C33.9094 42.8728 32.1662 42.6733 31.0696 42.6305Z" fill="#DCE0EA"/>
    <path fill-rule="evenodd" clip-rule="evenodd" d="M44.3128 26.4107C44.1019 26.2112 43.891 26.0259 43.6661 25.8548C43.0475 26.5817 42.2602 29.133 41.7682 31.2424C42.0072 31.4562 42.2462 31.67 42.5555 31.7841C43.2303 32.0121 43.8348 31.8126 44.4253 31.5418C44.9033 31.328 46.2107 30.7578 46.6887 30.544C45.803 29.1615 45.564 27.4797 45.564 26.8668C45.55 26.2967 45.6624 25.9974 45.7749 25.8406C45.3953 26.0116 45.0298 26.1969 44.7486 26.5247C44.7064 26.9095 44.6361 27.2801 44.5658 27.665C44.4393 27.4939 44.4393 27.4939 44.4393 27.2944C44.4393 27.1946 44.4674 27.0521 44.355 27.0236C44.2284 26.9808 44.1582 27.1091 44.1019 27.2089C43.9332 27.5082 43.8207 27.836 43.6661 28.1923C43.7223 27.8075 43.8207 27.4939 43.9754 27.1946C44.13 26.9523 44.3128 26.7243 44.3128 26.4107Z" fill="#C8CDD6"/>
    <path fill-rule="evenodd" clip-rule="evenodd" d="M43.5958 25.8263C44.2565 25.4557 45.803 25.8263 45.803 25.8263C45.803 25.8263 45.2547 25.698 45.2688 26.9808C45.2828 28.1496 45.7749 33.4374 45.7749 34.2213C45.7749 34.3354 45.0016 34.7487 44.4674 34.6347C43.7645 34.4921 43.4552 34.9482 42.5273 34.5491C42.0775 34.3639 41.4167 34.3211 41.1777 34.1358C40.7981 33.865 42.5836 26.4107 43.5958 25.8263Z" fill="#F2F0F7"/>
    <path fill-rule="evenodd" clip-rule="evenodd" d="M53.8867 25.0139C53.6477 25.1707 53.3806 25.2705 53.0994 25.299C53.0994 25.2847 53.0994 25.2847 53.0994 25.2705C53.0713 25.128 53.0432 24.9854 53.0572 24.8429C53.1416 24.2015 53.001 23.5316 53.1556 22.8903C53.1135 22.9045 53.0572 22.9188 53.001 22.9188C52.8042 23.6029 52.8182 25.9546 53.1556 27.1234C53.254 27.4654 53.3665 27.722 53.479 27.8788C53.6758 27.7505 53.8164 27.5652 53.8726 27.3087C54.0413 26.6103 54.0694 25.9119 54.0554 25.2135C54.0413 25.1422 54.0413 25.0567 54.0273 24.9712C53.9851 24.9712 53.9288 24.9854 53.8867 25.0139Z" fill="#A1AAB7"/>
    <path opacity="0.6" fill-rule="evenodd" clip-rule="evenodd" d="M59.7491 6.96965C59.7491 7.08368 59.6507 7.18345 59.5383 7.18345C59.4258 7.18345 59.3275 7.08368 59.3275 6.96965C59.3275 6.85563 59.4258 6.75586 59.5383 6.75586C59.6507 6.75586 59.7491 6.85563 59.7491 6.96965Z" fill="#F6F5FF"/>
    <path fill-rule="evenodd" clip-rule="evenodd" d="M63.5731 18.5289C63.1232 18.5431 62.6733 18.4291 62.2656 18.7854C62.1672 18.871 62.0688 18.9422 61.9564 19.0277C62.3078 19.0135 62.6733 19.0135 63.0529 19.0135C63.1091 18.985 63.1654 18.9707 63.2357 18.9565C63.3903 18.928 63.559 18.8567 63.6293 18.6857C63.6434 18.6144 63.6996 18.5146 63.5731 18.5289Z" fill="#EC8F46"/>
    <path fill-rule="evenodd" clip-rule="evenodd" d="M59.0603 19.2415C59.1587 19.0704 59.2712 18.9137 59.3696 18.7426C59.4118 18.6856 59.5242 18.5859 59.3836 18.5146C59.2571 18.4433 58.6385 18.5288 58.5401 18.6429C58.2871 18.9137 58.0199 19.1845 57.7809 19.4695C58.1605 19.3983 58.5823 19.3127 59.0603 19.2415Z" fill="#EC8F46"/>
    <path fill-rule="evenodd" clip-rule="evenodd" d="M59.8757 19.1417C60.2975 19.099 60.7473 19.0705 61.2394 19.042C61.38 18.8852 61.5206 18.7142 61.6471 18.5289C61.1269 18.5004 60.6911 18.4719 60.2975 18.8139C60.1569 18.9279 60.0163 19.042 59.8757 19.1417Z" fill="#EC8F46"/>
    <path fill-rule="evenodd" clip-rule="evenodd" d="M49.402 17.7022C49.402 12.229 53.7883 7.7821 59.1868 7.7821C64.5854 7.7821 68.9717 12.229 68.9717 17.7022H49.402Z" fill="url(#paint2_radial_40_392)"/>
    <path fill-rule="evenodd" clip-rule="evenodd" d="M47.2651 17.7021L52.4809 18.6571H65.8927L71.0944 17.7021H47.2651Z" fill="#8E8C99"/>
    <path opacity="0.6" fill-rule="evenodd" clip-rule="evenodd" d="M65.4148 15.4359C64.9087 12.8704 63.6153 10.875 62.2656 9.66345C63.1794 11.103 63.7699 13.0557 63.9949 15.4359H65.4148Z" fill="#F6F5FF"/>
    <path opacity="0.4" d="M23.5623 18.7996C25.643 17.5026 28.6937 17.8589 28.6937 17.8589C28.6937 17.8589 29.003 17.7449 29.003 17.7164C29.003 17.7021 28.8202 17.5453 28.6796 17.4313C28.5812 17.3743 28.8483 17.2175 28.7499 17.1748C28.1032 16.9325 27.8361 16.9895 27.4425 17.132C26.1491 17.3886 24.9401 17.8447 23.8294 18.5858C23.731 18.6428 23.6326 18.7283 23.5623 18.7996Z" fill="#BD1F13"/>
    <path opacity="0.5" fill-rule="evenodd" clip-rule="evenodd" d="M59.7491 7.79636C59.5663 7.7821 59.3695 7.7821 59.1867 7.7821C53.7882 7.7821 49.402 12.229 49.402 17.7022H51.5389C51.5389 12.4143 55.166 8.09567 59.7491 7.79636Z" fill="url(#paint3_radial_40_392)"/>
    <path d="M71.0944 17.2032H47.2651V17.7021H71.0944V17.2032Z" fill="url(#paint4_linear_40_392)"/>
    <path fill-rule="evenodd" clip-rule="evenodd" d="M34.6686 19.2699C34.6686 19.3412 34.6686 19.3982 34.6686 19.4695C34.6546 19.726 34.5843 19.8971 34.2609 19.783C33.9516 19.6833 32.7145 19.3412 32.5598 19.2984C32.4052 19.2557 31.6038 19.3839 31.4633 19.4552C31.2383 19.5835 30.0433 20.2534 29.5372 20.4102C29.3545 20.4672 29.2842 20.4387 29.2842 20.2249C29.2982 19.498 29.1998 18.7853 29.0311 18.0869C28.9889 17.8874 29.0452 17.8161 29.242 17.8446C29.8606 17.9159 31.1961 18.5288 31.4914 18.6C31.5898 18.6285 32.2365 18.6713 32.363 18.6143C32.5739 18.543 33.7407 17.8731 34.1625 17.7021C34.3734 17.6166 34.4577 17.6878 34.528 17.8874C34.6405 18.3577 34.5983 18.8138 34.6686 19.2699Z" fill="#C8CDD6"/>
    <path d="M22.775 39.7799C22.775 39.7799 23.8997 40.6351 25.7414 41.4191C25.5446 41.2623 25.418 40.6494 25.3899 39.9367C23.717 39.0958 22.8172 38.2406 22.8172 38.2406C22.6626 38.6824 22.775 39.7799 22.775 39.7799Z" fill="#C8CDD6"/>
    <path fill-rule="evenodd" clip-rule="evenodd" d="M36.5525 10.7468C36.5946 10.932 36.5946 11.3026 36.5525 11.4451C36.4681 11.7445 36.4822 12.0438 36.6087 12.3288C36.8196 12.7564 36.693 13.1412 36.4822 13.5261C36.2994 13.8254 36.0604 13.7256 35.8636 13.8396C35.1325 14.2102 34.3593 14.196 33.572 14.0677C32.9816 13.9822 32.4192 13.8254 31.871 13.6258C31.7304 13.5688 31.6038 13.4976 31.4773 13.4121C30.8447 12.9275 30.3948 12.3288 30.1699 11.5449C30.0574 11.1316 29.9028 10.7182 29.7903 10.3049C29.6638 9.87733 29.6497 9.42123 29.6356 8.96514C29.6216 8.56606 29.5935 8.15272 29.4951 7.76789C29.2982 6.79869 29.2139 5.82949 29.2561 4.84604C29.2701 4.60374 29.2139 4.41845 29.0311 4.23316C28.6234 3.80557 28.7078 3.29247 29.2279 2.99315C29.8746 2.63683 30.6057 2.4943 31.3367 2.4658C32.0678 2.42304 32.7988 2.48005 33.5158 2.55131C33.7126 2.56557 33.8392 2.40878 34.0079 2.39453C34.1906 2.63683 34.4437 2.83637 34.6264 3.09293C34.992 3.59178 35.231 4.13339 35.4278 4.71776C35.47 4.84604 35.4981 5.04558 35.6246 5.05983C35.6246 5.08834 35.6527 5.00282 35.6246 5.01707C35.3434 5.1596 35.3434 5.1596 35.4418 5.45891C35.4559 5.67271 35.3997 5.92926 35.7371 5.94351C35.7652 6.15731 35.9058 6.29984 36.0604 6.44237C36.3275 6.68467 36.5806 6.94122 36.8196 7.22628C37.0867 7.5541 37.1851 7.92467 37.0305 8.35226C36.7493 8.38077 36.4822 8.50904 36.201 8.53755C35.8214 8.59456 35.4559 8.59456 35.1044 8.45203C34.8935 8.36651 34.7248 8.23824 34.6827 8.0672C34.6405 8.39502 34.8092 8.70858 35.0341 9.0079C34.8795 9.34997 34.767 9.70629 34.6686 10.0626C34.6124 10.2622 34.4437 10.3762 34.2609 10.4617C34.3453 10.704 34.6264 10.704 34.767 10.875C34.9076 11.1601 35.8917 11.2314 36.1166 11.2456C36.2713 11.2456 36.44 10.9178 36.5525 10.7468Z" fill="#F9A769"/>
    <path fill-rule="evenodd" clip-rule="evenodd" d="M34.0078 2.39448C33.8813 2.59402 33.7126 2.65103 33.4736 2.62253C32.2646 2.52276 31.0555 2.40873 29.8605 2.80781C29.6637 2.87908 29.4669 2.93609 29.2982 3.03586C28.764 3.33517 28.6937 3.83403 29.1436 4.23311C29.2841 4.36139 29.3544 4.48966 29.3404 4.67495C29.3263 4.78897 29.3404 4.903 29.3404 5.03127C29.2841 5.84369 29.3544 6.64186 29.5231 7.44002C29.5513 7.55404 29.5513 7.66807 29.5653 7.78209C29.7059 8.48048 29.7059 9.20739 29.734 9.92003C29.734 9.97704 29.734 10.0341 29.734 10.0768C29.7059 10.2051 29.6075 10.2621 29.481 10.2906C29.3404 10.3191 29.2982 10.2193 29.256 10.1053C29.1998 9.90578 29.1154 9.72049 29.0451 9.52095C28.764 8.89382 28.4969 8.25244 27.9486 7.79634C27.6674 7.55404 27.3722 7.326 26.9645 7.45427C26.7255 7.55404 26.613 7.75359 26.5005 7.98163C26.4303 8.13841 26.36 8.42347 26.3459 8.68003C25.882 7.76784 25.3196 6.61335 25.1369 5.58714C24.926 4.43265 25.2353 3.46345 25.9663 2.57977C27.0348 1.297 28.4125 0.655621 30.0152 0.413321C31.0274 0.256538 32.0396 0.185274 33.0659 0.342056C33.4174 0.399068 33.7407 0.327803 33.9938 0.0427441C34.0922 -0.0712794 34.1625 0.0142382 34.2046 0.0855029C34.3452 0.285044 34.3312 0.513091 34.2468 0.726885C34.2187 0.812403 34.1625 0.897921 34.1062 0.997691C34.2609 1.04045 34.4015 0.983438 34.5421 0.926426C34.7529 0.855162 34.767 0.954932 34.7108 1.11171C34.5983 1.49654 34.3734 1.82436 34.1625 2.15218C34.1062 2.25195 34.05 2.32321 34.0078 2.39448Z" fill="#754323"/>
    <path fill-rule="evenodd" clip-rule="evenodd" d="M34.6686 10.8749C34.4577 10.7609 34.2047 10.6897 34.1063 10.4046C34.4858 10.3761 34.5983 10.1053 34.6545 9.77747C34.6967 9.49241 34.7951 9.23586 34.9779 9.02206C35.1044 8.82252 35.3153 8.83677 35.4981 8.80827C35.8074 8.76551 36.1166 8.82252 36.4259 8.737C36.5525 8.7085 36.5946 8.79402 36.6228 8.89379C36.7633 9.13609 36.8899 9.37839 36.932 9.66344C37.0023 10.1908 37.0867 10.2621 37.5787 10.2906C37.3538 10.7324 36.9602 10.7609 36.5384 10.7039C36.2432 10.7752 35.9198 10.7324 35.6246 10.8322C35.3997 10.9034 35.1888 10.9605 34.9498 10.9462C34.8514 10.9462 34.753 10.9462 34.6686 10.8749Z" fill="#754323"/>
    <path fill-rule="evenodd" clip-rule="evenodd" d="M34.2046 14.0676C33.4455 13.9963 32.7004 13.8538 31.9834 13.583C31.3788 13.3549 30.9009 12.9274 30.6337 12.3857C30.0573 11.2455 29.6778 10.034 29.6918 8.72274C29.6918 8.40918 29.6918 8.08136 29.5512 7.78205C29.5934 8.40918 29.6778 9.02205 29.6778 9.64918C29.6778 9.79171 29.6496 9.91999 29.6496 10.0483C29.6496 10.205 29.5372 10.205 29.4247 10.2193C29.2841 10.2478 29.3263 10.1338 29.2982 10.0625C29.2279 9.84872 29.1716 9.63493 29.0451 9.44964C28.9608 9.50665 28.9326 9.60642 28.8764 9.69194C28.8061 9.80596 28.7499 9.79171 28.6796 9.67769C28.6374 9.62068 28.6093 9.54941 28.5671 9.4924C28.2719 8.87952 27.8642 8.35216 27.3581 7.91032C27.1753 7.75354 27.0207 7.59676 26.8942 7.39722C26.6692 7.46848 26.5567 7.63952 26.4583 7.83906C26.1631 8.5232 26.3037 8.93654 26.4162 9.17884C26.7114 9.83447 26.9785 10.5471 27.6252 10.9034C28.0329 11.1315 28.1875 11.4308 28.3 11.8299C28.3281 11.9297 28.3703 12.0152 28.3984 12.1149C28.5671 12.5853 28.6515 13.0841 28.6655 13.5972C28.6796 14.6662 28.539 15.7352 28.5952 16.8042C28.6093 16.9752 28.6234 17.0892 28.8342 17.0465C29.0029 17.0037 29.1435 17.075 29.2701 17.1747C29.6778 17.4741 30.0292 17.8161 30.4791 18.0727C30.7462 18.201 31.0414 18.1012 31.3086 18.1297C31.5616 18.1582 31.7303 18.0584 31.885 17.8446C32.1942 17.417 32.4614 16.9609 32.7425 16.5191C33.1362 15.9205 33.4314 15.2363 34.0781 14.8373C34.5561 14.4667 35.1184 14.2671 35.6948 14.1246C36.0322 14.0533 36.3275 13.8823 36.454 13.526C36.2009 13.811 34.9216 14.1389 34.2046 14.0676Z" fill="#EC8F46"/>
    <path fill-rule="evenodd" clip-rule="evenodd" d="M36.4681 8.80828C36.0885 8.96506 35.6668 8.82253 35.2872 8.93655C35.1888 8.96506 35.0904 9.00782 34.9919 9.03632C34.6545 8.73701 34.5561 8.35218 34.6405 7.88184C34.7529 8.20965 34.9638 8.36644 35.2731 8.45195C35.5684 8.52322 35.8495 8.53747 36.1448 8.48046C36.3978 8.4377 36.6509 8.39494 36.8899 8.28092C36.9742 8.23816 37.0164 8.26667 37.0304 8.35218C37.0023 8.50897 36.9039 8.59448 36.7774 8.68C36.693 8.73701 36.5525 8.76552 36.4681 8.80828Z" fill="#EC8F46"/>
    <path fill-rule="evenodd" clip-rule="evenodd" d="M34.6686 10.875C35.1466 10.9747 35.5964 10.7467 36.0463 10.6897C36.215 10.6612 36.3837 10.6897 36.5384 10.7182C36.5524 10.8322 36.5665 10.9177 36.5665 11.0317C36.5665 11.1743 36.2713 11.217 36.0744 11.2455C35.6105 11.3026 34.8795 11.0888 34.6686 10.875Z" fill="#EC8F46"/>
    <path fill-rule="evenodd" clip-rule="evenodd" d="M35.3996 5.47314C35.5121 5.53016 35.6105 5.57292 35.723 5.62993C35.723 5.7297 35.723 5.84372 35.737 5.94349C35.723 6.07177 35.7511 6.05752 35.5964 5.98625C35.484 5.92924 35.3434 5.88648 35.3715 5.70119C35.3715 5.62993 35.3856 5.55866 35.3996 5.47314Z" fill="#DA803A"/>
    <path fill-rule="evenodd" clip-rule="evenodd" d="M32.0537 5.78669C32.4614 5.94347 32.841 5.74393 33.2346 5.71542C33.2909 5.71542 33.333 5.70117 33.3893 5.70117C33.3612 5.94347 33.5158 6.14301 33.5439 6.37106C33.558 6.51359 33.572 6.58485 33.3893 6.5706C33.08 6.54209 32.7707 6.62761 32.4755 6.69888C32.363 6.72738 32.2505 6.78439 32.1662 6.65612C32.5036 6.45658 32.8832 6.42807 33.2628 6.41382C33.0097 6.34255 32.7566 6.34255 32.4895 6.42807C32.4052 6.45658 32.3208 6.52784 32.2084 6.47083C32.1521 6.22853 32.0959 6.01474 32.0537 5.78669Z" fill="#EC8F46"/>
    <path fill-rule="evenodd" clip-rule="evenodd" d="M32.2083 6.45662C32.4754 6.31409 32.7707 6.24282 33.0799 6.27133C33.2346 6.28558 33.3752 6.32834 33.5017 6.48513C33.1784 6.52789 32.8972 6.48513 32.616 6.54214C32.4614 6.57064 32.3348 6.71317 32.1661 6.64191C32.1802 6.5849 32.1943 6.51363 32.2083 6.45662Z" fill="#35312D"/>
    <path fill-rule="evenodd" clip-rule="evenodd" d="M29.0592 9.47817C29.0592 9.49242 29.0592 9.52093 29.0592 9.53518C29.0311 9.69196 28.9327 9.89151 28.8062 9.92001C28.6937 9.94852 28.6234 9.73472 28.5672 9.60645C28.2157 8.90805 27.7518 8.29517 27.1332 7.81057C26.8661 7.61103 26.7114 7.69655 26.7114 7.52551C27.1051 7.25471 27.4425 7.38298 27.6674 7.52551C28.0048 7.73931 28.286 8.01011 28.4969 8.33793C28.7218 8.70851 28.9046 9.07909 29.0592 9.47817Z" fill="#EE9047"/>
    <path fill-rule="evenodd" clip-rule="evenodd" d="M35.2872 5.45882C35.1325 5.18801 35.1466 5.04548 35.3434 4.97422C35.3997 4.95996 35.8636 5.04548 36.0042 5.14525C36.1307 5.24502 36.2432 5.34479 36.1588 5.53008C36.0745 5.71537 35.9198 5.71537 35.7511 5.67261C35.7089 5.64411 35.4137 5.62985 35.2872 5.45882Z" fill="#764525"/>
    <path fill-rule="evenodd" clip-rule="evenodd" d="M32.0537 5.78669C31.9131 5.51589 31.9693 5.34485 32.2505 5.24508C32.6582 5.10255 33.0659 5.04554 33.4877 4.98853C33.6423 4.96002 33.797 5.03129 33.8532 5.20232C33.8954 5.35911 33.811 5.48738 33.6704 5.55865C33.5861 5.61566 32.6723 5.88647 32.3067 5.91497C32.1943 5.91497 32.124 5.84371 32.0537 5.78669Z" fill="#754323"/>
    <path fill-rule="evenodd" clip-rule="evenodd" d="M26.4865 7.85334C26.5708 7.6538 26.6974 7.48276 26.9223 7.4115C27.0488 7.61104 27.2035 7.76782 27.3862 7.9246C27.8924 8.36645 28.3001 8.90806 28.5953 9.50668C28.6234 9.56369 28.6656 9.63496 28.7078 9.69197C28.764 9.79174 28.8343 9.80599 28.9046 9.70622C28.9608 9.62071 28.9889 9.52094 29.0733 9.46392C29.1998 9.64921 29.242 9.87726 29.3263 10.0768C29.3544 10.1338 29.3123 10.2621 29.4529 10.2336C29.5653 10.2051 29.6778 10.2051 29.6778 10.0625C29.6778 9.93427 29.7059 9.80599 29.7059 9.66347C29.6919 9.03634 29.6075 8.40921 29.5794 7.79633C29.72 8.09564 29.734 8.42346 29.72 8.73702C29.7059 10.0483 30.0855 11.2598 30.6619 12.4C30.9431 12.9416 31.407 13.3692 32.0115 13.5973C32.7285 13.8681 33.4736 13.9964 34.2328 14.0819C34.9357 14.1531 36.215 13.8253 36.4962 13.5403C36.3697 13.8966 36.0604 14.0676 35.7371 14.1389C35.1466 14.2814 34.5983 14.4667 34.1203 14.8515C33.7829 15.0083 33.4174 15.0511 33.0659 15.1223C32.5036 15.2364 32.0818 15.4929 31.8709 16.0915C31.6741 16.6332 31.407 17.1605 31.1961 17.7021C31.0274 18.1582 31.0274 18.1725 30.5213 18.087C30.0855 17.8447 29.72 17.4883 29.3123 17.189C29.1717 17.0893 29.0452 17.018 28.8765 17.0607C28.6656 17.1035 28.6515 17.0037 28.6375 16.8184C28.5953 15.7495 28.7359 14.6805 28.7078 13.6115C28.6937 13.0984 28.6093 12.6138 28.4406 12.1292C28.4125 12.0295 28.3703 11.9439 28.3422 11.8442C28.2298 11.4451 28.0751 11.1458 27.6674 10.9177C27.0207 10.5614 26.7536 9.84875 26.4584 9.19312C26.3318 8.96507 26.1913 8.53748 26.4865 7.85334Z" fill="#EC8F46"/>
    <path fill-rule="evenodd" clip-rule="evenodd" d="M35.1888 14.2815C33.1503 14.4668 31.9412 14.481 31.0977 14.8374C29.8184 15.3932 29.72 16.5762 29.6356 17.4599C29.9027 17.6737 30.1839 17.9017 30.4932 18.0728C30.7603 18.2011 31.0555 18.1013 31.3227 18.1298C31.5757 18.1583 31.7444 18.0585 31.8991 17.8447C32.2083 17.4171 32.4755 16.961 32.7566 16.5192C33.1503 15.9206 33.4455 15.2364 34.0922 14.8374C34.4296 14.5808 34.7951 14.4098 35.1888 14.2815Z" fill="#F9A769"/>
    <path fill-rule="evenodd" clip-rule="evenodd" d="M28.286 17.6452C27.8783 17.3886 27.7799 17.1178 28.0189 16.7472C28.1454 16.5477 28.3282 16.5192 28.525 16.6617C29.2138 17.1321 29.9589 17.4456 30.7884 17.5596C31.168 17.6167 31.5335 17.5739 31.899 17.4741C32.0677 17.4314 32.2364 17.3601 32.3489 17.2033C32.4614 17.0465 32.5738 17.0893 32.6441 17.2461C32.7285 17.4171 32.7988 17.5882 32.855 17.7734C32.9534 18.087 32.8831 18.1155 32.5879 18.2438C31.2523 18.8994 29.2701 18.2723 28.286 17.6452Z" fill="#DCE0EA"/>
    <path fill-rule="evenodd" clip-rule="evenodd" d="M34.8795 18.7426C34.8795 18.8139 34.8795 18.8709 34.8795 18.9421C34.8654 19.1987 34.7951 19.3697 34.4718 19.2557C34.1625 19.1559 32.9253 18.8139 32.7707 18.7711C32.616 18.7283 31.8147 18.8566 31.6741 18.9279C31.4492 19.0562 30.2542 19.7261 29.7481 19.8828C29.5653 19.9398 29.495 19.9113 29.495 19.6975C29.5091 18.9706 29.4107 18.258 29.242 17.5596C29.1998 17.3601 29.256 17.2888 29.4529 17.3173C30.0714 17.3886 31.407 18.0014 31.7022 18.0727C31.8006 18.1012 32.4473 18.144 32.5739 18.087C32.7847 18.0157 33.9516 17.3458 34.3734 17.1748C34.5842 17.1035 34.6686 17.1605 34.7389 17.3601C34.8514 17.8447 34.8092 18.3008 34.8795 18.7426Z" fill="#2E303E"/>
    <path opacity="0.2" fill-rule="evenodd" clip-rule="evenodd" d="M28.7781 0.741187C28.8343 0.712681 28.9046 0.698428 28.9468 0.669922C27.794 1.01199 26.7817 1.61062 25.9523 2.60832C25.2212 3.492 24.9119 4.44695 25.1228 5.61569C25.3056 6.6419 25.8679 7.79639 26.3319 8.70858C26.3459 8.46628 26.4162 8.16697 26.4865 8.01019C26.5849 7.78214 26.7114 7.5826 26.9504 7.48283C27.3581 7.35455 27.6534 7.5826 27.9345 7.8249C28.4828 8.28099 28.7499 8.92237 29.0311 9.5495C29.1014 9.74904 29.1717 9.93433 29.242 10.1339C29.2701 10.2479 29.3264 10.3334 29.4669 10.3192C29.5935 10.3049 29.6778 10.2336 29.72 10.1054C29.734 10.0484 29.734 9.99134 29.72 9.94859C29.7059 9.7918 29.7059 9.64927 29.7059 9.49249C29.0592 7.92467 28.7218 6.10029 28.3422 4.61799C28.3141 4.47546 27.4003 5.03132 27.4003 5.03132C27.3581 4.88879 28.2157 4.20465 28.1735 4.06212C27.7518 2.60832 27.4425 1.48234 28.7781 0.741187Z" fill="#754323"/>
    <path fill-rule="evenodd" clip-rule="evenodd" d="M29.5231 17.2033C29.1717 17.0608 28.8343 16.8755 28.525 16.6474C28.3282 16.5049 28.1454 16.5334 28.0189 16.7329C27.794 17.0893 27.8924 17.3601 28.286 17.6309C28.4125 17.7021 28.5391 17.7877 28.6937 17.8589C28.8202 17.6166 29.0452 17.3458 29.5231 17.2033Z" fill="#C8CDD6"/>
    <path d="M26.0507 20.6668C26.0507 20.6525 25.8258 19.7546 25.1791 18.9564C24.926 18.6429 24.5464 18.4718 24.1247 18.5716C23.8013 18.6429 23.5623 18.8139 23.5623 18.8282C23.5764 18.8139 23.7732 18.5288 24.1387 18.4433C24.6308 18.3293 25.0385 18.4576 25.3337 18.8282C26.0085 19.6691 26.2334 20.5813 26.2475 20.6098L26.0507 20.6668Z" fill="#BD1F13"/>
    <path fill-rule="evenodd" clip-rule="evenodd" d="M61.2535 78.2059C61.3097 78.662 61.2394 79.3889 60.7474 79.3604C60.4662 79.3461 60.2131 79.7737 59.9319 79.8735C58.8072 80.2868 57.5701 79.4317 56.4454 79.0183C56.1501 78.9043 55.9533 78.8473 55.644 78.7618C55.6581 78.4482 55.2785 75.9825 56.5438 76.5383C56.6984 76.5241 56.8531 76.5811 57.0077 76.6096C57.0358 76.5668 57.078 76.5668 57.1061 76.6096C57.4295 76.6666 57.7528 76.7521 58.0902 76.7094C58.8354 76.8091 59.5664 76.9089 60.3115 77.0087C60.7192 77.0657 61.1551 77.0514 61.5487 77.2082C60.8739 77.3792 61.2675 77.8496 61.2535 78.2059Z" fill="#352C2C"/>
    <path opacity="0.3" d="M6.42487 81.8832L6.35458 82.4249L9.02571 82.5531L8.68831 84.7338L2.65717 84.7196L2.53064 85.3752L47.8556 85.5177C47.8556 85.5177 48.0243 85.3467 48.1086 85.0759C48.6991 85.7886 47.0121 87.0001 47.2932 87.0001C48.2492 87.0001 48.5726 87.0001 49.5848 87.0001C50.0909 87.0001 51.328 85.8313 52.3543 85.8456C54.4069 85.8741 57.3451 85.7315 59.5383 85.7315C65.3726 85.7315 94.5161 85.3467 95.1065 85.3325C109.278 84.8479 112.609 81.6552 94.8816 81.812C66.7222 82.0685 6.42487 81.8832 6.42487 81.8832Z" fill="#716A89"/>
    <path fill-rule="evenodd" clip-rule="evenodd" d="M62.1251 81.8688C61.9564 80.9852 61.8439 80.0873 61.3659 79.2891C61.2112 79.6454 59.6507 81.1705 57.4717 80.0017C57.1342 79.8307 55.8971 78.2629 55.4472 78.3057C55.0817 78.4197 54.2944 79.2463 53.5493 79.5171C52.3403 79.959 51.1593 80.9139 49.8238 81.0137C48.0243 81.1562 46.5481 81.6551 47.0683 83.3939C47.0683 83.5079 50.0909 83.6932 51.2156 83.736C52.8464 83.7787 59.4258 82.8808 61.4784 83.0091C61.6752 83.0233 61.872 83.0376 62.0266 82.8808C62.1532 82.553 62.1813 82.1967 62.1251 81.8688Z" fill="#3D2D2D"/>
    <path fill-rule="evenodd" clip-rule="evenodd" d="M62.1251 80.9282C61.9564 80.0445 61.8439 79.1466 61.3659 78.3485C61.2112 78.7048 59.6507 80.2298 57.4717 79.0611C57.1342 78.8901 55.8971 77.3222 55.4472 77.365C55.0817 77.479 54.2944 78.3057 53.5493 78.5765C52.3403 79.0183 51.1593 79.9733 49.8238 80.0731C48.0243 80.2156 46.5481 80.7144 47.0683 82.4533C47.0683 82.5673 50.0909 82.7526 51.2156 82.7954C52.8464 82.8381 59.4258 81.9402 61.4784 82.0685C61.6752 82.0827 61.872 82.097 62.0266 81.9402C62.1532 81.6266 62.1813 81.2703 62.1251 80.9282Z" fill="#959EAB"/>
    <path fill-rule="evenodd" clip-rule="evenodd" d="M83.1005 58.2518C82.6788 58.0095 82.257 57.7672 81.7931 57.5819C80.0779 56.9263 78.2363 56.5699 76.6758 55.5437C75.8182 54.9736 75.2839 54.1327 74.9044 53.2062C74.8762 53.2062 74.8341 53.2062 74.8059 53.2062C74.8341 53.192 74.8762 53.1777 74.9044 53.1635C74.9044 53.135 74.9184 53.1065 74.9184 53.078C74.4123 53.0067 73.9203 52.9069 73.4141 52.8499C69.9557 52.4508 66.4973 52.0945 63.0108 52.0518C61.2113 52.0232 60.7895 52.2513 60.1709 53.9902C60.1709 54.0044 60.1569 54.0187 60.1569 54.0329C59.6789 55.3584 59.4399 56.7552 59.1587 58.1378C58.9197 59.3065 58.3995 60.404 58.1465 61.5727C57.8231 63.0693 57.5138 64.5658 57.1483 66.0481C56.5578 68.4711 56.2345 70.9654 55.5316 73.3599C55.3347 74.044 55.2504 74.7852 55.0676 75.4978C54.8849 76.2675 54.8989 76.3245 55.63 76.6523C55.7846 76.7236 56.6984 77.0514 57.0218 77.1512C57.1764 77.1939 58.6948 77.6215 58.8494 77.65C59.8616 77.8353 60.8317 78.1774 61.858 78.2201C62.1532 78.0776 62.2516 77.8068 62.3219 77.5075C62.5609 76.5383 62.7999 75.5834 62.8983 74.5571C63.2498 71.1934 64.8806 60.3327 65.1898 59.7341C65.5694 59.0072 65.232 58.9502 66.0193 59.164C68.6061 59.8481 71.5162 60.404 74.1171 61.0169C76.7601 61.6297 79.4312 61.8435 82.1446 61.644C83.4098 61.5442 84.7313 61.0454 85.4202 59.9051C85.603 59.6201 85.7014 59.4348 85.7857 59.2922C84.8157 59.1355 83.9862 58.7649 83.1005 58.2518Z" fill="#2D2020"/>
    <path d="M53.1557 46.094C53.1557 46.2935 48.3336 48.403 48.3336 48.403L32.0818 47.7473L22.2267 46.4218L21.566 45.2388C21.566 45.2388 21.9315 45.1818 22.4938 45.1532C25.8117 44.9965 37.3538 44.4691 39.3782 44.3551C41.7401 44.2268 48.5023 43.9275 48.5023 43.9275L53.1557 46.094Z" fill="white"/>
    <path d="M50.3439 48.3174H46.3372V78.7047H50.3439V48.3174Z" fill="#6B3426"/>
    <path d="M48.7272 77.5217L46.3232 78.7189V58.7933C46.3232 58.7933 46.4638 59.1782 47.0121 59.3635C47.5603 59.5487 47.9821 59.449 47.9821 59.449L48.7272 77.5217Z" fill="#823C23"/>
    <path d="M46.3654 78.8187L50.358 77.6215L62.2516 82.496L61.2675 84.976L46.3654 78.8187Z" fill="#6B3426"/>
    <path d="M46.3372 77.5217H50.2596L49.5988 86.9999H47.3073L46.5481 80.2725L46.3372 77.5217Z" fill="#6B3426"/>
    <path d="M46.5903 77.9065L46.4919 77.3934L34.4437 82.382L34.7248 83.0661L46.5903 77.9065Z" fill="#8E3D24"/>
    <path d="M50.4424 78.8187L46.4357 77.6215L34.5562 82.496L35.5403 84.976L50.4424 78.8187Z" fill="#6B3426"/>
    <path d="M46.5903 77.9066L46.5481 80.2726L47.3073 87L47.3635 84.691L46.5903 77.9066Z" fill="#8E3D24"/>
    <path d="M46.4497 77.5217H50.3721L49.7394 84.691H47.3635L46.5481 77.9351L46.4497 77.5217Z" fill="#823C23"/>
    <path d="M50.2596 77.5217L50.3439 80.2725L49.5848 86.9999L49.5426 84.691L50.2596 77.5217Z" fill="#6B3426"/>
    <path d="M47.6587 77.5217H46.3372V58.7933L46.6887 59.8338L47.6587 77.5217Z" fill="#8E3D24"/>
    <path d="M48.7272 77.5217L50.2596 79.7024L50.9203 79.2891L51.2155 78.3626L50.2596 77.5217L49.8097 76.9801L48.7272 77.5217Z" fill="#6B3426"/>
    <path d="M57.3873 56.6982C57.3873 57.6389 53.3243 58.3943 48.3335 58.3943C43.3287 58.3943 39.2798 57.6389 39.2798 56.6982C39.2798 56.4987 39.2798 53.9902 39.2798 53.9902C39.2798 53.9902 44.3831 55.0021 48.3335 55.0021C52.8182 55.0021 53.3524 53.0495 57.3873 53.9902C57.3873 53.9902 57.3873 56.4844 57.3873 56.6982Z" fill="#784639"/>
    <path d="M77.6879 53.0351C77.6879 54.2752 64.5431 55.8715 48.3335 55.8715C32.124 55.8715 18.9792 54.2752 18.9792 53.0351C18.9792 52.7786 18.9792 50.0562 18.9792 50.0562C18.9792 50.0562 35.5262 51.396 48.3335 51.396C62.842 51.396 64.5993 48.8162 77.6879 50.0562C77.6879 50.0562 77.6879 52.7358 77.6879 53.0351Z" fill="url(#paint5_linear_40_392)"/>
    <path d="M77.6879 50.0563C77.6879 51.2963 64.5431 52.294 48.3335 52.294C32.124 52.294 18.9792 51.2963 18.9792 50.0563C18.9792 48.8163 32.124 47.8186 48.3335 47.8186C64.5431 47.8186 77.6879 48.8163 77.6879 50.0563Z" fill="white"/>
    <path d="M48.5022 43.9275C64.6415 43.9275 77.4489 44.9537 77.7019 46.1652C78.1096 48.0609 64.5572 48.403 48.3476 48.403L48.5022 43.9275Z" fill="white"/>
    <path d="M68.5639 58.7792H89.6096L90.0454 62.6987H68.5639V58.7792Z" fill="#924B33"/>
    <path d="M90.7203 67.0458H68.339V68.913H90.7203V67.0458Z" fill="#6B3426"/>
    <path d="M68.4797 59.1955L65.7228 82.0862L67.8021 82.3436L70.559 59.4529L68.4797 59.1955Z" fill="#6B3426"/>
    <path d="M93.8975 61.6296H72.8799V65.6775H93.8975V61.6296Z" fill="#823C23"/>
    <path d="M94.5723 70.0247H72.191V71.8918H94.5723V70.0247Z" fill="#823C23"/>
    <path d="M72.3302 61.8039L69.5723 85.0552L71.6521 85.3087L74.4101 62.0574L72.3302 61.8039Z" fill="#823C23"/>
    <path d="M72.8236 61.7295L68.5638 58.7792L68.1843 62.5277L72.3878 65.2927L72.8236 61.7295Z" fill="#6B3426"/>
    <path d="M93.5038 63.3543C93.7569 63.1975 93.7006 62.7414 93.5741 61.9433C93.4476 61.1451 90.1298 59.335 89.3565 59.1782C88.5833 59.0214 84.8859 58.3801 79.5436 58.3088C74.2014 58.2375 68.831 58.9502 68.5639 59.335C68.2968 59.7198 68.1984 60.404 68.3671 60.7318C68.5358 61.0596 71.7552 63.1405 72.5284 63.4113C73.3157 63.6964 93.2367 63.5111 93.5038 63.3543Z" fill="#6B3426"/>
    <path d="M93.5038 62.7984C93.7569 62.6416 93.8693 62.1428 93.7428 61.3446C93.6163 60.5465 90.1297 58.7791 89.3565 58.6223C88.5833 58.4655 84.8859 57.8242 79.5436 57.7529C74.2014 57.6816 68.831 58.3943 68.5639 58.7791C68.2968 59.1639 68.1984 59.8481 68.3671 60.1759C68.5358 60.5037 71.7552 62.5846 72.5284 62.8554C73.3157 63.1405 93.2367 62.9552 93.5038 62.7984Z" fill="#698C81"/>
    <path d="M93.1102 59.9478C92.2948 59.3635 91.2825 58.7791 90.5796 58.6508C89.722 58.494 86.0387 57.7956 80.7105 57.7244C75.3682 57.6531 70.026 58.323 69.7589 58.6936C69.7026 58.7648 70.6024 59.0499 71.474 59.563C72.8096 60.3612 73.5687 61.3304 74.2998 61.2591C86.362 60.1331 91.3528 60.8458 93.8272 61.2306C93.9537 61.2448 93.8834 60.8315 93.6444 60.4752C93.4757 60.2186 93.1664 59.9906 93.1102 59.9478Z" fill="#89ABA8"/>
    <path d="M62.7999 43.8705C61.4221 44.2268 61.2253 44.4264 61.0706 44.8539C60.916 45.2815 68.8591 47.1059 72.8237 47.391C76.7882 47.676 76.8726 48.9303 76.8726 48.9303C76.8726 48.9303 77.6317 47.3767 77.6599 46.7638C77.688 46.151 78.0816 45.8231 76.9147 45.6806C75.7479 45.5381 62.7999 43.8705 62.7999 43.8705Z" fill="#C4BFD1"/>
    <path fill-rule="evenodd" clip-rule="evenodd" d="M66.7925 83.5792C66.6238 82.6956 66.5113 81.7976 66.0334 80.9994C65.8787 81.3558 64.3182 82.8808 62.1391 81.7121C61.8017 81.5411 60.5646 79.9732 60.1147 80.016C59.7492 80.13 58.9619 80.9567 58.2168 81.2275C57.0077 81.6693 55.8268 82.6243 54.4912 82.7241C52.6917 82.8523 51.2156 83.3654 51.7358 85.1043C51.7358 85.2183 54.7584 85.4036 55.883 85.4464C57.5138 85.4891 64.0933 84.5912 66.1458 84.7195C66.3426 84.7337 66.5395 84.748 66.6941 84.5912C66.8206 84.2776 66.8488 83.9213 66.7925 83.5792Z" fill="#3D2D2D"/>
    <path fill-rule="evenodd" clip-rule="evenodd" d="M70.8835 83.3654C70.8835 82.9521 70.8835 82.553 70.8976 82.1396C71.0382 82.5387 70.9679 82.9521 70.8835 83.3654Z" fill="#895637"/>
    <path fill-rule="evenodd" clip-rule="evenodd" d="M77.9128 51.9662C77.9269 51.9804 77.941 51.9947 77.955 51.9947C78.1237 52.1087 78.2502 52.2227 78.3205 52.3368C78.1237 52.237 77.9972 52.1087 77.9128 51.9662ZM78.0534 53.4913C78.1378 53.2632 78.2502 53.0494 78.4049 52.8641C78.3627 53.0352 78.2643 53.2062 78.1378 53.3773C78.1097 53.42 78.0956 53.477 78.0534 53.4913Z" fill="#2F3743"/>
    <path fill-rule="evenodd" clip-rule="evenodd" d="M65.963 80.1443C66.0193 80.6004 65.949 81.3273 65.4569 81.2987C65.1758 81.2845 64.9227 81.7121 64.6415 81.8118C63.5168 82.2252 62.2797 81.37 61.155 80.9567C60.8598 80.8427 60.663 80.7999 60.3537 80.7001C60.3677 80.3866 59.9881 77.9208 61.2534 78.4767C61.4081 78.4624 61.5627 78.5194 61.7174 78.5479C61.7455 78.5052 61.7876 78.5052 61.8158 78.5479C62.1391 78.6049 62.4625 78.6905 62.7999 78.6477C63.545 78.7475 64.276 78.8473 65.0211 78.947C65.4288 79.004 65.8646 78.9898 66.2583 79.1466C65.5694 79.3176 65.963 79.7879 65.963 80.1443Z" fill="#605757"/>
    <path fill-rule="evenodd" clip-rule="evenodd" d="M66.7925 82.6528C66.6238 81.7692 66.5113 80.8712 66.0334 80.0731C65.8787 80.4294 64.3182 81.9544 62.1391 80.7857C61.8017 80.6147 60.5646 79.0468 60.1147 79.0896C59.7492 79.2036 58.9619 80.0303 58.2168 80.3011C57.0077 80.7429 55.8268 81.6979 54.4912 81.7977C52.6917 81.9259 51.2156 82.439 51.7358 84.1779C51.7358 84.2919 54.7584 84.4772 55.883 84.52C57.5138 84.5627 64.0933 83.6648 66.1458 83.7931C66.3426 83.8073 66.5395 83.8216 66.6941 83.6648C66.8206 83.337 66.8488 82.9949 66.7925 82.6528Z" fill="#B4BBC9"/>
    <path fill-rule="evenodd" clip-rule="evenodd" d="M61.9423 77.1084C61.9282 77.3222 61.8298 78.2629 61.8158 78.5337C62.125 78.776 62.4625 78.7902 62.8139 78.662C63.0389 78.5052 63.0951 78.2629 63.1373 78.0206C63.1794 77.6643 63.2357 77.2937 63.32 76.9374C63.4606 76.3102 63.6012 75.6688 63.4325 75.0132C63.3763 74.7852 63.4044 74.5429 63.5168 74.3291C63.8121 73.759 63.8402 73.1603 63.8402 72.5332C63.8402 72.0201 63.9105 71.507 63.9667 70.9939C64.3182 68.1433 64.8665 65.3212 65.3304 62.4849C65.4288 61.872 65.6397 61.3019 65.949 60.7603C66.441 59.9051 66.3145 58.5938 65.6678 57.7956C65.8084 57.4678 66.188 57.4393 66.441 57.254C67.144 57.2113 67.8469 57.254 68.5358 57.3395C70.8976 57.5961 73.2595 57.9382 75.6073 58.2517C77.0694 58.437 78.5174 58.7791 80.0076 58.7648C80.0217 58.7506 80.0357 58.7221 80.0498 58.6936C80.106 58.5938 80.4012 58.5653 80.4575 58.4655C80.7808 58.2802 80.4153 57.9524 80.3028 57.7101C80.1201 57.3538 79.853 57.0545 79.5296 56.8122C78.3909 55.957 77.3646 54.9878 76.6195 53.7478C76.2961 53.2062 76.2961 53.1492 76.7882 52.8926C76.7882 52.8641 76.7882 52.8356 76.7882 52.8071C76.2821 52.7786 75.776 52.7358 75.2699 52.7216C71.7974 52.6646 68.3108 52.6503 64.8524 52.9496C63.067 53.1064 62.6593 53.3772 62.2235 55.1588C62.2235 55.1731 62.2235 55.1873 62.2094 55.2159C61.8579 56.5841 61.7595 57.9952 61.6049 59.4062C61.4784 60.6035 61.0706 61.7295 60.9301 62.9267C60.7473 64.4518 60.5927 65.9626 60.3677 67.4734C60.0163 69.9392 59.946 72.4477 59.468 74.9134C59.3274 75.6261 59.3274 76.3672 59.2149 77.0941C59.1024 77.8781 59.1306 77.9351 59.8897 78.1916C60.0444 78.2486 61.0004 78.4909 61.3237 78.5479C61.4784 78.5764 61.6471 78.6192 61.7595 78.4482C61.8158 78.2059 61.8439 77.9778 61.872 77.7355C61.9001 77.536 61.9142 77.3222 61.9423 77.1084Z" fill="#3D2D2D"/>
    <path fill-rule="evenodd" clip-rule="evenodd" d="M65.6538 57.083C65.6257 57.1828 65.5835 57.2825 65.5554 57.3681C65.0774 56.7552 64.993 55.9998 64.8102 55.2587C65.1477 55.8003 65.6116 56.2136 65.949 56.7409C66.1739 57.1115 65.6538 56.8835 65.6538 57.083Z" fill="#152231"/>
    <path fill-rule="evenodd" clip-rule="evenodd" d="M85.4342 57.1971C84.9843 56.9975 84.5485 56.798 84.0705 56.6697C82.2991 56.1851 80.4434 56.0141 78.7704 55.1446C77.8566 54.6743 77.2521 53.8761 76.7741 52.9924C76.0852 53.0067 76.0712 53.0494 76.3664 53.6481C76.4508 53.8049 76.5492 53.9616 76.6476 54.1042C77.3786 55.3299 78.4471 56.2136 79.5577 57.0688C79.9654 57.3823 80.3028 57.7957 80.3309 58.3801C80.2044 58.6794 76.8725 58.2803 75.312 58.0807C74.117 57.924 72.922 57.7529 71.7271 57.5961C70.8414 57.4821 69.9416 57.4394 69.0559 57.2683C68.2827 57.1115 67.4813 57.3538 66.7222 57.0403C66.5394 56.969 66.5113 57.1258 66.4551 57.2398C66.0755 57.3111 65.6678 57.3538 65.6397 57.8812C65.6678 57.981 65.6959 58.0665 65.7381 58.1663C66.1036 59.1497 66.3988 60.0904 65.6678 61.0739C65.3304 61.53 65.246 62.1428 65.1476 62.713C64.8524 64.5658 64.529 66.4187 64.2197 68.2716C63.9667 69.7539 63.7418 71.2362 63.6855 72.7328C63.6574 73.2887 63.6433 73.816 63.3622 74.3149C63.2356 74.5572 63.1794 74.828 63.2638 75.1273C63.3903 75.5264 63.3903 75.9397 63.2778 76.3388C63.0529 77.0942 63.1091 77.9066 62.7858 78.6478C62.8561 78.8331 63.0248 78.8616 63.1794 78.8758C64.1916 78.9613 65.2039 79.2036 66.2301 79.1466C66.5113 78.9756 66.5816 78.6905 66.6238 78.3912C66.7644 77.3935 66.9049 76.4243 66.919 75.3981C66.9471 72.0201 67.5235 61.0454 67.7766 60.4182C68.0718 59.6486 67.7485 59.6343 68.5498 59.7626C71.1928 60.1902 74.1311 60.461 76.7882 60.8031C79.4734 61.1451 82.1586 61.1024 84.8297 60.632C86.0809 60.4182 87.3462 59.7768 87.9226 58.5796C88.0632 58.266 88.1616 58.0807 88.2319 57.9382C87.2197 57.8955 86.3621 57.6104 85.4342 57.1971Z" fill="#3D2D2D"/>
    <path d="M21.5519 45.2388C26.1491 44.4691 36.4119 43.9275 48.3195 43.9275C48.3758 43.9275 48.432 43.9275 48.4882 43.9275L21.5519 45.2388Z" fill="white"/>
    <path d="M79.0094 54.8881C79.0094 59.0072 17.6718 58.7078 17.6718 55.3299C17.6718 55.0733 18.9792 46.151 18.9792 46.151C18.9792 46.151 35.5262 48.3887 48.3335 48.3887C60.2974 48.3887 67.7063 46.5786 75.7337 46.9207C77.463 46.9919 77.7582 46.4218 77.702 46.151C77.6879 46.1653 79.0094 54.5887 79.0094 54.8881Z" fill="#C4BFD1"/>
    <path d="M48.3335 48.4029C32.124 48.4029 18.9792 47.4052 18.9792 46.1652C18.9792 45.8374 19.9071 45.5239 21.566 45.2531L26.4724 46.9491L48.3335 48.4029Z" fill="white"/>
    <path d="M24.6167 49.144C24.1387 49.1725 23.5623 49.2438 22.8032 49.3578C22.3533 49.4149 21.9315 49.4861 21.5519 49.5431C19.893 49.8282 18.9651 50.1275 18.9651 50.4553C18.9651 50.6549 19.3307 50.8544 20.0055 51.054C20.1039 51.0682 20.1883 51.0967 20.2445 51.111C20.2867 51.1252 20.3288 51.1252 20.371 51.1395C21.0318 51.2535 23.4217 51.3248 26.2616 51.3105H26.599C31.9834 51.2678 30.198 50.6976 28.8343 51.0682C28.7359 51.111 28.6234 51.1965 28.525 51.1965C28.0611 51.1395 27.5971 51.0682 27.1332 50.9969C26.8802 50.9257 26.6412 50.7832 26.36 50.7689C26.0366 50.7546 25.8961 50.4696 25.7836 50.1845C25.7836 50.1845 25.4884 49.8995 25.3759 49.7997C25.2915 49.7142 24.6167 49.144 24.6167 49.144Z" fill="#C4BFD1"/>
    <path d="M70.9257 47.5905C65.5413 48.0894 57.4154 48.403 48.3336 48.403L48.3898 46.9919C48.3898 46.9919 61.3237 46.8636 69.2528 46.9206C69.5621 46.9206 72.669 47.4337 70.9257 47.5905Z" fill="white"/>
    <path d="M71.6568 85.3039L69.5761 85.0616L71.9942 64.1097L74.0749 64.3663L71.6568 85.3039Z" fill="#823C23"/>
    <path d="M70.1525 85.1328L69.5761 85.0615L71.9942 64.1097L72.6128 63.4398L70.1525 85.1328Z" fill="#6B3426"/>
    <path fill-rule="evenodd" clip-rule="evenodd" d="M86.5026 60.3754C85.9403 60.4752 85.3639 60.4752 84.7875 60.4752C84.5485 60.4752 84.2954 60.4752 84.0564 60.5322C84.0002 60.5464 83.944 60.5464 83.8877 60.5464C83.3113 60.5179 82.749 60.6034 82.1726 60.6605C81.6665 60.7032 81.1744 60.7032 80.6683 60.7317C80.2606 60.7602 79.8389 60.8172 79.4312 60.8743C79.1359 60.917 78.8266 60.917 78.5314 60.9598C78.1096 61.031 77.6738 61.0453 77.2521 61.088C76.6194 61.1451 75.9727 61.1878 75.3401 61.3446C75.2417 61.3731 75.1433 61.3731 75.073 61.4586C75.1011 61.5299 75.1573 61.5156 75.2136 61.5156C76.029 61.5156 76.8444 61.5299 77.6598 61.5014C78.0675 61.4871 78.4892 61.4444 78.8969 61.3874C79.1219 61.3589 79.3468 61.3446 79.5858 61.3303C80.0778 61.2876 80.584 61.2448 81.076 61.1878C81.1182 61.1878 81.1604 61.1736 81.2025 61.1736C81.7368 61.1451 82.2569 61.1023 82.7912 61.0738C82.9599 61.0595 83.1286 61.0453 83.3113 61.031C83.3676 61.031 83.4238 61.0025 83.48 61.0025C84.4501 61.031 85.4201 60.8315 86.4042 60.917C87.5851 61.0168 88.752 60.9598 89.9329 60.9883C90.1157 60.9883 90.2985 60.9883 90.4812 61.0453C90.5375 61.0595 90.5937 61.0738 90.6499 61.0738C91.1842 61.0738 91.7043 61.1023 92.2386 61.1593C92.4776 61.1878 92.7306 61.1736 92.9696 61.2306C93.068 61.2591 93.1664 61.2448 93.2648 61.2448C93.5179 61.2591 93.7428 61.2163 93.7428 60.8743C93.7288 60.5322 93.068 59.9335 92.9274 59.8195C92.8571 59.7483 94.755 60.86 94.3473 62.5846C93.9678 63.5681 93.1102 63.2688 92.6181 63.2688C90.0032 63.2403 87.4024 63.3971 84.7875 63.3686C81.8071 63.34 78.8266 63.3543 75.8321 63.3686C75.0027 63.3686 74.1732 63.2973 73.3438 63.2545C72.908 63.2403 72.5565 62.9837 72.205 62.7699C71.3193 62.2568 70.4618 61.7009 69.6182 61.1308C69.2808 60.8885 69.0137 60.6034 68.831 60.2329C68.8028 60.1188 68.845 60.0191 68.9153 59.9335C69.1262 59.8908 69.3371 59.9335 69.562 59.9621C70.7851 60.1616 71.9941 60.3184 73.2172 60.4609C73.9623 60.5464 74.6934 60.6319 75.4385 60.7317C75.6072 60.746 75.7759 60.746 75.9446 60.7317C76.9568 60.6177 77.9691 60.4894 78.9813 60.3896C79.7826 60.3041 80.584 60.2899 81.3853 60.2899C82.5241 60.2899 83.6487 60.2899 84.7875 60.2899C85.2233 60.2899 85.6451 60.3041 86.0809 60.3041C86.2215 60.3184 86.3621 60.3041 86.5026 60.3754Z" fill="#698C81"/>
    <path fill-rule="evenodd" clip-rule="evenodd" d="M87.2055 60.233C87.0087 60.3185 80.1341 60.3897 77.6879 61.1594C77.6879 61.1594 85.4623 60.9029 87.9928 60.7461C89.1034 60.6748 89.961 60.7033 88.6957 60.4468C87.4305 60.2045 87.2055 60.233 87.2055 60.233Z" fill="#9FC6C3"/>
    <path fill-rule="evenodd" clip-rule="evenodd" d="M62.7857 39.2098C62.9263 39.0388 63.095 39.0388 63.2778 39.2241C63.6855 39.6374 64.1354 39.9937 64.6555 40.2503C64.7539 40.293 64.8242 40.3643 64.8805 40.4498C65.1054 40.7206 65.3304 40.9914 65.5272 41.2622C65.6818 41.476 65.7662 41.7183 65.9349 41.9179C66.0333 42.0462 66.1317 42.1602 66.2723 42.2457C66.2723 42.2599 66.2723 42.2742 66.2723 42.3027C66.2301 42.431 66.1176 42.4595 66.0192 42.488C65.6959 42.602 65.4428 42.8016 65.2741 43.1009C65.1195 43.3859 65.0492 43.6995 65.007 44.0273C64.9648 44.3694 64.9929 44.6972 65.0773 45.025C65.1054 45.1248 65.1054 45.2246 65.1054 45.3244C65.0914 45.4099 65.0632 45.4384 64.9789 45.4384C64.2478 45.4526 63.559 45.3101 62.8842 45.0393C62.7436 44.9823 62.5889 44.9253 62.4343 44.911C62.1391 44.8825 61.9422 44.683 61.7595 44.4834C61.5486 44.2696 61.3658 44.0131 61.1971 43.7565C61.0706 43.557 61.0706 43.3432 61.1549 43.1436C61.1971 43.0581 61.1831 43.0011 61.1128 42.9583C60.8738 42.7731 60.8316 42.5022 60.8316 42.2314C60.8316 42.1174 60.9019 42.0177 60.9581 41.9321C61.0144 41.8466 61.0144 41.7753 60.9441 41.7041C60.9019 41.6471 60.8738 41.5901 60.8316 41.5188C60.6488 41.191 60.7332 40.8774 60.8878 40.5638C60.916 40.5068 60.9722 40.4783 61.0425 40.4498C61.4502 40.2788 61.8579 40.1505 62.2796 40.065C62.3359 40.0507 62.378 40.0365 62.4343 40.065C62.4905 40.1077 62.4905 40.1648 62.5046 40.2218C62.5327 40.3358 62.5608 40.4641 62.5749 40.5781C62.5889 40.7206 62.6592 40.7919 62.7998 40.8204C62.9685 40.8632 63.1372 40.9059 63.3059 40.9487C63.4324 40.9772 63.573 41.0199 63.6996 41.0769C63.573 40.8061 63.3059 40.6921 63.1372 40.4926C63.0107 40.35 62.8982 40.1933 62.8279 40.008C62.7295 39.7942 62.6733 39.5661 62.7295 39.3238C62.7295 39.2811 62.7295 39.2383 62.7857 39.2098Z" fill="#FEAD78"/>
    <path fill-rule="evenodd" clip-rule="evenodd" d="M60.3958 34.1357C60.5223 34.0787 60.5505 34.1072 60.5786 34.2497C60.6348 34.7629 60.691 35.2902 60.7473 35.8033C60.7473 35.8461 60.7613 35.9458 60.8176 35.9316C60.916 35.9173 60.8879 35.8318 60.8738 35.7748C60.8316 35.2617 60.7754 34.7343 60.7192 34.2212C60.7051 34.15 60.7051 34.0645 60.8035 34.0645C60.916 34.0502 60.9019 34.1357 60.916 34.207C60.9722 34.7343 61.0425 35.2474 61.0988 35.7748C61.0988 35.7891 61.0988 35.7891 61.0988 35.8033C61.1128 35.8461 61.0988 35.9031 61.169 35.9031C61.2534 35.8888 61.2253 35.8318 61.2253 35.7891C61.1972 35.4755 61.169 35.1619 61.1269 34.8484C61.0988 34.6346 61.0706 34.4065 61.0566 34.1927C61.0566 34.15 61.0285 34.093 61.0847 34.0502C61.155 33.9932 61.2253 34.036 61.2393 34.1357C61.2956 34.6773 61.394 35.2047 61.4783 35.7463C61.4924 35.7891 61.4643 35.8603 61.5346 35.8461C61.6049 35.8318 61.5627 35.7606 61.5627 35.7178C61.4924 35.2047 61.4221 34.6916 61.3518 34.1642C61.3518 34.1215 61.3237 34.0217 61.394 34.0074C61.5065 33.9932 61.4924 34.0645 61.5065 34.1357C61.647 34.7914 61.7173 35.447 61.8158 36.1026C61.8439 36.3022 62.0407 36.801 62.125 36.972C62.3781 37.5137 62.3781 37.7702 62.5187 38.3546C62.589 38.6539 62.6874 38.9389 62.7858 39.224C62.6312 39.6658 62.7999 40.0222 63.0529 40.3785C63.081 40.4212 63.1373 40.464 63.1513 40.521C63.2497 40.6635 63.306 40.8346 63.306 41.0056C63.1092 40.9486 62.8983 40.8916 62.6874 40.8488C62.6171 40.8346 62.5749 40.7918 62.5609 40.7206C62.5187 40.521 62.4625 40.3072 62.4203 40.1077C62.364 39.7086 62.2375 39.338 62.1532 38.9389C62.0829 38.5826 61.9845 38.212 61.9142 37.8557C61.8439 37.4709 61.647 37.1858 61.2956 37.0006C60.7332 36.7297 60.4942 36.2594 60.4802 35.6465C60.4661 35.1762 60.3958 34.1927 60.3958 34.1357Z" fill="url(#paint6_radial_40_392)"/>
    <path fill-rule="evenodd" clip-rule="evenodd" d="M63.2919 40.9913C63.2357 40.8345 63.1935 40.6635 63.1373 40.5067C63.3622 40.692 63.6153 40.8203 63.7277 41.1338C63.5731 41.0768 63.4325 41.0341 63.2919 40.9913Z" fill="#BA6831"/>
    <path fill-rule="evenodd" clip-rule="evenodd" d="M85.2093 26.2111C85.617 27.3371 85.7154 28.5344 85.2796 30.6295C84.8438 32.7247 88.9911 29.5748 88.9911 29.5748C88.9911 29.5748 88.1335 26.5104 88.3444 24.6575C88.5693 22.7904 85.2093 26.2111 85.2093 26.2111Z" fill="#EC8F46"/>
    <path fill-rule="evenodd" clip-rule="evenodd" d="M92.0557 15.607C92.351 16.5904 92.2666 17.5881 92.1963 18.5858C92.1823 18.7569 92.0557 18.8851 91.9573 19.0134C91.5918 19.4838 91.3388 20.0254 91.2263 20.6097C91.1279 21.1514 90.8748 21.6075 90.4953 21.9923C90.1297 22.3629 89.7783 22.7192 89.4128 23.0755C89.0894 23.3748 88.752 23.6741 88.7239 24.1587C88.7098 24.3298 88.5692 24.2585 88.513 24.3155C88.4005 24.344 88.3443 24.2728 88.2881 24.2015C87.9366 23.6456 87.6695 23.0327 87.3883 22.4484C87.2618 22.1776 87.2899 21.9353 87.4867 21.693C87.6133 21.5362 87.7539 21.4079 87.8523 21.2369C88.021 21.0088 88.0913 20.7523 88.1334 20.4815C88.3162 19.5265 87.7257 18.9564 86.7838 19.1702C86.5308 19.2272 86.3058 19.3412 86.0809 19.4695C85.7575 19.6548 85.7154 19.6263 85.7013 19.2415C85.7013 19.1845 85.7013 19.1132 85.7013 19.0562C85.7575 18.2865 85.6451 17.5739 84.9703 17.075C84.5063 16.4194 84.422 16.3766 85.1249 15.5642C85.6732 14.9371 86.348 14.4952 87.1634 14.3099C87.8523 14.1532 88.513 13.9109 89.23 13.8966C89.5252 13.8966 89.8064 13.8966 90.0594 14.0534C90.8045 14.4952 91.5215 14.9371 92.0557 15.607Z" fill="#3E211E"/>
    <path fill-rule="evenodd" clip-rule="evenodd" d="M85.0546 17.0323C86.0246 17.6166 85.8138 18.5716 85.7997 19.498C86.3339 19.1417 86.8822 18.8709 87.543 19.0704C88.1615 19.2557 88.4005 19.6121 88.3021 20.2534C88.2459 20.624 88.2178 21.0088 87.9226 21.2939C87.4727 21.7642 86.9244 21.921 86.3058 21.9068C86.601 22.0351 86.7697 22.2631 86.6713 22.5909C86.4886 23.1468 86.4042 23.7454 86.0528 24.2443C85.7575 24.6718 85.4061 25.0282 84.914 25.242C84.4501 25.4415 84.1127 25.413 83.6487 25.6268C83.1005 25.8833 81.4837 25.6696 81.3572 25.5128C81.3853 25.1279 81.7086 25.6553 81.9055 25.3845C82.0601 25.1707 82.4256 25.0139 82.3413 24.7574C82.271 24.5436 81.8914 24.6006 81.6524 24.5436C81.4556 24.4866 81.2447 24.4581 81.0479 24.4153C80.7667 24.3725 80.584 24.2443 80.6121 23.9307C80.5699 23.8594 80.5277 23.7882 80.4856 23.7169C80.7386 23.5744 81.0057 23.7597 81.2728 23.6884C81.0057 23.7169 80.7527 23.5031 80.4856 23.7169C80.345 23.4318 80.3309 23.1468 80.5558 22.8902C81.1323 22.9045 81.6805 23.1895 82.271 23.0613C82.4256 23.0328 82.5943 23.0043 82.763 23.0755C82.7771 22.9045 82.6928 22.819 82.5803 22.8902C82.0742 23.218 81.5681 23.0328 81.076 22.9045C80.9073 22.8617 80.7386 22.7905 80.5558 22.819C80.5137 22.5197 80.5137 21.9068 80.345 21.636C80.4996 21.5219 80.6824 21.8925 80.837 21.9353C81.0057 21.9923 81.1604 21.978 81.3291 21.9068C81.0198 21.921 80.7667 21.7928 80.4996 21.6645C80.4153 21.6217 80.3169 21.1941 80.3871 21.0373C80.7386 20.9946 81.0057 21.3224 81.1322 20.8806C81.2307 20.5242 81.6384 20.5527 81.9336 20.8948C82.3272 21.3652 82.749 21.8213 83.1707 22.2916C83.227 22.3629 83.2692 22.4484 83.4097 22.4626C83.5784 22.0208 83.7893 21.5932 84.0283 21.1799C84.2392 20.8093 84.4782 20.4672 84.8015 20.1822C85.2092 19.8258 85.1389 19.3127 85.1952 18.8139C84.6328 19.1274 84.0986 19.498 83.4238 19.2557C83.3254 19.0277 83.48 18.8566 83.5644 18.6714C83.705 18.3863 83.8456 18.1155 84.1408 17.9587C84.1548 17.7734 84.0002 17.7592 83.9018 17.6736C83.8174 17.6166 83.705 17.5596 83.8174 17.4313C83.9721 17.3458 84.0283 17.2176 84.0002 17.0465C83.944 16.5192 84.0564 16.0203 84.2533 15.5357C84.3938 15.2079 84.2814 15.0369 83.944 15.0083C83.3535 14.9656 82.763 14.9656 82.3975 15.5785C82.3413 15.6782 82.2569 15.7923 82.1163 15.7352C82.1585 15.4644 82.2569 15.2079 82.3413 15.0369C82.4256 14.9228 82.2148 15.0226 82.3132 14.8943C82.5943 14.3527 83.0442 14.1959 83.6206 14.3242C84.183 14.4382 84.7031 14.1959 85.2374 14.1389C85.6029 14.2529 85.392 14.4382 85.2655 14.5665C84.9421 14.8943 84.7172 15.2792 84.5625 15.721C84.3657 16.2626 84.3657 16.3196 84.8015 16.7044C84.8859 16.8327 84.9984 16.904 85.0546 17.0323Z" fill="#FFAF78"/>
    <path fill-rule="evenodd" clip-rule="evenodd" d="M85.0546 17.0322C84.7875 16.8042 84.2673 16.6331 84.2814 16.3481C84.2955 15.8065 84.5345 15.2648 84.9 14.823C85.0265 14.6662 85.1671 14.5379 85.3077 14.3954C85.4061 14.2956 85.3077 14.2814 85.2374 14.2529C85.3358 13.9963 85.5888 14.0676 85.7716 13.9963C85.9403 13.9963 86.109 13.9251 86.1934 13.8966C86.0387 13.9536 85.7857 13.9821 85.5467 14.0391C84.422 14.3669 83.3254 14.1959 82.271 13.7398C82.1726 13.6685 82.2288 13.5402 82.1726 13.469C82.0883 13.2837 84.5907 12.4285 85.1671 12.2005C86.6151 11.6161 92.4073 15.1223 92.1823 15.9347C91.6481 15.6497 91.0998 14.9085 90.6359 14.5379C89.9892 14.0248 89.3284 13.9108 88.5833 14.0961C87.7117 14.2956 86.8119 14.4239 86.0387 14.937C85.6451 15.2078 85.3077 15.5499 84.9984 15.9205C84.7453 16.234 84.5907 16.5191 84.9843 16.8469C85.0265 16.8754 85.0406 16.9609 85.0546 17.0322Z" fill="#3E211E"/>
    <path fill-rule="evenodd" clip-rule="evenodd" d="M83.4379 19.2984C84.0424 19.2557 84.6048 19.1417 85.0687 18.7141C85.2374 18.5573 85.392 18.6428 85.3499 18.8994C85.2233 19.4837 85.2093 20.0681 84.675 20.5242C84.0986 21.0088 83.8034 21.7214 83.5644 22.4483C83.5222 22.5624 83.5504 22.7192 83.4098 22.7477C83.2551 22.7904 83.2411 22.6051 83.1708 22.5196C82.7209 21.9637 82.2007 21.4791 81.779 20.909C81.5822 20.6525 81.2307 20.7095 81.2026 20.9945C81.1182 21.5647 80.823 21.2226 80.3872 21.0801C80.0498 21.2511 79.8108 21.2654 79.5155 21.1798C79.3328 20.8948 79.4171 20.4672 79.5999 20.2534C80.0638 19.7403 80.4996 19.5978 80.9495 19.0704C81.4275 18.5145 81.6946 17.8732 81.6946 17.132C81.6946 16.6332 81.9758 16.2198 82.1023 15.7495C82.5663 14.9656 83.2411 14.766 84.0846 14.9371C84.422 15.0083 84.3236 15.1223 84.3939 15.5072C85.2936 20.7808 82.4257 17.1035 82.1586 17.5026C82.4678 18.1155 82.5381 18.7568 82.3132 19.3982C82.6506 19.3697 83.0161 19.1132 83.4379 19.2984Z" fill="#FFB888"/>
    <path fill-rule="evenodd" clip-rule="evenodd" d="M84.5063 25.3274C85.2233 24.9711 85.8419 24.572 86.1652 23.8166C86.3339 23.4033 86.4605 22.9614 86.5729 22.5339C86.6713 22.149 86.4183 22.0208 86.0949 21.9922C86.0106 21.978 85.8981 22.035 85.8981 21.8925C85.8981 21.7927 85.9825 21.7642 86.0528 21.7785C86.7416 21.9067 87.3462 21.6502 87.9226 21.3081C87.1634 21.8782 87.4867 22.5054 87.8382 23.1467C88.021 23.4888 88.1897 23.8451 88.3724 24.1872C88.4849 24.344 88.3162 24.4865 88.3584 24.6433C88.0069 24.9854 88.1053 25.4272 88.1334 25.8263C88.1756 26.4392 88.274 27.052 88.4427 27.6507C88.513 27.893 88.4849 28.0783 88.2881 28.2635C88.0069 28.5201 87.8523 28.8622 87.6554 29.19C87.4867 29.0902 87.4164 28.9049 87.304 28.7767C87.065 28.6626 87.0931 28.4346 87.0931 28.2208C87.1072 26.9095 86.8119 25.641 86.6292 24.2585C86.3199 24.7288 86.0387 25.0994 85.7154 25.4415C85.5607 25.5982 85.6169 25.7693 85.7013 25.9403C85.8841 26.3394 86.0106 26.767 86.0668 27.2088C86.0809 27.3514 86.1652 27.5937 85.87 27.5937C85.6029 27.1518 85.392 26.6815 85.2233 26.1969C85.0687 25.7693 84.8297 25.6553 84.436 25.8833C83.8175 26.2539 81.1323 25.5127 80.5418 25.0709C80.7808 24.7431 83.4941 25.812 84.5063 25.3274Z" fill="#EC8F46"/>
    <path fill-rule="evenodd" clip-rule="evenodd" d="M80.6121 24.8998C80.7527 24.572 80.5699 24.2869 80.598 23.9448C80.6543 24.2014 80.837 24.2869 81.076 24.3154C81.4837 24.3724 81.8914 24.4722 82.2991 24.5577C82.4116 24.5862 82.5662 24.5577 82.6084 24.686C82.6506 24.8143 82.5241 24.8855 82.4397 24.9853C82.0883 25.4129 80.4012 25.3844 80.6121 24.8998Z" fill="#FFAF78"/>
    <path fill-rule="evenodd" clip-rule="evenodd" d="M80.5278 22.8332C80.6262 22.6051 80.7668 22.6764 80.9355 22.7476C81.3291 22.9187 81.7368 22.99 82.1586 22.9614C82.2429 22.9472 82.3413 22.9614 82.4116 22.9044C82.735 22.6479 82.8193 22.6764 82.9177 23.0897C82.9318 23.161 82.9458 23.2323 82.8755 23.332C82.6506 23.1182 82.3835 23.161 82.0883 23.1895C81.554 23.2465 81.0198 23.1752 80.5278 22.9044C80.5278 22.8759 80.5278 22.8617 80.5278 22.8332Z" fill="#EC8F46"/>
    <path fill-rule="evenodd" clip-rule="evenodd" d="M79.4734 21.08C79.8108 20.9233 80.0498 21.1371 80.3731 21.0943C80.7527 21.3794 81.1464 21.8925 81.6946 21.7214C81.4416 22.1205 81.1464 22.1918 80.823 22.0778C80.6684 22.0207 80.7246 21.9067 80.57 21.8782C80.1904 21.7784 79.5296 21.5219 79.4734 21.08Z" fill="#EC8F46"/>
    <path fill-rule="evenodd" clip-rule="evenodd" d="M82.1867 13.4547C82.2569 13.5117 82.2569 13.583 82.2569 13.6685C82.777 13.8966 82.7771 13.8966 82.4819 14.3812C82.3553 14.5949 82.3413 14.823 82.3413 15.0653C82.3132 15.2078 82.271 15.4074 82.1726 15.3931C81.8352 14.7517 81.9196 14.0533 82.1867 13.4547Z" fill="#3E211E"/>
    <path fill-rule="evenodd" clip-rule="evenodd" d="M82.3272 15.0653C82.1585 14.823 82.1445 14.5237 82.3413 14.3527C82.7349 14.0249 82.5241 13.8538 82.2429 13.6543C83.0723 13.8966 83.9018 14.0961 84.7734 14.0676C85.0687 14.0534 85.3639 13.9536 85.6591 13.9536C85.7716 13.9108 85.8559 13.9108 85.8138 14.0819C85.6029 14.0819 85.4061 14.1246 85.2374 14.2529C84.6328 14.4382 84.0283 14.595 83.3957 14.4525C82.8474 14.3242 82.5944 14.6948 82.3272 15.0653Z" fill="#40221F"/>
    <path fill-rule="evenodd" clip-rule="evenodd" d="M84.3236 18.0726C84.1268 18.0441 83.944 18.0299 83.7753 17.9016C83.5644 17.7448 83.1286 17.6308 82.7209 17.5738C82.6927 17.5595 82.6506 17.5453 82.6224 17.531C82.4256 17.4882 82.2428 17.4027 82.046 17.531C82.3694 18.2152 82.5381 18.9135 82.0038 19.6547C82.51 19.4409 82.9599 19.3411 83.4379 19.2984C83.7753 19.2414 84.0846 19.4979 84.3236 18.0726Z" fill="#FFAF78"/>
    <path fill-rule="evenodd" clip-rule="evenodd" d="M80.4714 23.7311C80.4996 23.5031 80.6261 23.4746 80.8229 23.5173C81.0479 23.5743 81.2728 23.6313 81.5681 23.5743C81.2025 24.0447 80.8229 23.7454 80.4714 23.7311Z" fill="#EC8F46"/>
    <path fill-rule="evenodd" clip-rule="evenodd" d="M82.7631 17.9445C83.1005 17.9872 83.3675 18.144 83.5925 18.4006C83.7612 18.6143 83.7612 18.9422 83.6065 18.9422C83.241 18.9992 82.8052 18.5716 82.5944 18.2295C82.6506 18.144 82.7068 18.0442 82.7631 17.9445Z" fill="#FFB888"/>
    <path fill-rule="evenodd" clip-rule="evenodd" d="M82.5944 18.2438C83.227 18.4576 83.8175 18.8281 83.705 19.0847C83.6769 19.0847 83.6488 19.0847 83.6066 19.0847C83.4238 19.1132 83.3114 18.9707 83.1848 18.8851C82.988 18.7854 82.749 18.7711 82.6225 18.5573C82.496 18.4718 82.4679 18.372 82.5944 18.2438Z" fill="#4B2C24"/>
    <path fill-rule="evenodd" clip-rule="evenodd" d="M82.8755 19.1844C82.9458 19.0561 83.0723 18.8851 83.227 18.7996C83.4519 18.9136 83.48 18.9991 83.5925 19.0989C83.4519 19.3269 83.0723 19.2414 82.8755 19.1844Z" fill="#D5C9C4"/>
    <path fill-rule="evenodd" clip-rule="evenodd" d="M82.6085 18.5715C82.7209 18.543 82.9318 18.714 83.1427 18.8423C83.1286 18.9706 83.1146 19.0989 82.9881 19.1844C82.6225 19.1987 82.5522 18.9849 82.6085 18.5715Z" fill="#423937"/>
    <path fill-rule="evenodd" clip-rule="evenodd" d="M84.0424 31.5559C84.9562 31.0286 85.7435 30.8718 86.7135 30.4727C87.0228 30.3444 87.2337 30.5582 87.4867 30.658C88.0069 30.8575 88.5271 31.0571 89.0332 31.2851C89.4831 31.3706 89.6236 31.7127 89.7783 32.0975C90.1579 33.0097 90.5093 33.9362 90.903 34.8484C91.2404 35.6323 90.7764 35.0907 90.8327 34.9766C91.0576 34.5776 91.0857 34.4493 90.7483 34.15C89.9329 33.4373 90.439 32.4539 89.7221 31.6557C89.5534 31.4704 89.3987 31.2709 89.2019 31.0998C88.9488 30.9003 88.7661 30.6152 88.5271 30.4014C88.3021 30.2162 88.0772 30.0309 87.8663 29.8313C87.782 29.7601 87.6695 29.6745 87.7539 29.5463C87.8242 29.4465 87.9366 29.4893 88.035 29.532C88.4287 29.7173 88.8645 29.8313 89.1878 30.1591C89.4268 30.4014 89.8064 30.4157 90.0173 30.6152C89.7923 30.2589 89.4971 29.8598 89.3284 29.3895C89.2581 29.2184 89.0472 28.6056 89.5393 29.0047C89.8345 29.3895 90.1719 29.7601 90.439 30.1734C95.6969 36.7868 92.4635 38.2121 91.1279 38.098C90.9873 38.0838 90.903 38.0838 90.903 38.2548C90.917 39.5946 90.425 40.8774 90.4109 42.2171C90.3969 43.7422 90.186 45.253 90.1016 46.7638C90.0032 48.6737 89.947 50.5979 89.6799 52.4935C89.4549 54.0328 88.5974 58.0237 88.1756 58.0237C87.782 57.8384 87.8944 56.8122 88.021 56.3561C88.6958 53.876 89.0754 51.339 89.1878 48.7592C89.2722 46.5643 89.4831 44.3693 89.5674 42.1886C89.6236 40.8631 90.0032 39.5803 89.9329 38.2548C90.0876 34.435 89.2862 30.5012 85.7154 31.5702C85.0265 31.8267 84.2955 31.955 83.6347 32.2828C83.5082 32.3398 83.8315 31.67 84.0424 31.5559Z" fill="#8DA30C"/>
    <path fill-rule="evenodd" clip-rule="evenodd" d="M82.4959 14.652C82.2428 14.5665 82.046 14.3384 81.7367 14.4667C81.6383 14.5095 81.5821 14.4097 81.5961 14.2957C81.6524 13.8253 81.6383 13.3407 81.7929 12.8989C81.9757 12.3715 82.3975 12.0437 82.9317 11.8727C82.8474 11.7301 82.6786 11.8299 82.6224 11.6731C83.1426 11.3311 83.7612 11.16 84.3376 11.2598C85.1249 11.3881 85.9262 11.4878 86.6854 11.7586C87.5289 12.058 88.1615 12.6566 88.8504 13.1982C89.1737 13.4547 89.4971 13.7256 89.8345 13.9821C90.1438 14.2387 90.5093 14.4097 90.8608 14.6092C91.8027 15.1508 92.4072 15.9633 92.59 17.1035C92.7587 18.1582 92.4072 19.0419 91.8449 19.8686C91.4231 20.4814 90.9733 21.0943 90.5374 21.6929C90.4109 21.864 90.2844 22.035 90.0454 21.9495C89.8064 21.8782 89.9048 21.6502 89.8345 21.4934C89.6658 21.0516 89.947 20.795 90.1579 20.5242C90.2984 20.3389 90.4109 20.1821 90.2141 19.9541C90.1157 19.8401 90.1719 19.6833 90.2563 19.555C90.3828 19.3697 90.5093 19.1702 90.6359 18.9849C90.9451 18.5145 91.0998 18.0014 91.0717 17.4313C91.0576 17.2033 91.0154 16.9752 91.1701 16.7614C91.2404 16.6617 91.1701 16.5619 91.1138 16.4906C90.8889 16.2056 90.7061 15.8492 90.2422 15.8635C90.0594 15.8635 89.9329 15.721 89.8064 15.5784C89.5814 15.3219 89.3143 15.1081 89.005 14.9656C88.991 14.9513 88.9769 14.9228 88.9488 14.9228C88.6536 14.8373 88.4849 14.4667 88.2037 14.4525C87.9366 14.4239 87.7257 14.7518 87.4445 14.823C87.3321 14.8515 87.2196 14.8943 87.1071 14.8515C86.587 14.6805 86.1933 14.937 85.8137 15.2649C85.7434 15.3219 85.7013 15.4074 85.631 15.4502C85.0686 15.9205 84.8437 16.4621 85.3076 17.132C85.3357 17.1748 85.3357 17.2318 85.3076 17.2745C84.436 17.0322 83.972 16.4051 83.733 15.5642C83.5925 15.1508 83.7612 14.5665 84.1126 14.2672C83.7471 14.3384 83.4097 14.3954 83.1004 14.595C82.9036 14.6805 82.7068 14.8088 82.4959 14.652Z" fill="#3E211E"/>
    <path fill-rule="evenodd" clip-rule="evenodd" d="M89.1597 28.9049C89.1035 28.8051 88.8504 28.8336 88.499 29.0189C87.557 29.5605 86.6432 30.1591 85.6591 30.6295C85.153 30.8718 84.6469 31.1283 84.2111 31.4847C83.5503 32.0263 81.2869 35.1334 81.1885 35.3472C80.4715 36.4162 79.7405 37.4709 79.0235 38.5399C78.6158 39.1528 78.2362 39.7941 77.7441 40.35C77.2661 40.8916 76.6476 41.1339 75.9728 41.1624C74.0608 41.2479 69.4777 41.9891 67.3829 41.8181C67.0455 41.7183 66.68 41.6755 66.3285 41.6613C65.6537 41.8038 65.2039 42.1744 64.993 42.8443C64.8524 43.3004 64.8102 43.7565 64.8524 44.2268C64.8805 44.5546 65.0492 44.8539 64.993 45.196C65.1195 44.9537 65.3023 44.7684 65.5413 44.9965C65.8646 45.2958 66.2583 45.3956 66.6378 45.4098C67.0034 45.4811 67.3829 45.5096 67.7485 45.5951C70.0822 46.1224 75.3261 45.6093 77.6036 46.379C78.0394 46.5215 78.4471 46.4788 78.8407 46.2365C79.3609 45.9229 79.7545 45.4953 80.1903 45.0962C80.2044 45.1247 80.1903 45.1675 80.1903 45.196C80.0216 46.8779 79.389 48.3459 79.1922 50.0278C79.1219 50.5694 78.1237 54.7312 78.8969 55.2443C79.6842 55.7717 80.9776 55.9142 81.8493 56.2705C83.2832 56.8692 86.334 57.8954 88.0632 58.0237C88.8504 58.0807 89.6518 50.2273 89.7361 48.916C89.8345 47.448 89.9892 45.9799 90.0876 44.5119C90.2563 41.8466 90.7062 38.6111 91.1139 35.9744C91.5497 33.2805 90.4531 31.3421 89.1597 28.9049Z" fill="#A3B218"/>
    <path fill-rule="evenodd" clip-rule="evenodd" d="M80.3872 23.5886C80.345 23.3605 80.2326 23.0042 80.2185 22.7477C80.1904 22.2916 80.2326 21.9067 80.092 21.6217C80.2466 21.4792 80.5559 21.75 80.7387 21.7072C81.0901 21.6217 81.1604 21.4934 81.062 21.1513C80.9355 20.6952 81.2307 20.3959 81.4697 20.0824C81.526 20.0111 81.6244 19.9826 81.7087 20.0396C81.8352 20.1394 81.8071 20.2819 81.8071 20.4244C81.779 20.5955 81.9055 20.7095 81.9758 20.8378C82.6506 21.2939 83.3676 21.0658 84.0846 20.9946C84.3798 20.966 84.6469 20.8663 84.8578 20.6525C85.0546 20.4529 85.3077 20.4529 85.5608 20.51C85.6592 20.6525 85.6592 20.8378 85.7716 20.966C85.7154 21.2083 85.5326 21.3936 85.7857 21.6929C86.0106 21.9638 85.4905 22.7762 85.1249 22.8474C85.0265 22.8617 84.9562 22.8474 84.9 22.7477C84.8297 22.6051 84.7313 22.5766 84.5907 22.6479C84.4501 22.7049 84.3517 22.7762 84.3658 22.9472C84.3798 23.0755 84.3377 23.2038 84.2393 23.3035C84.1127 23.4318 84.0565 23.5316 84.1549 23.7169C84.2392 23.8737 84.169 24.116 84.0143 24.1445C83.5644 24.23 83.4942 24.7146 83.1427 24.8856C83.1005 24.9284 83.0724 24.9711 82.974 24.9996C83.0865 24.9711 83.1005 24.9284 83.1427 24.8856C83.6066 24.8429 84.0846 25.0281 84.5064 24.7146C84.661 24.6006 84.8578 24.572 84.9703 24.7573C85.1109 24.9711 84.9703 25.1137 84.7875 25.2134C84.7172 25.2989 84.6329 25.3845 84.5626 25.4842C83.9721 25.7123 83.3676 25.8833 82.735 25.8121C82.4819 25.7835 82.2289 25.7693 81.9899 25.7693C81.3573 25.7835 80.8371 26.0258 80.345 25.641C80.2044 25.413 80.3029 24.7858 80.331 24.5293C80.3732 24.2157 80.4716 23.9022 80.3872 23.5886C80.9355 23.332 81.5119 23.5173 82.1024 23.4318C82.0602 23.2465 82.0461 23.104 81.7649 23.2893C81.4697 23.4746 81.1042 23.3605 80.7949 23.1895C80.6121 23.104 80.5559 23.4888 80.3872 23.5886Z" fill="#FEAD78"/>
    <path fill-rule="evenodd" clip-rule="evenodd" d="M85.2936 17.246C85.2374 17.132 85.1671 17.0322 85.1108 16.9182C84.8156 16.2626 84.8578 16.0773 85.3639 15.5499C85.7154 15.1793 86.0387 14.7945 86.5589 14.6805C86.6713 14.652 86.7557 14.595 86.8822 14.652C87.304 14.8658 87.6414 14.6377 87.9225 14.3812C88.1053 14.2101 88.2037 14.2244 88.3443 14.3669C88.5411 14.5807 88.8223 14.6805 88.9769 14.937C88.0912 14.7945 87.3461 15.1508 86.6151 15.6069C86.4745 15.6925 86.3058 15.7495 86.3902 15.9775C86.4042 16.0345 86.3761 16.1058 86.348 16.1628C86.109 16.7472 86.2777 17.075 86.9103 17.2745C87.1353 17.3458 87.4024 17.3886 87.4024 17.6594C87.4024 17.9729 87.5851 18.3578 87.1774 18.5858C87.079 18.6713 86.9806 18.6571 86.8822 18.5716C86.4464 18.0299 85.7716 17.7449 85.2936 17.246Z" fill="#3E211E"/>
    <path fill-rule="evenodd" clip-rule="evenodd" d="M84.0143 31.8839C83.944 31.9124 83.5925 32.2117 83.5222 32.2259C83.9159 31.1997 84.7313 30.8719 85.2795 30.6011C86.0246 30.2163 86.7557 29.8314 87.4446 29.3753C87.8523 29.1045 88.3021 28.9477 88.7661 28.8622C89.0191 28.8195 89.2862 28.7767 89.4971 29.019C89.2019 28.848 89.0332 28.905 89.3846 29.4181C89.708 29.8884 89.9189 30.3588 90.1719 30.8291C89.3284 30.4871 88.6536 29.8172 87.6976 29.5464C88.4427 29.8599 89.7361 31.3423 89.8486 31.7413C89.0613 31.5133 87.6133 30.0595 84.0143 31.8839Z" fill="#AEAF16"/>
    <path fill-rule="evenodd" clip-rule="evenodd" d="M82.496 14.652C82.7068 14.6377 82.9177 14.5807 83.0864 14.4524C83.3957 14.2386 83.7472 14.1816 84.1408 14.1674C83.8878 14.6092 83.705 15.051 83.7191 15.5499C83.1145 16.0915 82.3976 16.5048 81.9477 17.2032C81.8633 17.3315 81.8914 17.474 81.9336 17.6023C82.032 17.8731 82.032 18.1582 81.9899 18.429C81.9617 18.6143 81.8774 18.7711 81.6806 18.7283C81.4838 18.6998 81.4275 18.5288 81.4978 18.3435C81.5962 18.0727 81.4697 17.8161 81.3994 17.5596C81.3291 17.303 81.3713 17.1035 81.5259 16.8897C81.7649 16.5761 81.9617 16.234 82.1726 15.9062C82.2007 15.8492 82.257 15.7779 82.2429 15.7352C82.1164 15.3218 82.3835 15.0083 82.496 14.652Z" fill="#FEB787"/>
    <path fill-rule="evenodd" clip-rule="evenodd" d="M80.3168 25.1992C80.4574 25.1279 80.5558 25.2134 80.6542 25.2989C80.8651 25.4842 81.1322 25.5982 81.3993 25.6267C82.4819 25.7265 83.5784 25.8548 84.6329 25.3844C84.6891 25.2847 84.7875 25.3559 84.8578 25.3132C85.1249 25.2419 85.3499 25.4129 85.5889 25.4415C85.7154 25.4557 85.7716 25.5697 85.7576 25.698C85.7435 25.869 85.6451 25.9546 85.4905 25.9831C84.8016 26.1541 84.0986 26.3679 83.3816 26.3679C82.4537 26.3679 81.5118 26.3679 80.6542 25.9403C80.3449 25.7693 80.2043 25.5555 80.3168 25.1992Z" fill="#EA8F46"/>
    <path fill-rule="evenodd" clip-rule="evenodd" d="M81.7087 20.51C81.6947 20.3674 81.8071 20.1536 81.6525 20.0966C81.4697 20.0396 81.3994 20.2677 81.3432 20.4102C81.2307 20.6525 81.0058 20.852 81.1464 21.1656C80.8793 21.6075 80.4716 21.6502 79.9373 21.3366C79.7967 21.1941 79.6421 21.2939 79.5015 21.1371C79.4031 21.0373 79.4031 20.681 79.4875 20.5527C79.5577 20.4387 79.7124 20.4102 79.7827 20.4672C80.345 20.9518 80.5418 20.3532 80.7668 20.0824C81.048 19.7403 81.3573 19.4267 81.6665 19.1274C81.7368 19.0562 81.8071 18.9706 81.9196 19.0277C82.0321 19.0847 82.0883 19.1702 82.0321 19.3127C82.0039 19.3697 81.9899 19.4695 82.018 19.4838C82.4398 19.8116 81.9899 20.2392 82.1586 20.5955C82.1727 20.6097 82.1164 20.6525 82.0883 20.681C81.8774 20.795 81.7931 20.6525 81.7087 20.51Z" fill="#FEB787"/>
    <path fill-rule="evenodd" clip-rule="evenodd" d="M82.3132 17.3031C82.7771 17.2318 83.1848 17.2033 83.6065 17.3173C83.8174 17.3743 83.9861 17.4884 84.1267 17.6451C84.2251 17.7592 84.45 18.0157 84.3094 18.144C84.1548 18.2723 83.8877 18.0585 83.7893 17.9445C83.6206 17.7592 83.1848 17.6594 82.9458 17.6309C82.6506 17.5739 82.6225 17.4598 82.3132 17.3031Z" fill="#4B2822"/>
    <path fill-rule="evenodd" clip-rule="evenodd" d="M79.6702 21.0801C79.7546 21.1513 80.1341 21.3224 80.2185 21.3651C80.584 21.5362 80.8652 21.4079 81.1323 21.1656C81.3291 21.5219 81.1604 21.7785 80.6684 21.8212C80.5137 21.8355 80.2466 21.5219 80.092 21.5077C79.867 21.4507 79.628 21.1513 79.6702 21.0801Z" fill="#EB914A"/>
    <path fill-rule="evenodd" clip-rule="evenodd" d="M80.2326 22.7192C80.3028 22.6764 80.4434 22.8332 80.57 22.9187C80.823 23.0898 81.1604 23.0612 81.4697 23.047C81.5541 23.047 81.793 23.0612 81.8352 22.9615C81.8774 22.8332 81.8352 22.6764 81.9477 22.8047C81.9477 22.8047 81.9758 23.0327 82.018 23.1325C82.0602 23.2323 82.1867 23.2608 82.2007 23.3748C82.2007 23.4033 82.1164 23.4603 82.0883 23.4461C81.5259 23.218 80.9636 23.3748 80.4153 23.4033C80.3872 23.4033 80.3731 23.3891 80.345 23.3748C80.1904 23.2038 80.1763 22.7477 80.2326 22.7192Z" fill="#EB9048"/>
    <path fill-rule="evenodd" clip-rule="evenodd" d="M85.7997 38.5828C85.3217 39.0674 82.5803 42.431 80.6121 44.8825C79.6421 46.094 76.1836 45.98 72.7674 45.6094C69.3371 45.2246 66.8909 46.0228 65.9349 45.8803C64.9789 45.7377 64.6134 45.3671 64.8243 43.6283C65.0492 41.8894 65.9911 41.6756 66.3004 41.6899C66.3285 41.6899 65.8365 41.8182 65.6678 42.1175C65.2882 42.8159 65.0211 44.1129 65.3866 44.3552C66.5956 45.1391 70.8695 44.4122 75.1152 44.7828C75.4666 44.8113 78.4049 44.6402 80.2466 43.2435C80.6543 42.9299 84.4361 38.2549 84.7032 38.2692C84.9843 38.2835 85.7997 38.5828 85.7997 38.5828Z" fill="#A4B21F"/>
    <path opacity="0.5" fill-rule="evenodd" clip-rule="evenodd" d="M63.1373 40.5068C63.1232 40.4498 63.081 40.4071 63.0389 40.3643C62.7858 40.0222 62.6171 39.6517 62.7717 39.2098C62.7717 39.1956 62.7577 39.1671 62.7577 39.1528C62.6171 39.2669 62.5327 39.4521 62.5468 39.7229C62.5609 40.0507 62.6452 40.5353 62.6452 40.5353L62.5187 40.5781C62.5327 40.6209 62.5327 40.6494 62.5468 40.6921C62.5609 40.7634 62.603 40.8061 62.6733 40.8204C62.8842 40.8774 63.081 40.9344 63.2919 40.9772C63.2919 40.8061 63.2498 40.6494 63.1373 40.5068Z" fill="url(#paint7_radial_40_392)"/>
    <path fill-rule="evenodd" clip-rule="evenodd" d="M80.3731 24.2443C80.3169 24.6149 80.1763 25.299 80.3169 25.5983C80.4575 25.8976 80.8651 25.6268 81.9336 25.6696C83.002 25.7123 83.705 25.7551 84.0142 25.3845C84.3235 25.0139 81.9336 24.0162 81.6805 23.9307C81.4415 23.8452 80.3731 24.2443 80.3731 24.2443Z" fill="#FEAD78"/>
    <path d="M78.7142 52.8356H78.5736C78.5736 52.8641 78.3908 53.4485 74.7637 54.0471C67.7063 55.2301 53.1416 55.5722 41.8385 55.3869C35.484 55.2871 29.6778 55.0163 25.4743 54.6315C18.7402 54.0186 18.1076 53.2917 18.0513 53.2204C18.0513 53.2204 18.0654 53.2489 18.0654 53.2774H17.9107C17.8686 53.5767 17.8264 53.8475 17.7983 54.0898C18.2622 54.3607 19.0214 54.5887 20.1461 54.8025C21.7628 55.1161 24.0684 55.3869 27.0207 55.6149C32.5036 56.0425 40.0952 56.2848 47.8556 56.2848C56.0798 56.2848 63.6855 56.0283 69.2668 55.5437C75.3542 55.0306 77.8566 54.3749 78.8407 53.7193C78.8126 53.477 78.7704 53.1634 78.7142 52.8356Z" fill="#2CA6DB"/>
    <path fill-rule="evenodd" clip-rule="evenodd" d="M85.6873 39.7372C85.5607 39.4379 85.3639 39.4236 85.153 39.6802C84.2533 40.7492 81.9898 43.5285 81.793 43.6995C81.2307 44.1841 80.7949 44.6687 80.1903 45.1106C77.7863 46.9064 66.1177 45.3101 65.5975 44.9395C65.3163 44.74 65.1336 44.8255 64.9367 45.1676C64.9086 45.2531 64.8946 45.3529 64.9649 45.4384C65.1476 45.6807 65.3163 45.7092 65.6115 45.7947C66.4972 46.0655 67.3829 46.1795 68.3108 46.094C68.8591 46.0513 69.5058 46.094 70.0541 46.1225C72.1347 46.2223 74.1873 46.5929 76.2539 46.7496C77.3927 46.8352 78.4892 46.8209 79.4593 46.0798C79.5155 46.037 79.5718 45.9657 79.6702 46.037C79.6139 46.7069 79.2906 47.4338 79.2906 48.1037C79.1219 48.7593 79.2765 49.3722 79.1922 50.0706C79.1219 50.6122 78.1237 54.774 78.8969 55.2872C79.0516 55.3869 79.2203 55.4724 79.403 55.558C84.1127 57.4393 86.6573 56.5272 84.3095 56.0711C82.1867 55.6577 79.8248 50.0278 80.5137 47.3483C80.6964 46.8779 84.1408 41.9892 85.1811 40.7634C85.392 40.5211 85.5326 40.5211 85.7294 40.7777C85.8981 41.02 86.0528 41.2908 86.4324 41.5046C86.1652 40.8204 85.9262 40.2788 85.6873 39.7372Z" fill="#7D890A"/>
    <path fill-rule="evenodd" clip-rule="evenodd" d="M89.8486 32.2972C89.8205 31.9693 90.2141 32.3684 90.5375 33.1523C91.0155 34.2926 91.4935 36.1312 91.6481 36.6871C91.8027 37.2429 92.0277 37.2999 92.6603 36.8581C93.2789 36.4163 93.1805 34.9482 93.1805 34.9482C93.1805 34.9482 94.0662 37.8273 93.293 38.2691C92.5197 38.6967 91.2123 39.2954 91.2123 39.2954C91.2123 39.2954 90.3547 47.2058 90.2282 49.1157C90.1017 51.0255 88.9067 57.3824 88.5693 57.9097C88.2319 58.4513 86.6011 58.3658 84.8297 57.7102C83.0583 57.0688 80.0216 55.786 79.9513 55.843C79.8811 55.9143 79.1219 55.5152 79.1219 55.5152L79.2906 53.1635C79.2906 53.1635 78.8969 55.2444 82.8474 55.843C85.5888 56.2564 87.543 56.1994 87.9647 54.546C88.3865 52.8927 89.0051 51.3534 89.1457 46.5644C89.2863 41.9892 90.7624 35.3045 89.9048 32.9528C89.7924 32.682 89.8767 32.625 89.8486 32.2972Z" fill="#7D890A"/>
    <path fill-rule="evenodd" clip-rule="evenodd" d="M59.3695 75.5834C60.199 75.9682 66.8628 76.8376 66.8628 76.8376C66.8628 76.8376 66.9331 76.0537 66.8206 77.6358C66.7222 79.2321 66.2442 79.1751 66.2442 79.1751C62.2094 78.9328 59.96 78.3769 59.2992 78.0349C59.2992 78.0349 58.9759 78.1061 59.0181 77.2224C59.0603 76.3245 59.1587 75.4694 59.3695 75.5834Z" fill="#3D2D2D"/>
    <path fill-rule="evenodd" clip-rule="evenodd" d="M66.1739 80.3438C65.7521 81.028 64.6274 82.325 62.7717 81.3415C62.6592 81.2845 62.4484 81.0707 62.1953 80.8142C62.1812 80.7999 62.1531 80.7999 62.1391 80.7857C61.9563 80.6859 61.5205 80.2013 61.0847 79.7737C60.93 79.6739 60.8035 79.6027 60.7192 79.6169C60.3396 79.731 59.5382 80.5861 58.7791 80.8569C57.5419 81.313 56.3329 82.2965 54.9692 82.3963C53.3384 82.5245 51.9747 82.9379 52.045 84.2634C52.8323 84.3774 54.9973 84.5057 55.8971 84.5342C57.5279 84.577 64.1073 83.679 66.1598 83.8073C66.3566 83.8216 66.5535 83.8358 66.7081 83.679C66.8206 83.3512 66.8628 82.9949 66.7925 82.6528C66.6378 81.8689 66.5253 81.0707 66.1739 80.3438Z" fill="#C6CED9"/>
    <path d="M7.50741 82.3107L5.75008 81.9402C5.7782 81.8119 8.36498 69.198 8.36498 60.4752C8.36498 48.631 5.5392 39.0815 4.61133 35.9316C4.30204 34.9054 4.23175 34.6489 4.23175 34.4066H6.03125C6.03125 34.3781 6.03125 34.3496 6.03125 34.321C6.04531 34.4351 6.19995 34.9339 6.34054 35.4043C7.28247 38.6112 10.1785 48.346 10.1785 60.461C10.1645 69.3833 7.61987 81.7834 7.50741 82.3107Z" fill="#874530"/>
    <path d="M31.4211 58.3087H10.0379L9.58807 62.2853H31.4211V58.3087Z" fill="#924B33"/>
    <path d="M31.646 66.7037H8.89917V68.5994H31.646V66.7037Z" fill="#874530"/>
    <path d="M31.5228 58.7351L29.4015 58.9972L32.1981 82.258L34.3194 81.9959L31.5228 58.7351Z" fill="#874530"/>
    <path d="M3.61316 85.3181L1.82772 84.9476C1.85584 84.8193 4.44262 72.2197 4.44262 63.4969C4.44262 51.6384 1.40596 41.0342 0.407801 37.5422C0.0844532 36.3878 0.0141602 36.1455 0.0141602 35.9032L1.15291 34.7914C1.06856 34.0788 1.74337 34.7914 1.74337 34.7629C1.77149 34.8912 1.99642 36.4733 2.16513 37.0291C3.17735 40.5781 6.27024 51.3819 6.27024 63.4969C6.25618 72.405 3.72563 84.805 3.61316 85.3181Z" fill="#924B33"/>
    <path d="M27.0347 61.2021H5.67975V65.307H27.0347V61.2021Z" fill="#924B33"/>
    <path d="M27.7377 69.7253H4.99091V71.621H27.7377V69.7253Z" fill="#924B33"/>
    <path d="M27.6139 61.3699L25.4921 61.6277L28.286 85.2611L30.4077 85.0033L27.6139 61.3699Z" fill="#924B33"/>
    <path d="M27.0911 61.3019L31.4211 58.3087L31.8007 62.1L27.5269 64.9221L27.0911 61.3019Z" fill="#6B392F"/>
    <path d="M6.08749 62.9409C5.82037 62.7841 5.89067 62.3138 6.01719 61.5156C6.14372 60.7032 9.51778 58.8646 10.3051 58.7078C11.0923 58.551 14.846 57.8954 20.2726 57.8241C25.6992 57.7528 31.154 58.4797 31.4211 58.8646C31.6882 59.2494 31.7866 59.9478 31.632 60.2899C31.4633 60.6177 28.2017 62.7271 27.4003 63.0122C26.599 63.2973 6.34054 63.112 6.08749 62.9409Z" fill="#6B392F"/>
    <path d="M6.08749 62.3851C5.82037 62.2283 5.89067 61.758 6.01719 60.9598C6.14372 60.1474 9.51778 58.3088 10.3051 58.152C11.0923 57.9952 14.846 57.3396 20.2726 57.2683C25.6992 57.197 31.154 57.9239 31.4211 58.3088C31.6882 58.6936 31.7866 59.392 31.632 59.7341C31.4633 60.0619 28.2017 62.1713 27.4003 62.4564C26.599 62.7414 6.34054 62.5419 6.08749 62.3851Z" fill="#77988F"/>
    <path d="M6.15777 60.9029C5.35643 61.0312 8.47744 58.4656 10.0661 58.1806C10.9377 58.0238 14.6773 57.3111 20.1039 57.2399C25.5305 57.1686 30.9571 57.8385 31.2243 58.2233C31.2805 58.2946 30.3667 58.5797 29.481 59.107C28.1314 59.9194 27.3581 60.9029 26.613 60.8316C13.2714 59.5916 8.44932 60.5466 6.15777 60.9029Z" fill="#9FC6C3"/>
    <path d="M0.73112 36.1312C0.534299 35.3758 0.970116 34.6061 1.71522 34.4208L6.0031 33.3091C6.7482 33.1096 7.50737 33.5656 7.71825 34.3211L9.3631 40.4926C9.55992 41.248 9.11005 41.9606 8.39306 42.2029L4.18954 43.671C3.47255 43.9275 2.7415 43.614 2.53062 42.8728L0.73112 36.1312Z" fill="#77988F"/>
    <path d="M0.168775 36.0314C-0.0421035 35.2617 0.42183 34.4778 1.18099 34.2783L5.58134 33.138C6.3405 32.9385 7.12778 33.4089 7.33866 34.1785L9.02569 40.5211C9.23657 41.2907 8.7867 42.1317 8.04159 42.3882L3.71154 43.8135C2.96644 44.0701 2.22133 43.728 2.01045 42.9583L0.168775 36.0314Z" fill="#924B33"/>
    <path d="M0.562419 36.06C0.365598 35.3046 0.801415 34.5349 1.54652 34.3497L5.8344 33.2379C6.5795 33.0526 7.33867 33.4945 7.54955 34.2499L9.1944 40.4214C9.39122 41.1768 8.96946 41.9892 8.23842 42.2458L4.03489 43.7138C3.31791 43.9704 2.55874 43.5571 2.36192 42.8159L0.562419 36.06Z" fill="#77988F"/>
    <path d="M6.98721 34.1928C7.16997 34.1643 8.14002 33.4374 8.2806 33.4231C7.35274 31.8696 1.39189 34.1786 1.39189 34.1786C0.604605 34.4636 0.44996 35.1478 0.506195 35.8176C0.927953 35.6039 1.81365 35.2903 2.13699 35.8604C2.48846 36.459 3.88026 34.7629 4.25984 34.7344C4.65348 34.6774 5.42671 34.4779 6.98721 34.1928Z" fill="#9FC6C3"/>
    <path d="M2.0948 35.6752C1.91204 34.934 2.36192 34.1786 3.09297 34.0076L7.07155 32.9956C7.8026 32.8246 8.56176 33.2807 8.74452 34.0218L10.2488 40.1364C10.4316 40.8775 9.99574 41.6757 9.27875 41.918L5.37046 43.2863C4.65347 43.5143 3.92242 43.101 3.73966 42.3598L2.0948 35.6752Z" fill="#698C81"/>
    <path d="M8.98356 41.6329C9.05385 41.5189 9.12414 41.3906 9.16632 41.248L8.92732 41.2908L8.23845 41.6899L7.01535 42.3028C7.01535 42.3028 6.50924 42.3028 6.34054 42.2743C6.17184 42.2458 3.93652 41.8467 3.9084 42.7019C3.89435 43.443 2.89618 43.2577 2.43225 42.9727C2.68531 43.614 3.37418 43.9419 4.04899 43.7138L6.931 42.7161L8.98356 41.6329Z" fill="#698C81"/>
    <path opacity="0.6" d="M28.4547 68.6137H30.5494L32.1943 82.2538L34.3031 81.9972L31.6741 60.1474C31.7163 59.9764 31.7163 59.7769 31.6741 59.5631C31.7585 59.1925 31.646 58.6366 31.4211 58.3088C31.3929 58.266 31.2805 58.209 31.1118 58.152C30.2823 57.7672 25.179 57.1686 20.0898 57.2398C19.6821 57.2398 19.2885 57.2541 18.9089 57.2683C15.5348 58.6224 13.3839 60.5323 20.6943 61.8578C31.2945 63.7819 26.599 62.9695 26.599 62.9695L29.3544 85.1329L30.4088 84.9761L28.4547 68.6137ZM27.9767 64.6229L29.9168 63.3544L30.3245 66.7181H28.2298L27.9767 64.6229Z" fill="#4D665E"/>
    </g>
    <defs>
    <radialGradient id="paint0_radial_40_392" cx="0" cy="0" r="1" gradientUnits="userSpaceOnUse" gradientTransform="translate(59.6456 6.73643) scale(1.21455 1.23133)">
    <stop stop-color="#B7BFCF"/>
    <stop offset="0.5506" stop-color="#AEB5C4"/>
    <stop offset="0.7548" stop-color="#AAB0BF"/>
    </radialGradient>
    <radialGradient id="paint1_radial_40_392" cx="0" cy="0" r="1" gradientUnits="userSpaceOnUse" gradientTransform="translate(34.3828 20.5968) scale(42.3491 42.9345)">
    <stop stop-color="#E0512D"/>
    <stop offset="1" stop-color="#BD1F13"/>
    </radialGradient>
    <radialGradient id="paint2_radial_40_392" cx="0" cy="0" r="1" gradientUnits="userSpaceOnUse" gradientTransform="translate(60.6281 11.4522) scale(12.8467 13.0242)">
    <stop stop-color="#B7BFCF"/>
    <stop offset="0.5506" stop-color="#AEB5C4"/>
    <stop offset="0.7548" stop-color="#AAB0BF"/>
    </radialGradient>
    <radialGradient id="paint3_radial_40_392" cx="0" cy="0" r="1" gradientUnits="userSpaceOnUse" gradientTransform="translate(55.3379 11.4522) scale(9.38688 9.51668)">
    <stop stop-color="#B7BFCF"/>
    <stop offset="0.5506" stop-color="#AEB5C4"/>
    <stop offset="0.7548" stop-color="#AAB0BF"/>
    </radialGradient>
    <linearGradient id="paint4_linear_40_392" x1="46.9525" y1="17.4516" x2="70.7828" y2="17.4516" gradientUnits="userSpaceOnUse">
    <stop stop-color="#84929D"/>
    <stop offset="0.0191689" stop-color="#929DAA"/>
    <stop offset="0.0500625" stop-color="#A4ABB9"/>
    <stop offset="0.0727547" stop-color="#AAB0BF"/>
    <stop offset="0.1101" stop-color="#ACB2C2"/>
    <stop offset="0.4488" stop-color="#BEC5D6"/>
    <stop offset="0.6734" stop-color="#C4CCDE"/>
    </linearGradient>
    <linearGradient id="paint5_linear_40_392" x1="17.7978" y1="52.7909" x2="78.2136" y2="52.7909" gradientUnits="userSpaceOnUse">
    <stop stop-color="#BF643C"/>
    <stop offset="0.1288" stop-color="#AE5C39"/>
    <stop offset="0.4318" stop-color="#8C4A34"/>
    <stop offset="0.6823" stop-color="#784030"/>
    <stop offset="0.8478" stop-color="#703C2F"/>
    <stop offset="0.8939" stop-color="#734034"/>
    <stop offset="0.946" stop-color="#7C4D41"/>
    <stop offset="0.9971" stop-color="#8A6156"/>
    </linearGradient>
    <radialGradient id="paint6_radial_40_392" cx="0" cy="0" r="1" gradientUnits="userSpaceOnUse" gradientTransform="translate(61.8532 37.4611) rotate(3.20812) scale(2.66246 2.69899)">
    <stop stop-color="#B7BFCF"/>
    <stop offset="0.5506" stop-color="#AEB5C4"/>
    <stop offset="0.7548" stop-color="#AAB0BF"/>
    </radialGradient>
    <radialGradient id="paint7_radial_40_392" cx="0" cy="0" r="1" gradientUnits="userSpaceOnUse" gradientTransform="translate(62.9376 40.0646) rotate(3.20794) scale(0.691463 0.700911)">
    <stop stop-color="#B7BFCF"/>
    <stop offset="0.5506" stop-color="#AEB5C4"/>
    <stop offset="0.7548" stop-color="#AAB0BF"/>
    </radialGradient>
    <clipPath id="clip0_40_392">
    <rect width="107" height="87" fill="white" transform="translate(0.00012207)"/>
    </clipPath>
    </defs>
    </svg>
    