<svg width="115" height="98" viewBox="0 0 115 98" fill="none" xmlns="http://www.w3.org/2000/svg">
    <g clip-path="url(#clip0_40_381)">
    <path fill-rule="evenodd" clip-rule="evenodd" d="M52.8372 57.9833C52.8372 58.0257 52.8372 58.1105 52.8372 58.1529L52.7949 58.2801C52.7103 58.5769 52.668 58.8313 52.6257 59.0857C52.4142 60.1456 52.2027 61.248 52.0335 62.3503C51.8643 63.4527 51.695 64.5126 51.5681 65.6574C51.4835 66.1237 51.4412 66.6325 51.3989 67.1413V67.2261C51.3989 67.3109 51.3566 67.3533 51.3566 67.3957L51.3143 67.4805C50.9336 68.286 50.4682 69.0916 49.9183 69.8124C49.6645 70.1516 49.4106 70.4907 49.1145 70.8299C49.0722 70.9147 49.0299 70.9571 48.9876 71.0419C48.6915 71.5507 48.3954 72.0171 48.0569 72.5258C47.4224 73.4162 46.7878 74.3066 46.1956 75.2393C45.0111 76.9776 43.8689 78.7584 42.5152 80.3695C41.4999 81.6414 40.3577 82.7862 39.0886 83.7613C38.4117 84.2701 37.6925 84.7365 36.8888 85.0333C36.4657 85.2029 36.085 85.2877 35.6197 85.3725C35.4082 85.4149 35.2389 85.4149 35.0274 85.4573C35.0274 85.7116 35.0697 85.966 35.112 86.178C35.1966 86.6444 35.2812 87.1532 35.4082 87.6196C35.662 88.5947 36.0427 89.4851 36.4657 90.3754C36.9311 91.2658 37.481 92.0714 38.1156 92.8345C38.7501 93.5977 39.5116 94.276 40.2731 94.8696C40.4 94.9968 40.5269 95.0816 40.6961 95.2088L40.9499 95.4208C41.1191 95.548 41.2037 95.76 41.1191 95.972L41.0345 96.3112C40.9922 96.4384 40.9499 96.6079 40.9076 96.7351C40.6961 97.6255 40.4 98.5159 40.1039 99.4062C39.8077 100.169 39.5116 100.89 39.3001 101.653C39.2155 101.992 39.1309 102.332 39.0886 102.671C39.0463 102.84 39.0463 103.01 39.0463 103.18C39.0463 103.222 39.0463 103.222 39.0463 103.222V103.307C39.0463 103.349 39.0463 103.392 39.0463 103.434V103.519C39.0463 103.646 39.004 103.773 39.004 103.9C39.004 104.282 39.1309 104.706 39.3424 105.045C39.8077 105.893 40.4423 106.614 41.1191 107.292C41.8383 108.013 42.6421 108.649 43.4881 109.243C43.9112 109.582 44.3765 109.879 44.7996 110.26C45.2226 110.642 45.6456 111.066 46.0687 111.532C46.3648 111.871 46.6609 112.168 46.957 112.507C47.0839 112.677 47.2532 112.846 47.4224 113.016C47.4647 113.058 47.5493 113.101 47.5493 113.101L47.6339 113.143C47.7185 113.186 47.7608 113.228 47.8031 113.313L47.8877 113.398C48.0146 113.567 48.1838 113.779 48.3107 113.949C48.9876 114.754 49.7491 115.56 50.5105 116.281C51.3566 117.044 52.3296 117.637 53.218 118.316C54.191 119.079 55.0793 119.884 56.01 120.605C56.3907 120.902 56.8561 121.199 57.2368 121.496C57.6598 121.835 58.0829 122.174 58.4636 122.513C58.8866 122.852 59.2674 123.234 59.6481 123.616C59.6904 123.658 59.775 123.7 59.8173 123.743L59.9865 123.912C60.1135 124.039 60.1558 124.167 60.1558 124.336V124.591C60.1558 124.93 60.1558 125.227 60.1558 125.523C60.1558 126.795 60.2404 128.025 60.2827 129.254C60.2827 129.89 60.325 130.526 60.325 131.205C60.325 131.841 60.2404 132.477 60.1981 133.113C60.1135 134.385 60.0288 135.614 59.9019 136.844C59.775 138.031 59.6904 139.26 59.5212 140.405C59.4366 140.956 59.3097 141.55 59.1828 142.101C59.0982 142.398 59.0136 142.695 58.929 142.991V143.034V143.076V143.119C58.8867 143.246 58.802 143.373 58.7597 143.458C58.6328 143.755 58.4213 143.967 58.2521 144.221C57.6175 145.154 56.8561 146.044 56.2215 146.977C55.3331 148.291 54.6986 149.818 53.9371 151.217C53.7256 151.598 53.5141 151.98 53.2603 152.319C53.1757 152.404 53.1334 152.489 53.0911 152.573C53.0911 152.616 53.0488 152.616 53.0065 152.658L52.9641 152.701C52.9641 152.701 52.9641 152.743 52.9218 152.743C52.7949 152.913 52.6257 153.082 52.4565 153.294C52.3296 153.464 52.1604 153.591 51.9912 153.761C51.9066 153.845 51.8219 153.888 51.7796 153.973C51.7796 153.973 51.7373 153.973 51.7373 154.015C51.7373 154.015 51.695 154.015 51.695 154.057H51.6527C51.5681 154.1 51.5258 154.142 51.4835 154.185C51.3143 154.312 51.1028 154.439 50.8913 154.524C50.8067 154.566 50.7221 154.608 50.6374 154.651C50.5951 154.693 50.5951 154.693 50.5528 154.693L50.4682 154.736C50.4259 154.736 50.3413 154.778 50.299 154.778C49.9183 154.905 49.4953 155.032 49.1145 155.202C48.903 155.329 48.7338 155.456 48.5646 155.668C48.4377 155.88 48.3531 156.22 48.3531 156.474C48.3531 156.644 48.3531 156.856 48.4377 157.025C48.5646 157.025 48.6492 157.068 48.7338 157.152L48.903 157.28C48.903 157.28 48.903 157.28 48.9453 157.322C49.1991 157.449 49.4529 157.534 49.7068 157.576C50.3836 157.704 51.0605 157.704 51.7373 157.746C53.9371 157.831 56.1792 157.364 58.2521 156.644C58.6751 156.516 59.0982 156.304 59.4789 156.092C59.6058 156.05 60.0288 155.838 60.0711 155.753V155.711C60.0711 155.668 60.1135 155.668 60.1135 155.668L60.1558 155.626C60.2404 155.499 60.325 155.329 60.3673 155.202C60.5365 154.82 60.6634 154.396 60.748 153.973C60.8749 153.506 60.9595 153.04 61.0864 152.573C61.0864 152.531 61.1287 152.489 61.1287 152.446L61.8056 150.581C61.8902 150.369 62.1017 150.241 62.3555 150.241C62.6094 150.284 62.7786 150.453 62.8209 150.708L63.117 152.701C63.1593 152.913 63.1593 153.125 63.2016 153.294C63.2862 153.888 63.3708 154.481 63.4554 155.075C63.4977 155.372 63.54 155.668 63.5823 155.923C63.5823 155.965 63.5823 156.05 63.6246 156.092L63.7516 156.22C63.7939 156.262 63.9631 156.262 64.0054 156.262C64.2169 156.304 64.3861 156.304 64.5976 156.262V156.22C64.6399 156.135 64.6822 156.092 64.7245 156.008C64.7245 155.923 64.7245 155.796 64.7245 155.753C64.7245 155.456 64.6822 155.16 64.6399 154.82C64.5553 154.227 64.513 153.591 64.4707 152.955C64.3861 151.725 64.3861 150.496 64.5976 149.266C64.7668 148.122 64.9784 146.977 65.1476 145.832C65.2322 145.366 65.3168 144.815 65.2745 144.348C65.2322 143.839 65.1053 143.373 64.9361 142.864C64.8092 142.525 64.7245 142.143 64.5976 141.762C64.5976 141.719 64.5976 141.677 64.5553 141.635L64.513 141.55C64.513 141.507 64.4707 141.423 64.4707 141.38V141.296C64.4707 140.787 64.4707 140.278 64.4707 139.769C64.513 139.091 64.5553 138.455 64.6399 137.776L64.8938 135.784C64.9361 135.529 65.1053 135.36 65.3591 135.317C65.6129 135.275 65.8244 135.445 65.909 135.657L66.6282 137.564C66.6705 137.692 66.7551 137.861 66.7974 138.031C67.0512 138.624 67.7704 139.939 68.5742 139.727C69.2087 139.6 69.6318 138.412 69.8433 137.861C70.224 136.801 70.4355 135.657 70.6047 134.554C70.647 134.13 70.6893 133.749 70.7317 133.325C70.774 132.731 70.6893 132.095 70.6047 131.502C70.4355 130.526 70.224 129.551 69.8856 128.576C69.7164 128.067 69.5472 127.559 69.3779 127.05C69.2933 126.795 69.2087 126.583 69.1241 126.371C69.0395 126.202 68.9549 126.032 68.8703 125.863L68.828 125.778C68.7857 125.735 68.7857 125.651 68.7434 125.608C68.6588 125.481 68.4896 125.354 68.3627 125.269C68.1934 125.142 68.0242 125.057 67.8127 124.93L67.4743 124.76C67.2628 124.633 67.1358 124.421 67.1782 124.209L67.2205 123.87L67.3051 123.107C67.3474 122.937 67.432 122.768 67.6012 122.725C67.7704 122.64 67.9396 122.64 68.1088 122.725L68.7857 123.107C68.828 123.107 68.828 123.149 68.8703 123.149C69.0818 123.276 69.3356 123.319 69.5471 123.404C70.0971 123.573 70.647 123.7 71.197 123.827C71.2393 123.827 71.2816 123.827 71.3239 123.87C71.4085 123.7 71.4508 123.488 71.4931 123.319C71.4931 123.234 71.5354 123.107 71.5354 122.98C71.5354 122.937 71.4931 122.937 71.4508 122.895L71.3239 122.768C71.2393 122.683 70.9855 122.598 70.9009 122.556C70.5624 122.386 70.1817 122.259 69.8433 122.132C69.4625 121.962 69.0818 121.792 68.7011 121.58C68.5319 121.496 68.405 121.411 68.2357 121.368L67.8973 121.199C67.6858 121.072 67.5589 120.86 67.6012 120.648L67.6435 120.308C67.6858 119.715 67.7281 119.164 67.7281 118.57C67.7704 117.383 67.6858 116.196 67.5589 115.051C67.4743 114.118 67.3474 113.228 67.2205 112.295C67.1781 112.126 67.1782 111.956 67.1358 111.786V111.702C67.1358 111.617 67.1358 111.574 67.1358 111.49L67.1782 111.405C67.3051 110.769 67.4743 110.175 67.6012 109.539C68.0242 107.589 68.4896 105.639 69.0395 103.731C69.4202 102.459 69.8856 101.187 70.4355 99.9574C70.4778 99.8726 70.4778 99.8302 70.5201 99.7878L70.6047 99.6182C70.647 99.491 70.7317 99.4062 70.8586 99.3638L71.0278 99.279C73.2699 98.3463 75.385 97.1167 77.331 95.7176C78.4732 94.912 79.7 94.1065 80.7576 93.1313C81.646 92.3257 82.7459 91.2234 82.9151 89.9514C82.9574 89.6123 82.8728 89.2731 82.619 88.9763C82.4921 88.8915 82.2805 88.6795 82.1536 88.6371C82.069 88.5947 82.0267 88.5947 81.9421 88.5523H81.8998L81.8152 88.5099L81.6883 88.4675C81.5614 88.4251 81.4768 88.3827 81.4345 88.2979L81.3922 88.2555L78.6001 86.39C78.3463 86.2204 78.2617 85.9236 78.3886 85.7116C78.5155 85.4573 78.7693 85.3725 79.0232 85.4573C78.5578 84.8637 78.1348 84.2701 77.7117 83.6765C77.0772 82.7438 76.5272 81.7686 76.1042 80.7087C75.6389 79.5639 75.3004 78.3768 74.962 77.1896C74.3275 74.9001 73.8621 72.5258 73.143 70.2787C72.8045 69.2188 72.4238 68.1588 71.9585 67.1413C71.4931 66.1661 70.9855 65.191 70.4778 64.2582C70.1394 63.5799 69.7587 62.9015 69.4202 62.2231C69.3779 62.1383 69.3779 62.0959 69.3356 62.0535C69.3356 62.0111 69.2933 61.9687 69.2933 61.9263C69.2087 61.6295 69.0818 61.3752 68.9549 61.1208C68.7434 60.5272 68.4473 59.976 68.1934 59.3824C67.9396 58.8313 67.6858 58.2801 67.432 57.7289C67.1781 57.2201 66.9243 56.7114 66.7551 56.1602C66.3744 55.1002 66.1629 53.9979 66.1206 52.8531C66.1206 52.302 66.1206 51.7508 66.1629 51.242C66.2052 50.6908 66.3321 50.1397 66.459 49.6309L66.7974 48.4014C66.882 48.1894 67.0512 48.0622 67.2628 48.0198C67.4743 47.9774 67.6858 48.1046 67.8127 48.3166L68.405 49.4613C68.7011 49.9701 68.9972 50.4789 69.2933 50.9876C69.8856 51.878 70.5201 52.7684 71.197 53.6163C71.5354 53.9979 71.8315 54.4219 72.2123 54.7611C72.5084 55.0578 72.8468 55.397 73.2276 55.609H73.3122C73.4391 55.609 73.5237 55.6514 73.6506 55.7362L73.7775 55.8634C73.8198 55.9058 73.8621 55.9058 73.9044 55.9058C74.2005 55.9058 74.5813 55.7362 74.8351 55.5666C75.2581 55.3546 75.5966 55.0154 75.8927 54.6763L76.7388 53.6587C76.8657 53.4891 77.1195 53.4467 77.331 53.5315C77.5425 53.6163 77.6694 53.7859 77.7117 54.0403L77.7963 55.397C77.881 57.1354 77.9656 58.8737 78.0079 60.5696C78.0502 61.7567 78.0502 62.9439 78.0925 64.131C78.0925 64.6822 78.0925 65.2334 78.1348 65.827C78.1348 66.0813 78.1771 66.3781 78.2194 66.6325C78.2194 66.6749 78.2617 66.7597 78.2617 66.8021L78.5155 67.0565C78.6001 67.1413 78.6847 67.1837 78.8116 67.2261C79.3193 67.4805 79.8269 67.7349 80.2923 67.9893C80.7999 68.286 81.3075 68.5828 81.8152 68.8796C82.7459 69.4308 83.6766 69.982 84.6495 70.3635C84.6495 70.3635 84.6918 70.3635 84.6918 70.4059H84.7341L84.8187 70.4483H84.8611L84.9034 70.4907C84.988 70.5331 85.0726 70.5755 85.1995 70.6179C85.3687 70.7027 85.5802 70.7875 85.7917 70.8723C85.834 70.8723 85.9186 70.9147 86.0033 70.9147C86.0879 70.7875 86.2148 70.6603 86.3417 70.6179L86.5955 70.5331C86.807 70.4907 87.0185 70.3635 87.2301 70.2787C87.78 70.0244 88.2876 69.6852 88.7953 69.346C89.2183 69.0492 89.6837 68.7524 90.1067 68.4556C90.8259 67.9469 91.5873 67.4805 92.3488 67.0141C94.464 65.6574 96.5368 64.3006 98.6097 62.9439C99.625 62.3079 100.64 61.6719 101.698 61.0784C102.163 60.824 102.629 60.5272 103.094 60.2728C103.221 60.188 103.348 60.1032 103.475 60.0184C103.475 60.0184 103.475 60.0184 103.517 60.0184C103.602 60.0184 103.644 60.0184 103.686 60.0184C103.728 60.0184 103.813 60.0184 103.855 60.0184C103.94 60.0608 103.982 59.9336 103.94 59.8912C103.898 59.8488 103.855 59.8064 103.813 59.8064C103.94 59.6792 104.151 59.552 104.236 59.4248C104.236 59.4248 104.278 59.3824 104.278 59.34V59.2977C104.278 59.2553 104.321 59.2553 104.321 59.2129L104.363 59.1705C104.405 59.0857 104.448 58.9585 104.448 58.8313C104.49 58.4073 104.321 57.8561 104.194 57.4321C104.194 57.3473 104.151 57.3049 104.109 57.2201L103.982 56.881C103.898 56.669 103.982 56.457 104.109 56.2874L104.363 56.0754C104.448 56.033 104.49 55.9906 104.532 55.9482C104.701 55.7786 104.913 55.609 105.082 55.397C105.463 55.0154 105.801 54.5915 106.14 54.1675C106.901 53.2347 107.663 52.3444 108.509 51.454C110.201 49.6309 111.893 47.8078 113.585 45.9847C114.093 45.3911 114.6 44.8399 115.15 44.2463L115.193 44.2887C115.32 44.3311 115.362 44.1615 115.32 44.0767L115.404 43.992C115.785 43.6104 116.166 43.2288 116.504 42.8472C116.927 42.4232 117.308 41.9568 117.646 41.4481C117.773 41.2785 117.9 41.0665 117.985 40.8545L118.112 40.6001C118.196 40.4305 118.281 40.3457 118.45 40.3033C118.45 40.2185 118.45 40.1337 118.408 40.0913C118.365 39.8793 118.323 39.7097 118.281 39.4978C118.239 39.413 118.239 39.2858 118.196 39.201V39.1162V39.0738L118.154 38.9466C118.154 38.9042 118.154 38.9042 118.154 38.8618C117.9 37.8442 117.519 36.8267 117.139 35.8091C116.927 35.258 116.716 34.7068 116.546 34.1556C116.377 33.6468 116.208 33.0957 116.039 32.5869C115.996 32.4597 115.954 32.3749 115.912 32.2477L115.743 31.9509C115.7 31.9085 115.616 31.9085 115.573 31.8661C115.32 31.7813 115.066 31.7389 114.812 31.6541C114.262 31.5269 113.712 31.3997 113.162 31.3149C111.978 31.1029 110.793 30.891 109.651 30.6366C107.324 30.1702 104.998 29.619 102.671 29.1102C101.486 28.8558 100.26 28.6015 99.0751 28.3895C98.652 28.3047 98.1867 28.2623 97.7636 28.1351C97.4675 28.0503 97.1714 27.9655 96.833 27.8807C96.6215 27.8383 96.4099 27.7535 96.1984 27.7111L96.1561 27.7535L95.4793 28.2199L95.1831 28.4319C95.0139 28.5591 94.7601 28.5591 94.5909 28.4319L94.464 28.3471L93.8717 28.1775C93.8294 28.2623 93.7448 28.3047 93.7025 28.3471C93.4487 28.6015 93.1526 28.8558 92.8987 29.1526C92.8564 29.195 92.8141 29.2374 92.7718 29.2798L93.0679 29.4918C92.8987 29.6614 92.6872 29.7038 92.4757 29.619L92.1373 29.4918C92.0527 29.4494 91.9681 29.4494 91.8834 29.407C91.4181 29.2374 90.9951 29.0678 90.5297 28.983C89.726 28.7711 88.9222 28.6439 88.1184 28.6015C87.9492 28.6015 87.78 28.6015 87.6108 28.5591H87.5262C87.4839 28.5591 87.3993 28.5591 87.357 28.5167H87.2724C87.2301 28.5167 87.2301 28.5167 87.1878 28.5167C87.1878 28.5167 87.1878 28.5167 87.1454 28.5167L86.6378 28.6439C86.5109 28.6863 86.3417 28.6439 86.2148 28.5591C86.0879 28.4743 86.0033 28.3471 85.9609 28.2199L85.834 27.7111C85.7917 27.5839 85.7494 27.4567 85.7071 27.3719C85.6225 27.2447 85.4956 27.1175 85.3687 27.0327C85.2841 26.9903 85.1572 26.9479 85.0303 26.9479C84.9457 26.9479 84.8187 26.9903 84.7341 27.0327L84.3957 27.2023C84.1842 27.3295 83.9304 27.2871 83.7612 27.1175L83.5073 26.8631C83.465 26.8631 83.4227 26.8207 83.4227 26.8207C83.3381 26.7783 83.2112 26.6935 83.0843 26.6935C82.9151 26.6511 82.7882 26.6935 82.7036 26.8207C82.4921 27.0327 82.3228 27.4991 82.1959 27.7535C82.1536 27.8807 82.069 28.0079 82.0267 28.1775L81.8575 28.5591C81.7729 28.8134 81.5191 28.9406 81.2653 28.8982L80.8422 28.7711C80.5038 28.6863 80.0807 28.7287 79.7846 28.7711C79.4039 28.8558 78.9809 28.983 78.6847 29.2374C78.2617 29.5766 78.0079 30.2126 77.7541 30.679C77.5425 31.1877 77.8387 32.2477 77.6271 33.1804C77.1195 35.046 76.1042 37.1235 75.8927 38.0138C75.5966 39.201 75.3004 40.4305 75.0466 41.6177C75.0043 41.7449 74.962 41.9144 74.9197 42.084L74.539 43.568C74.4967 43.78 74.2852 43.9496 74.0736 43.9496C73.8621 43.9496 73.6506 43.8224 73.5237 43.6104L72.8891 42.1688C72.8045 41.9568 72.7199 41.7873 72.6353 41.5753C72.5084 41.2361 72.3815 40.9393 72.2546 40.6001C72.2123 40.4729 72.17 40.3881 72.1277 40.2609L72.0431 40.0913C72.0008 39.9641 72.0008 39.8369 72.0431 39.7097L72.1277 39.5402C72.17 39.413 72.2123 39.2434 72.2123 39.1162C72.2969 38.6074 72.3392 38.141 72.4238 37.6322C72.4661 37.4203 72.5084 37.2507 72.5084 37.0387C72.7199 37.3355 73.0584 37.5898 73.6506 37.7594C73.6506 37.7594 73.016 36.4027 73.6929 34.4948C74.4121 32.5869 77.2464 29.6614 75.385 27.2447C75.3427 27.1599 75.2581 27.1175 75.2158 27.0327C75.3004 27.0327 75.385 27.0327 75.4697 27.0327C75.3427 26.9903 75.2158 26.9479 75.0889 26.8631C74.3275 26.1 73.2699 25.5064 73.3968 25.3792C73.566 25.2096 74.5813 25.8456 75.8081 25.2096C78.9809 23.5985 77.5425 20.3338 77.5425 20.3338C78.2617 21.3938 73.1853 27.2023 70.4778 17.7052C70.4778 17.2388 70.5201 16.7724 70.5201 16.306C70.5201 15.5853 70.5624 14.8645 70.5624 14.1861V14.1437C70.5624 14.1013 70.5624 14.0589 70.5624 14.0165V13.9741C70.647 13.6773 70.6894 13.3806 70.6894 13.0838C70.7317 12.5326 70.774 12.0238 70.8163 11.515C70.9009 10.4975 70.9009 9.52233 70.7317 8.50478C70.6047 7.52962 70.3509 6.59687 69.8856 5.74891C69.7587 5.49452 69.5895 5.24013 69.4202 4.98574C68.7011 3.7138 67.6435 2.39946 66.459 2.61145C66.2475 2.52665 66.036 2.39946 65.8667 2.31466C64.7668 1.29711 62.5248 0.406751 60.6211 0.830731C60.4942 0.830731 60.0711 0.957926 59.6481 1.08512C58.7174 1.21231 57.7868 1.4243 56.8984 1.72109C56.3484 1.89068 55.8408 2.10267 55.3331 2.35706C55.0793 2.48426 54.7832 2.61145 54.5294 2.78104C54.4448 2.82344 54.3602 2.90824 54.2333 2.95063C54.1909 2.99303 54.1486 3.07783 54.064 3.07783L53.9794 3.12023C53.7256 3.28982 53.4718 3.45941 53.218 3.629C52.8795 3.88339 52.5834 4.13778 52.3296 4.43457C52.0335 4.73135 51.8219 5.11294 51.6104 5.45212C51.272 6.08809 50.9759 6.93605 51.0182 7.69922C51.0605 8.1656 51.1451 8.63197 51.3143 9.09835L51.3989 9.31034C51.4412 9.43754 51.4412 9.60713 51.3566 9.73432L51.272 9.94631C51.2297 10.0311 51.1874 10.1159 51.1874 10.2431C51.1451 10.4975 51.1874 10.7519 51.272 10.9639C51.4835 11.5574 51.6527 12.1086 51.6104 12.7446C51.3989 14.9493 49.2414 16.306 51.0182 16.5604C51.1451 16.7724 51.1451 16.8996 51.1874 17.154L51.2297 17.2812C51.2297 17.366 51.2297 17.4084 51.2297 17.4932L51.1874 17.6204C51.1874 17.6628 51.1874 17.7052 51.1451 17.7476C51.1028 17.8324 51.0182 18.0867 51.0182 18.2139C51.0182 18.2139 51.0605 18.2139 51.0605 18.2563C51.1028 18.2987 51.1451 18.3411 51.1874 18.3835L51.6527 18.7227C51.7796 18.8075 51.8643 18.9347 51.8643 19.1043C51.9066 19.2739 51.8643 19.4011 51.7373 19.5283L51.4835 19.8675L51.5258 19.9099L51.8219 20.0794C51.9912 20.2066 52.0758 20.4186 52.0335 20.6306L51.9912 20.9698C51.9489 21.2242 51.9066 21.4786 51.9489 21.733C51.9912 21.945 52.0758 22.157 52.245 22.2841C52.4565 22.4537 52.7103 22.4961 52.9641 22.4961C53.4718 22.4961 53.9794 22.3265 54.4448 22.2841C54.9524 22.2841 55.5024 22.1994 56.01 22.1994C56.0523 22.1994 56.1369 22.1994 56.1792 22.1994L56.6023 22.2418C58.802 22.6233 59.6481 23.8105 59.9442 25.04C58.7597 27.0751 56.3484 30.9757 55.7562 31.6541C54.9947 32.5445 54.1909 33.3924 53.3872 34.198C52.8795 34.7068 52.3719 35.2156 51.9066 35.7667C51.5681 36.1059 51.2297 36.4451 50.9336 36.8267L50.8913 36.9115C50.849 36.9539 50.849 36.9963 50.8067 36.9963L50.7644 37.0387C50.5528 37.2083 50.299 37.4203 50.1298 37.6322C49.6222 38.2258 49.3683 39.1162 49.2414 39.9217C49.1145 40.8121 49.1145 41.7449 49.3683 42.5928C49.5799 43.4832 50.0875 44.3311 50.5951 45.0519C50.7221 45.2215 50.849 45.3911 50.9759 45.6031C50.849 45.5183 50.7644 45.4335 50.6798 45.3487C49.876 44.7127 49.1991 43.9496 48.5646 43.1016C47.93 42.1688 47.2955 41.2361 46.6186 40.3033C45.9417 39.3706 45.2649 38.3954 44.6303 37.4203C43.9958 36.4451 43.3612 35.4275 42.8959 34.3676C42.8536 34.2828 42.8536 34.2404 42.8113 34.198C42.6844 34.0708 42.6421 33.9436 42.6421 33.8164C42.5998 33.6892 42.5575 33.6044 42.5152 33.5196C42.3459 33.1381 42.1767 32.7565 42.0075 32.4173C41.6691 31.7813 41.2884 31.1029 40.7807 30.5518C40.5692 30.2974 40.3154 30.0854 40.0192 29.9582L39.8923 29.8734C39.8077 29.831 39.7654 29.7886 39.6808 29.7038L39.5962 29.5766C39.5116 29.4918 39.3847 29.4494 39.3001 29.3646C39.004 29.195 38.6655 29.1102 38.3271 29.0678C37.9464 29.0254 37.5656 28.983 37.1849 28.983C36.9311 29.0254 36.7196 29.0254 36.4657 29.0678C36.2965 29.0678 36.1273 29.1102 36.0004 29.1102L35.6197 29.1526C35.4082 29.195 35.1966 29.0678 35.0697 28.8558L34.9005 28.5167C34.7736 28.2623 34.1814 28.0927 33.8852 28.0927C33.5468 28.0503 33.2084 28.1351 32.8699 28.2199C32.6584 28.3047 32.4046 28.3895 32.1931 28.5167C32.1931 28.5167 32.1931 28.5167 32.1508 28.5167L31.897 28.6863C31.7277 28.8134 31.5162 28.8134 31.347 28.6863L31.0932 28.5167C30.5432 28.1775 29.951 27.8807 29.3587 27.6687C28.9357 27.4991 28.4704 27.3295 28.005 27.2023C27.9204 27.1599 27.8358 27.1599 27.7512 27.1175L27.4128 27.0327C27.2013 26.9903 27.032 26.8207 26.9897 26.6087L26.9474 26.2696C26.9474 26.2272 26.9051 26.1848 26.9051 26.1424C26.8205 25.7608 26.7782 25.3792 26.6936 24.9976C26.6936 24.9128 26.6936 24.8704 26.6513 24.7856L26.0591 24.5312H25.9321C25.7206 24.5312 25.5091 24.4041 25.4245 24.1921L24.9592 23.0049C24.9592 22.9625 24.9169 22.9625 24.9169 22.9201C24.7477 22.8353 24.5361 22.7505 24.3669 22.7081C24.0708 22.5809 23.7747 22.4961 23.4785 22.3689C23.0555 22.1994 22.6748 21.9874 22.2517 21.7754C21.1518 21.2242 20.052 20.7154 18.9098 20.1642C16.7523 19.1467 14.5525 18.1715 12.395 17.154C11.2951 16.6452 10.2375 16.094 9.17993 15.5853C8.67229 15.3309 8.16464 15.0765 7.657 14.8645C7.40318 14.7373 7.14936 14.6525 6.89553 14.5677C6.85323 14.5677 6.76862 14.5253 6.72632 14.5253L6.59941 14.6525C6.5148 14.6949 6.38789 14.7797 6.30328 14.8221C5.88025 15.1613 5.45721 15.5005 4.99187 15.8396C4.52653 16.1788 4.06119 16.4756 3.59585 16.7724C2.70748 17.366 1.86141 17.9595 1.05764 18.6379L1.01533 18.6803L0.973031 18.7227L0.930727 18.7651C0.930727 18.7651 0.888424 18.7651 0.888424 18.8075L0.84612 18.8499C0.761513 18.9347 0.71921 18.9771 0.634602 19.0619C0.465388 19.1891 0.296174 19.3163 0.169263 19.4435C0.126959 19.4859 0.0846557 19.5283 0.0423521 19.6131C0.169263 19.7403 0.169263 19.9099 0.169263 20.0794L0.126959 20.3338C4.84772e-05 20.5458 0.0423521 20.8002 0.0423521 21.0122C0.0423521 21.6058 0.126959 22.2417 0.211566 22.8353C0.296174 23.3865 0.380781 23.8953 0.465388 24.4041C0.634602 25.2944 0.71921 26.1848 0.803817 27.0751C1.14225 29.5766 1.52298 32.0781 1.86141 34.5796C2.03062 35.8091 2.15753 36.9963 2.24214 38.2258C2.28444 38.777 2.32675 39.3282 2.41135 39.8793C2.45366 40.1337 2.49596 40.3881 2.53826 40.6849C2.58057 40.8545 2.62287 41.1089 2.70748 41.2785C2.70748 41.3209 2.74978 41.3209 2.74978 41.3633L2.79209 41.4057C2.83439 41.4057 2.83439 41.4481 2.83439 41.4905L2.87669 41.5329C2.919 41.6601 3.0036 41.7025 3.13051 41.7873C3.51125 42.0416 4.06119 42.1264 4.48423 42.2112C5.75334 42.4232 7.06475 42.4656 8.33386 42.4656C9.01071 42.4656 9.68757 42.508 10.4067 42.5504C11.6335 42.5928 12.818 42.5928 14.0448 42.5928C14.5948 42.5928 15.1447 42.5928 15.6524 42.5928H16.8792C17.0907 42.5928 17.3022 42.72 17.3868 42.932C17.4714 43.144 17.4714 43.356 17.3022 43.5256L16.4984 44.4159C15.6947 45.2215 14.9332 46.0695 14.1294 46.9174C13.3257 47.7654 12.4796 48.5709 11.6335 49.4189C11.2528 49.8005 10.8298 50.2245 10.4913 50.6061C10.3221 50.7756 10.1529 50.9876 9.9837 51.1996C9.94139 51.242 9.89909 51.2844 9.89909 51.3268L9.94139 51.666C9.77218 51.6236 9.81448 51.8356 10.0683 52.1324C10.2375 52.6412 10.4067 53.1075 10.5759 53.6163C10.6182 53.7859 10.7029 53.9979 10.7452 54.1675C10.4067 53.7859 10.2798 53.6587 10.7452 54.1675C10.8721 54.5491 10.9567 54.9307 11.0413 55.2698C11.3374 56.2874 11.6335 57.3473 12.0566 58.3225V58.3649L12.0989 58.4073L12.1412 58.4921L12.1835 58.5769C12.1835 58.5769 12.1835 58.5769 12.1835 58.6193C12.2258 58.7041 12.2681 58.8313 12.3104 58.9161C12.395 59.0857 12.4373 59.2977 12.5642 59.5096C12.6065 59.552 12.6488 59.6368 12.6911 59.6792C12.8603 59.6368 13.0296 59.6368 13.1565 59.7216L13.368 59.8488C13.5372 59.976 13.791 60.0608 14.0025 60.1456C14.5948 60.3576 15.187 60.4848 15.7793 60.6544L15.9908 60.6968L16.0331 60.7816C16.3292 61.1208 17.133 61.4176 16.9215 61.2056C16.7946 61.0784 16.71 60.9512 16.5831 60.824C16.8369 60.8664 17.0907 60.9512 17.3445 60.9512C18.2329 61.1208 19.079 61.3752 19.9673 61.5448C22.421 62.0959 24.9169 62.6471 27.3705 63.1983C28.555 63.4527 29.7395 63.7494 30.924 64.131C31.4316 64.3006 31.9816 64.4702 32.4892 64.555C32.743 64.5974 33.0392 64.6398 33.293 64.6822C33.5045 64.7246 33.716 64.767 33.9275 64.7246C33.9275 64.7246 33.9698 64.7246 34.0121 64.7246H34.0544C34.0967 64.7246 34.0967 64.7246 34.139 64.6822H34.1814C34.3083 64.6398 34.3929 64.5974 34.4775 64.5126C34.8159 64.2158 35.0697 63.7918 35.2812 63.3679C35.8735 62.2655 36.2965 61.036 36.7196 59.8064C36.9311 59.1705 37.1849 58.5345 37.3964 57.8985C37.8195 56.7538 38.2002 55.609 38.5386 54.4643C39.3001 52.1324 39.9769 49.8005 40.6961 47.511C40.9499 46.7478 41.1614 46.0271 41.3307 45.2639C41.373 45.0095 41.4576 44.7551 41.4576 44.5431V44.5007C41.4576 44.4583 41.4576 44.4159 41.4999 44.4159V44.3735C41.4999 44.3311 41.5422 44.3311 41.5422 44.2887C41.5845 44.0767 41.5845 43.8648 41.5845 43.6528C41.5845 43.2288 41.4999 42.7624 41.4153 42.3384C41.373 42.1688 41.3307 42.0416 41.2884 41.872L41.2461 41.7449L41.2037 41.6177C41.1191 41.4905 41.0768 41.3633 40.9922 41.2361C40.8653 41.0665 40.7384 40.8545 40.6115 40.7273L40.4846 40.6001C40.4423 40.5577 40.4 40.5153 40.3577 40.4729C40.2731 40.4729 40.2308 40.4305 40.1885 40.4305C39.85 40.3457 39.5539 40.2609 39.2155 40.1761C38.9617 40.0913 38.7078 40.0489 38.4117 39.9641L37.8195 39.7945C37.6502 39.7521 37.5233 39.6674 37.481 39.4978C37.3964 39.3282 37.3964 39.201 37.481 39.0314L37.7349 38.4802C37.7772 38.353 37.8618 38.2258 37.8618 38.0986C38.031 37.717 38.1579 37.2931 38.2848 36.9115C38.4117 36.5299 38.454 36.1059 38.5386 35.7243L38.7501 34.198C38.7924 33.986 38.9617 33.774 39.1732 33.774C39.3847 33.7316 39.6385 33.8588 39.7231 34.0708L40.4846 35.4699C40.7384 35.9363 40.9922 36.3603 41.2037 36.8267C41.7114 37.8442 42.219 38.9042 42.6421 39.9217C42.769 40.2185 42.8959 40.4729 42.9805 40.7273L43.1074 41.0241L43.2343 41.3633C43.4881 41.9568 43.742 42.5504 43.9958 43.144C44.4611 44.2463 45.0111 45.3487 45.561 46.451C46.111 47.511 46.6609 48.6133 47.2532 49.7157C47.5493 50.2669 47.8031 50.818 48.0992 51.3692C48.3107 51.7932 48.5223 52.1748 48.7338 52.5988C49.0299 53.0651 49.4106 53.5739 49.9606 53.7859C50.0452 53.8283 50.1298 53.8707 50.2567 53.9131C50.4682 53.8707 50.7221 53.9131 50.9336 53.9131C51.272 53.9131 51.6104 53.9555 51.9489 53.9131C52.4142 53.8707 52.8795 54.0827 53.218 54.4219C53.218 55.9058 53.0911 57.3049 52.9218 57.9833C52.8372 57.8561 52.8372 57.9409 52.8372 57.9833ZM32.4892 36.4451C33.293 36.1483 33.8852 35.7667 34.266 35.3004H34.3083C34.4352 35.1308 34.5621 34.9612 34.6467 34.7492C34.6467 34.7068 34.6467 34.6644 34.6467 34.622C34.6044 34.41 34.3929 34.2404 34.1814 34.198L32.7853 34.0284C32.5738 33.986 32.4046 33.9436 32.1931 33.9012L32.1085 33.8164C32.0239 33.774 31.9816 33.7316 31.9393 33.7316H31.8123C31.77 33.7316 31.7277 33.6892 31.6854 33.6892L31.347 33.4772C31.1355 33.35 30.8817 33.3924 30.6702 33.562L30.374 33.8588C30.0356 34.198 29.6972 34.622 29.3587 34.9612L28.5973 35.8091C28.4704 35.9787 28.4281 36.1907 28.5127 36.4027C28.5973 36.6147 28.7665 36.7419 29.0203 36.7419L30.1625 36.7843C30.2894 36.7843 30.4163 36.7843 30.5855 36.7843C30.7971 36.7843 31.0086 36.7843 31.1778 36.7419C31.2624 36.7419 31.3047 36.7419 31.3893 36.6995C31.4739 36.6995 31.5585 36.6995 31.6431 36.6571L31.7277 36.6147C31.9816 36.5723 32.2354 36.4875 32.4892 36.4027V36.4451ZM34.4352 35.6395C33.9698 36.1483 33.2507 36.6147 32.1931 36.9115C31.9816 36.9963 31.8547 37.2083 31.897 37.4203C31.897 37.6322 32.0662 37.8442 32.2777 37.929L33.5045 38.353C33.5891 38.3954 33.6737 38.3954 33.7583 38.4378C34.4775 38.6922 35.1966 38.9466 35.9158 39.1586L36.2965 39.2858C36.5504 39.3706 36.8042 39.2858 36.9311 39.0314L37.1426 38.6922L37.1849 38.6498C37.5233 38.0562 37.8195 37.4203 37.9887 36.7843C38.031 36.5723 38.1156 36.4027 38.1579 36.1907C38.1579 36.1059 38.2002 36.0635 38.2002 35.9787C38.2425 35.8939 38.2425 35.8515 38.2425 35.7667V35.6819C38.2848 35.3851 38.2848 35.1308 38.2425 34.8764C38.2425 34.7492 38.2002 34.5796 38.2002 34.4524C38.2002 34.41 38.2002 34.41 38.2002 34.3676L38.0733 33.774C38.031 33.4772 37.7772 33.3076 37.481 33.3076L37.0157 33.35C36.7196 33.3924 36.4657 33.4348 36.2119 33.4772L35.8735 33.562C35.662 33.6044 35.5351 33.774 35.4505 33.9436L35.3659 34.2828C35.2389 34.834 34.9005 35.3004 34.4352 35.6395ZM31.347 29.9158C31.2201 30.5094 31.0509 31.0605 30.924 31.6117C30.8817 31.8661 30.8394 32.1205 30.8394 32.3749V32.6293C30.8394 32.7989 30.7548 32.9261 30.6702 33.0533L30.4586 33.1804C30.0779 33.5196 29.6549 33.8588 29.3164 34.2404L28.4281 35.2156C28.3012 35.3851 28.0473 35.4275 27.8358 35.3428C27.6243 35.258 27.4974 35.046 27.4974 34.834V33.562C27.4974 33.4348 27.4974 33.35 27.4974 33.2228C27.4551 31.9933 27.4551 30.7638 27.4551 29.5342C27.4551 29.3222 27.4551 29.0678 27.4551 28.8134V28.0079C27.4551 27.8383 27.5397 27.6687 27.7089 27.5415C27.8781 27.4143 28.0473 27.4143 28.2165 27.4991L28.9357 27.8383C29.0626 27.8807 29.1472 27.9231 29.2741 27.9655C29.7395 28.1775 30.2048 28.3895 30.6702 28.6015C30.7125 28.6015 30.7548 28.6439 30.7971 28.6439L31.1778 28.8134C31.3893 28.9406 31.5162 29.1526 31.4739 29.407L31.347 29.9158ZM104.786 59.764C104.871 59.8064 104.955 59.8488 105.04 59.8064C105.124 59.8064 105.167 59.7216 105.124 59.6792C105.124 59.6368 105.04 59.5944 104.998 59.5944C104.998 59.5944 104.998 59.5944 104.955 59.5944H104.913C104.871 59.5944 104.871 59.5944 104.828 59.5944C104.786 59.5944 104.744 59.5944 104.701 59.6368C104.744 59.6368 104.744 59.7216 104.786 59.764ZM84.9034 39.9641C84.9034 40.0065 84.9034 40.0913 84.9034 40.1337L84.8611 40.3033C84.8611 40.3457 84.8611 40.3881 84.8611 40.3881L84.8187 40.6849C84.7764 40.8545 84.6918 41.0241 84.5226 41.0665L84.2688 41.1937C83.7612 41.4481 83.2535 41.7025 82.7459 41.9568C82.5344 42.0416 82.3228 42.1688 82.1113 42.2536L81.3922 42.5928C81.2229 42.6776 81.0537 42.6776 80.8845 42.5504C80.7153 42.4656 80.6307 42.296 80.6307 42.1264L80.5884 41.3209C80.5884 41.1937 80.5884 41.0665 80.5884 40.9817C80.5461 40.4729 80.5038 39.9641 80.5038 39.4554C80.4615 38.353 80.5461 37.2931 80.8422 36.2331C80.9691 35.7243 81.1806 35.2156 81.4768 34.7916L81.6037 34.622C81.6883 34.4948 81.8152 34.41 81.9421 34.3676L82.4921 34.2828C82.7036 34.2404 82.8728 34.3252 82.9997 34.4524L83.2112 34.7068C83.5919 35.1732 84.015 35.5547 84.4803 35.9363C84.8187 36.2331 85.1572 36.4875 85.4956 36.6995C85.6225 36.7843 85.7494 36.8267 85.834 36.9115L86.384 37.2507C86.5109 37.3355 86.6378 37.4627 86.6378 37.6322C86.6801 37.8018 86.6378 37.929 86.5109 38.0562L86.1302 38.5226C85.961 38.7346 85.7917 38.9466 85.6225 39.1162C85.411 39.3706 85.1995 39.625 84.988 39.8793C84.988 39.8793 84.9457 39.9217 84.9034 39.9641ZM91.5873 31.1877C91.4604 31.3573 91.3335 31.5693 91.2066 31.7389C90.4874 32.7141 89.8106 33.6892 89.0914 34.7068C89.0491 34.7916 89.0068 34.834 88.9645 34.8764L88.5838 35.4275C88.4992 35.5547 88.3299 35.6395 88.1607 35.6395C87.9915 35.6395 87.8223 35.5547 87.7377 35.4275L87.3147 34.8764C87.1454 34.6644 86.9762 34.4524 86.7647 34.2404L86.4263 33.9012C86.2148 33.6892 86.2148 33.3924 86.384 33.1804L86.6801 32.8413C86.807 32.6717 86.9762 32.5021 87.1031 32.3325C87.5262 31.7813 88.0338 31.1029 88.1184 30.3822C88.1184 30.2974 88.1184 30.2126 88.1184 30.1278V29.5342C88.1184 29.3646 88.203 29.2374 88.3299 29.1102C88.4569 29.0254 88.6261 28.983 88.753 29.0254L89.3452 29.1526C89.7683 29.2374 90.1913 29.3646 90.6143 29.4494C90.7412 29.4918 90.8259 29.4918 90.9528 29.5342L91.7565 29.7038C91.9258 29.7462 92.095 29.8734 92.1373 30.043C92.2219 30.2126 92.1796 30.3822 92.095 30.5518L91.5873 31.1877ZM54.4871 101.102C54.5717 101.102 54.614 101.102 54.614 101.102H54.6563C54.7409 101.102 54.7832 101.145 54.8678 101.145C55.4601 101.272 56.0523 101.357 56.6446 101.399C57.6175 101.526 58.5482 101.526 59.5212 101.569H60.1135C60.2827 101.569 60.4096 101.653 60.5365 101.781C60.6634 101.908 60.6634 102.077 60.6634 102.204L60.5788 102.798C60.5788 102.925 60.5365 103.01 60.5365 103.095C60.3673 104.197 60.1135 105.3 59.9019 106.444C59.6904 107.504 59.5635 108.607 59.5212 109.709C59.4789 110.854 59.6481 111.998 59.7327 113.143L59.8596 115.009C59.8596 115.263 59.7327 115.475 59.5212 115.56C59.2674 115.645 59.0559 115.56 58.8866 115.348L57.8291 113.779C57.4906 113.313 57.1945 112.804 56.8984 112.295C55.8831 110.472 55.0793 108.479 53.8525 106.783C53.1757 105.851 52.3719 105.003 51.4412 104.324C51.0182 104.028 50.5951 103.773 50.0875 103.561L49.5799 103.349C49.4529 103.307 49.326 103.18 49.2837 103.01C49.2414 102.883 49.2414 102.713 49.326 102.586L49.5799 102.077C49.7491 101.738 49.9183 101.399 50.1298 101.06L50.299 100.721C50.4259 100.509 50.6375 100.381 50.8913 100.466L51.272 100.551C51.4835 100.593 51.695 100.678 51.9066 100.678C52.4988 100.805 53.0488 100.933 53.641 101.017C53.8948 101.06 54.191 101.102 54.4871 101.102Z" fill="#8C3D25"/>
    <path d="M33.9315 1L34.9123 1.5616L33.6015 4.06808L37.0457 5.40278L36.6583 6.50026L32.0001 4.69542L33.9315 1Z" fill="#BF5D50"/>
    </g>
    <defs>
    <clipPath id="clip0_40_381">
    <rect width="119" height="157" fill="white" transform="translate(6.10352e-05 0.661133)"/>
    </clipPath>
    </defs>
    </svg>
    