<svg width="30" height="30" viewBox="0 0 30 30" fill="none" xmlns="http://www.w3.org/2000/svg">
    <path d="M5.97681 21.7117C5.97681 21.5104 5.94326 21.2756 5.94326 21.0743C5.94326 19.7322 5.94326 18.4573 5.94326 17.1153C5.94326 16.981 5.90971 16.8804 5.74195 16.8468C5.27224 16.6455 5.00383 16.2429 5.00383 15.7061C4.97028 14.2634 5.00383 12.8207 5.00383 11.3445C5.00383 10.6064 5.54065 10.0696 6.31232 10.1031C7.6208 10.1367 8.92929 10.1031 10.2378 10.2709C12.0831 10.4386 13.8277 10.036 15.4382 9.09659C15.6395 8.96239 15.8743 8.86173 16.0756 8.72753C16.344 8.59333 16.5789 8.42557 16.7131 8.09006C16.9479 7.5868 17.5183 7.35194 18.0551 7.48615C18.6255 7.5868 19.0281 7.98941 19.0952 8.52622C19.1288 8.62688 19.0952 8.72753 19.1288 8.82818C19.1288 11.982 19.1288 15.0686 19.1288 18.2224C19.1288 18.7592 18.9275 19.1619 18.4913 19.3967C17.7867 19.8329 16.9144 19.4974 16.5789 18.7592C16.5453 18.6586 16.4447 18.5579 16.344 18.5244C15.3711 17.954 14.4316 17.4172 13.358 17.0817C12.5528 16.8133 11.6805 16.7462 10.8081 16.8133C10.741 17.3501 10.5733 17.7863 10.2378 18.1889C9.90226 18.5915 9.49965 18.8599 8.99639 19.0277C8.99639 19.7658 8.99639 20.5039 8.99639 21.242C8.99639 21.8459 8.76153 22.0808 8.15762 22.0808C7.75501 22.0808 7.3524 22.0808 6.94979 22.0808C6.68138 22.0808 6.48007 22.0137 6.17811 21.9801C6.14456 21.8795 6.04391 21.7788 5.97681 21.7117ZM16.4447 9.2979C15.4382 9.83471 14.3981 10.4051 13.2574 10.7406C12.0831 11.0425 10.9088 10.9419 9.73451 10.9083C9.73451 12.653 9.73451 14.3976 9.73451 16.2094C10.9088 16.1758 12.0831 16.0081 13.2238 16.3436C14.3645 16.6791 15.4046 17.2495 16.4111 17.7863C16.4447 14.9344 16.4447 12.1162 16.4447 9.2979ZM8.96284 16.2429C8.96284 14.4312 8.96284 12.6194 8.96284 10.8748C8.09051 10.8748 7.18464 10.8412 6.24521 10.8412C5.90971 10.8412 5.74195 11.0761 5.7084 11.3781C5.7084 11.5123 5.7084 11.6465 5.7084 11.7807C5.7084 13.0556 5.7084 14.3976 5.7084 15.6726C5.67485 16.0416 5.90971 16.2765 6.24521 16.2765C7.11754 16.2765 8.05696 16.2765 8.96284 16.2429ZM17.317 8.35847C17.1828 8.49267 17.1828 8.69398 17.1828 8.89528C17.1828 11.982 17.1828 15.0686 17.1828 18.1553C17.1828 18.2224 17.1828 18.2895 17.1828 18.3566C17.2164 18.5915 17.3506 18.7928 17.619 18.8599C17.8874 18.927 18.0887 18.8599 18.2564 18.625C18.3235 18.4908 18.3906 18.2895 18.3906 18.1553C18.3906 15.0686 18.4242 11.9484 18.3906 8.82818C18.3906 8.76108 18.3906 8.69398 18.3906 8.62688C18.3571 8.39202 18.1893 8.22427 17.988 8.15717C17.7532 8.12361 17.5519 8.19072 17.317 8.35847ZM8.25827 21.3762C8.25827 19.9 8.25827 18.4908 8.22472 16.981C7.6879 16.981 7.15109 16.981 6.64783 17.0146C6.64783 18.4908 6.61428 19.9335 6.64783 21.3762C7.15109 21.3427 7.75501 21.3427 8.25827 21.3762ZM10.07 16.8804C9.70096 16.9139 9.36545 16.9139 8.99639 16.9475C8.99639 17.3501 8.99639 17.6856 8.99639 18.0882C8.99639 18.1553 8.99639 18.2224 8.99639 18.2895C9.49965 18.1218 9.96936 17.5179 10.07 16.8804Z" fill="url(#paint0_linear_200_974)"/>
    <path d="M21.2759 7.88883C20.9739 8.19079 20.672 8.49275 20.37 8.7947C20.1687 8.99601 19.9674 8.99601 19.8332 8.86181C19.6655 8.69405 19.6655 8.49275 19.8668 8.29144C20.4707 7.68752 21.0746 7.08361 21.6785 6.47969C21.8798 6.27839 22.0811 6.27839 22.2153 6.41259C22.3831 6.58035 22.3495 6.7481 22.1482 6.9494C21.8798 7.28491 21.5779 7.58687 21.2759 7.88883Z" fill="url(#paint1_linear_200_974)"/>
    <path d="M20.8067 19.6988C20.5048 19.3968 20.2028 19.0949 19.9008 18.7929C19.7331 18.6252 19.6995 18.3903 19.8337 18.2561C19.968 18.1219 20.1693 18.1219 20.337 18.2896C20.9409 18.8936 21.5784 19.531 22.1823 20.1349C22.3501 20.3027 22.3501 20.504 22.2159 20.6382C22.0817 20.7724 21.8804 20.7724 21.7126 20.6047C21.4106 20.3027 21.1087 20.0007 20.8067 19.6988Z" fill="url(#paint2_linear_200_974)"/>
    <path d="M21.8464 13.8274C21.8464 13.6932 21.7793 13.559 21.8129 13.4583C21.8464 13.3577 22.0142 13.257 22.1149 13.2235C22.4839 13.1899 22.8865 13.1899 23.2556 13.2235C23.7253 13.2235 24.195 13.2235 24.7318 13.2235C25.0002 13.2235 25.168 13.3241 25.168 13.5925C25.2015 13.7603 25.0002 13.8945 24.7318 13.8945C23.8595 13.8945 23.0543 13.8945 22.182 13.8945C22.1149 13.8945 21.9806 13.8274 21.8464 13.8274Z" fill="url(#paint3_linear_200_974)"/>
    <defs>
    <linearGradient id="paint0_linear_200_974" x1="18.9025" y1="7.98123" x2="5.54085" y2="21.3429" gradientUnits="userSpaceOnUse">
    <stop stop-color="#FF8393"/>
    <stop offset="1" stop-color="#FA9A40"/>
    </linearGradient>
    <linearGradient id="paint1_linear_200_974" x1="22.2321" y1="6.42937" x2="19.8164" y2="8.84503" gradientUnits="userSpaceOnUse">
    <stop stop-color="#FF8393"/>
    <stop offset="1" stop-color="#FA9A40"/>
    </linearGradient>
    <linearGradient id="paint2_linear_200_974" x1="21.2597" y1="19.2123" x2="20.7899" y2="19.682" gradientUnits="userSpaceOnUse">
    <stop stop-color="#FF8393"/>
    <stop offset="1" stop-color="#FA9A40"/>
    </linearGradient>
    <linearGradient id="paint3_linear_200_974" x1="24.4034" y1="12.6571" x2="22.5398" y2="14.5207" gradientUnits="userSpaceOnUse">
    <stop stop-color="#FF8393"/>
    <stop offset="1" stop-color="#FA9A40"/>
    </linearGradient>
    </defs>
    </svg>
    