<svg width="20" height="20" viewBox="0 0 20 20" fill="none" xmlns="http://www.w3.org/2000/svg">
    <g clip-path="url(#clip0_200_718)">
    <path d="M8.60333 19.6426C8.25715 19.5857 7.91096 19.5479 7.56478 19.4911C5.60307 19.1502 3.94907 18.2413 2.58357 16.8212C1.21806 15.3631 0.429531 13.659 0.217973 11.6897C-0.166676 8.20554 1.64118 4.75929 4.75684 3.03616C5.5646 2.58171 6.43006 2.27874 7.37246 2.07045C7.33399 2.01365 7.31476 1.95684 7.27629 1.90003C6.98781 1.35091 7.12243 0.688165 7.60325 0.309456C8.08406 -0.0692528 8.79566 -0.0692528 9.25724 0.328392C9.81498 0.820714 10.3343 1.31304 10.7574 1.91897C10.7958 1.97578 10.892 2.03258 10.9689 2.05152C11.719 2.203 12.4498 2.44916 13.1422 2.77107C13.1999 2.80894 13.3153 2.79 13.373 2.75213C13.8153 2.4681 14.2577 2.16513 14.7 1.90003C15.5655 1.36984 16.681 1.84323 16.8733 2.82787C16.931 3.13084 16.8925 3.43381 16.7387 3.73677C17.181 3.86932 17.5272 4.11548 17.7195 4.53206C17.9119 4.94864 17.8926 5.36522 17.7003 5.7818C18.1426 5.91435 18.4888 6.16051 18.6812 6.57709C18.8735 6.99367 18.8542 7.41025 18.6619 7.82683C18.7196 7.84577 18.7581 7.8647 18.7965 7.88364C19.3543 8.07299 19.6812 8.47064 19.7582 9.0387C19.8351 9.58783 19.6235 10.0612 19.162 10.3831C18.8927 10.5725 18.6042 10.7618 18.3157 10.9322C18.2196 10.9891 18.1811 11.0648 18.1811 11.1784C18.1426 11.5571 18.1042 11.9358 18.0465 12.3145C18.0272 12.4092 17.9888 12.5228 17.9119 12.5796C17.8349 12.6364 17.6811 12.6554 17.6041 12.6175C17.5272 12.5607 17.4503 12.4281 17.4503 12.3335C17.4503 12.1062 17.508 11.898 17.5272 11.6707C17.5272 11.6139 17.5272 11.5571 17.5272 11.4814C17.4503 11.5192 17.3926 11.5571 17.3349 11.595C16.3156 12.2577 15.2962 12.9205 14.2961 13.5832C13.8346 13.8862 13.3345 14.0377 12.796 13.9619C12.2383 13.8862 11.7959 14.1134 11.4305 14.4164C11.4497 14.6057 11.5074 14.7951 11.5074 14.9844C11.4882 15.2685 11.3151 15.4768 11.0651 15.6472C9.64189 16.575 8.21868 17.5028 6.79548 18.4307C6.71855 18.4875 6.64162 18.5254 6.56469 18.5822C6.56469 18.6011 6.56469 18.62 6.56469 18.639C7.02627 18.7337 7.48785 18.8662 7.96866 18.923C10.642 19.2638 12.9883 18.5443 14.9693 16.7265C15.8732 15.9123 16.5271 14.9276 16.9695 13.7915C16.9887 13.7158 17.0272 13.64 17.0464 13.5832C17.1233 13.3939 17.2964 13.3181 17.4695 13.3939C17.6234 13.4507 17.7003 13.6211 17.6234 13.8104C17.3541 14.5489 16.9887 15.2306 16.5271 15.8744C14.8731 18.0898 12.6806 19.3396 9.89191 19.6047C9.83421 19.6047 9.77652 19.6236 9.71882 19.6426C9.3534 19.6426 8.98798 19.6426 8.60333 19.6426ZM11.0074 13.8862C11.1228 13.8104 11.2382 13.7347 11.3536 13.659C11.8152 13.356 12.3152 13.2424 12.8537 13.3181C13.2191 13.3749 13.5461 13.2992 13.8538 13.0909C15.4886 12.0305 17.1426 10.9512 18.7773 9.87186C19.1812 9.60676 19.2774 9.13338 19.0273 8.75467C18.7773 8.37596 18.2773 8.28128 17.8734 8.54638C17.6811 8.65999 17.508 8.79254 17.3156 8.90615C17.1041 9.0387 16.931 9.01976 16.8156 8.84935C16.7194 8.69786 16.7771 8.52744 16.9695 8.3949C17.2579 8.20554 17.5464 8.01619 17.8349 7.82683C18.2196 7.56174 18.3157 7.08835 18.0657 6.70964C17.8157 6.33093 17.3156 6.23625 16.9118 6.48241C16.7194 6.59603 16.5271 6.72858 16.3348 6.84219C16.1232 6.97474 15.9501 6.9558 15.8347 6.78538C15.7386 6.6339 15.777 6.46348 15.9886 6.33093C16.2771 6.14158 16.5656 5.95222 16.8541 5.76287C17.2579 5.49777 17.3541 5.00545 17.0849 4.64568C16.8348 4.2859 16.354 4.19122 15.9501 4.43739C15.7578 4.551 15.5655 4.68355 15.3732 4.79716C15.1616 4.92971 14.9885 4.91077 14.8731 4.75929C14.777 4.6078 14.8347 4.43739 15.027 4.2859C15.3155 4.09655 15.6232 3.90719 15.9117 3.6989C16.1809 3.50955 16.2771 3.22552 16.2194 2.90361C16.1617 2.60065 15.9886 2.39236 15.6809 2.29768C15.4116 2.203 15.1424 2.25981 14.9116 2.41129C13.873 3.09297 12.8345 3.75571 11.7959 4.43739C11.4305 4.66461 11.2959 4.62674 11.142 4.21016C11.0651 4.02081 10.9882 3.83145 10.9305 3.6421C10.5266 2.4681 9.73805 1.5592 8.81489 0.744972C8.5841 0.555617 8.27638 0.536682 8.02636 0.66923C7.79557 0.801778 7.64171 1.06687 7.71864 1.35091C7.77634 1.54026 7.85327 1.67281 7.91096 1.78642C8.50717 2.77107 8.71873 3.83145 8.48794 4.94864C8.21868 6.19838 7.91096 7.42919 7.62248 8.67893C7.60324 8.7736 7.62248 8.88722 7.68017 8.96296C8.08406 9.58783 8.50717 10.1938 8.91105 10.8186C9.60342 11.8222 10.2958 12.8447 11.0074 13.8862ZM8.43024 16.6318C8.39178 16.5561 8.35331 16.4993 8.31485 16.4425C7.25706 14.8708 6.18004 13.2992 5.10302 11.7465C5.06456 11.6897 5.02609 11.6518 5.00686 11.5761C4.94916 11.4246 4.9684 11.292 5.10302 11.1973C5.23765 11.1027 5.39151 11.1216 5.50691 11.2352C5.54537 11.2731 5.58384 11.3299 5.6223 11.3867C6.69932 12.9583 7.7571 14.53 8.83412 16.0827C8.87259 16.1395 8.91105 16.1963 8.96875 16.272C9.56496 15.8933 10.1227 15.5146 10.6804 15.1549C10.9497 14.9844 10.9497 14.9276 10.7766 14.6625C9.89191 13.356 9.02645 12.0494 8.14175 10.7618C7.66094 10.0612 7.19936 9.3606 6.71855 8.65999C6.58392 8.4517 6.48776 8.43277 6.2762 8.56531C6.14158 8.65999 6.00695 8.73573 5.87232 8.83041C5.41074 9.13338 4.94916 9.43635 4.48758 9.73931C4.60298 9.90973 4.69914 10.0612 4.7953 10.2127C4.9107 10.4021 4.89147 10.5725 4.73761 10.6861C4.58375 10.7808 4.41065 10.7429 4.27603 10.5535C4.16063 10.4021 4.06447 10.2506 3.96831 10.0991C3.92984 10.0991 3.92984 10.0991 3.91061 10.118C2.94899 10.7429 1.96813 11.3867 0.987273 12.0305C0.948808 12.0684 0.910343 12.1631 0.929575 12.2199C1.50655 15.0223 3.10285 17.0295 5.69923 18.2792C5.79539 18.336 5.87232 18.2981 5.96848 18.2413C6.62239 17.8058 7.29553 17.3703 7.96866 16.9348C8.10329 16.8401 8.25715 16.7454 8.43024 16.6318ZM7.68017 2.65745C3.17977 3.39594 0.391066 7.65641 0.833413 11.3867C0.89111 11.3488 0.948808 11.311 1.00651 11.2731C2.6605 10.1938 4.29526 9.13338 5.94925 8.05406C6.14158 7.92151 6.3339 7.82683 6.56469 7.88364C6.75702 7.92151 6.93011 7.99725 7.1032 8.07299C7.1032 8.03512 7.12243 7.97832 7.14167 7.92151C7.29553 7.2777 7.44939 6.6339 7.60325 5.99009C7.73787 5.38416 7.8725 4.75929 7.9302 4.15335C8.00713 3.6421 7.8725 3.13084 7.68017 2.65745ZM11.2574 2.75213C11.4113 3.14977 11.5651 3.50955 11.6998 3.86932C12.0075 3.66103 12.3152 3.47168 12.6614 3.24445C12.1613 3.0551 11.719 2.90361 11.2574 2.75213Z" fill="#C15254"/>
    </g>
    <defs>
    <clipPath id="clip0_200_718">
    <rect width="19.6171" height="19.6171" fill="white" transform="translate(0.160156 0.0253906)"/>
    </clipPath>
    </defs>
    </svg>
    