<svg width="140" height="202" viewBox="0 0 140 202" fill="none" xmlns="http://www.w3.org/2000/svg">
    <rect width="140" height="201.661" rx="5" fill="url(#paint0_linear_216_139)"/>
    <path d="M22.5365 105.209L19.08 106.405L16.6274 100.791L11.3677 101.887L8.87829 98L7 99.3204L10.331 104.519L15.3152 103.48L17.8646 109.321L23.0671 107.521L22.5365 105.209Z" fill="#F7CC7F"/>
    <path d="M112.931 30L113.912 30.5616L112.601 33.0681L116.046 34.4028L115.658 35.5003L111 33.6954L112.931 30Z" fill="#7A00F0"/>
    <path d="M80.4168 24.3136C80.4168 25.5911 79.4278 26.6271 78.2084 26.6271C76.9889 26.6271 76 25.5911 76 24.3136C76 23.036 76.9889 22 78.2084 22C79.4278 22 80.4168 23.036 80.4168 24.3136Z" fill="#D0DEFC"/>
    <path d="M121.417 73.3136C121.417 74.5911 120.428 75.6271 119.208 75.6271C117.989 75.6271 117 74.5911 117 73.3136C117 72.036 117.989 71 119.208 71C120.428 71 121.417 72.036 121.417 73.3136Z" fill="#DBB6FF"/>
    <defs>
    <linearGradient id="paint0_linear_216_139" x1="70" y1="0" x2="70" y2="201.661" gradientUnits="userSpaceOnUse">
    <stop stop-color="#EC7F41" stop-opacity="0.69"/>
    <stop offset="1" stop-color="#FFD8C2"/>
    </linearGradient>
    </defs>
    </svg>
    