<svg width="140" height="201" viewBox="0 0 140 201" fill="none" xmlns="http://www.w3.org/2000/svg">
    <path d="M0 4.99999C0 2.23857 2.23858 0 5 0H135C137.761 0 140 2.23858 140 5V196.661C140 199.422 137.761 201.661 135 201.661H5C2.23857 201.661 0 199.422 0 196.661V4.99999Z" fill="url(#paint0_linear_216_171)"/>
    <path d="M113.931 28L114.912 28.5616L113.601 31.0681L117.046 32.4028L116.658 33.5003L112 31.6954L113.931 28Z" fill="#D693AC"/>
    <path d="M123.417 73.3136C123.417 74.5911 122.428 75.6271 121.208 75.6271C119.989 75.6271 119 74.5911 119 73.3136C119 72.036 119.989 71 121.208 71C122.428 71 123.417 72.036 123.417 73.3136Z" fill="#D693AC"/>
    <path d="M23.5365 106.209L20.08 107.405L17.6274 101.791L12.3677 102.887L9.87829 99L8 100.32L11.331 105.519L16.3152 104.48L18.8646 110.321L24.0671 108.521L23.5365 106.209Z" fill="#F7CC7F"/>
    <path d="M89.4168 23.3136C89.4168 24.5911 88.4278 25.6271 87.2084 25.6271C85.9889 25.6271 85 24.5911 85 23.3136C85 22.036 85.9889 21 87.2084 21C88.4278 21 89.4168 22.036 89.4168 23.3136Z" fill="#D693AC"/>
    <defs>
    <linearGradient id="paint0_linear_216_171" x1="70" y1="-1.39767e-06" x2="70" y2="201.661" gradientUnits="userSpaceOnUse">
    <stop stop-color="#FB8EA2"/>
    <stop offset="1" stop-color="#FFC8D2"/>
    </linearGradient>
    </defs>
    </svg>
    