<svg width="140" height="201" viewBox="0 0 140 201" fill="none" xmlns="http://www.w3.org/2000/svg">
    <rect width="140" height="201.661" rx="5" fill="url(#paint0_linear_216_183)"/>
    <path d="M120.931 49L121.912 49.5616L120.601 52.0681L124.046 53.4028L123.658 54.5003L119 52.6954L120.931 49Z" fill="#50BFA5"/>
    <path d="M86.4168 27.3136C86.4168 28.5911 85.4278 29.6271 84.2084 29.6271C82.9889 29.6271 82 28.5911 82 27.3136C82 26.036 82.9889 25 84.2084 25C85.4278 25 86.4168 26.036 86.4168 27.3136Z" fill="#50BFA5"/>
    <path d="M22.5365 107.209L19.08 108.405L16.6274 102.791L11.3677 103.887L8.87829 100L7 101.32L10.331 106.519L15.3152 105.48L17.8646 111.321L23.0671 109.521L22.5365 107.209Z" fill="#F7CC7F"/>
    <path d="M126.417 76.3136C126.417 77.5911 125.428 78.6271 124.208 78.6271C122.989 78.6271 122 77.5911 122 76.3136C122 75.036 122.989 74 124.208 74C125.428 74 126.417 75.036 126.417 76.3136Z" fill="#DBB6FF"/>
    <defs>
    <linearGradient id="paint0_linear_216_183" x1="70" y1="0" x2="70" y2="201.661" gradientUnits="userSpaceOnUse">
    <stop stop-color="#FFE961" stop-opacity="0.74"/>
    <stop offset="1" stop-color="#FFF9D2" stop-opacity="0.99"/>
    </linearGradient>
    </defs>
    </svg>
    