<svg width="140" height="202" viewBox="0 0 140 202" fill="none" xmlns="http://www.w3.org/2000/svg">
    <rect y="0.338867" width="140" height="201.661" rx="5" fill="url(#paint0_linear_162_95)"/>
    <path d="M63.9315 105L64.9123 105.562L63.6015 108.068L67.0457 109.403L66.6583 110.5L62.0001 108.695L63.9315 105Z" fill="#BF5D50"/>
    <path d="M28.5365 107.209L25.08 108.405L22.6274 102.791L17.3677 103.887L14.8783 100L13 101.32L16.331 106.519L21.3152 105.48L23.8646 111.321L29.0671 109.521L28.5365 107.209Z" fill="#F7CC7F"/>
    <path d="M118.931 28L119.912 28.5616L118.601 31.0681L122.046 32.4028L121.658 33.5003L117 31.6954L118.931 28Z" fill="#7A00F0"/>
    <path d="M86.4168 22.3136C86.4168 23.5911 85.4278 24.6271 84.2084 24.6271C82.9889 24.6271 82 23.5911 82 22.3136C82 21.036 82.9889 20 84.2084 20C85.4278 20 86.4168 21.036 86.4168 22.3136Z" fill="#D0DEFC"/>
    <path d="M127.417 71.3136C127.417 72.5911 126.428 73.6271 125.208 73.6271C123.989 73.6271 123 72.5911 123 71.3136C123 70.036 123.989 69 125.208 69C126.428 69 127.417 70.036 127.417 71.3136Z" fill="#DBB6FF"/>
    <defs>
    <linearGradient id="paint0_linear_162_95" x1="70" y1="0.338867" x2="70" y2="202" gradientUnits="userSpaceOnUse">
    <stop stop-color="#DAB4FF"/>
    <stop offset="1" stop-color="#F3E6FF"/>
    </linearGradient>
    </defs>
    </svg>