<svg width="14" height="12" viewBox="0 0 14 12" fill="none" xmlns="http://www.w3.org/2000/svg">
    <path d="M13.96 5.805L12.46 2.305C12.4217 2.21463 12.3577 2.13752 12.2759 2.08328C12.1941 2.02904 12.0981 2.00008 12 2H10.5V1C10.5 0.867392 10.4473 0.740215 10.3536 0.646447C10.2598 0.552679 10.1326 0.5 10 0.5H0.5C0.367392 0.5 0.240215 0.552679 0.146447 0.646447C0.0526784 0.740215 0 0.867392 0 1V9.5C0 9.63261 0.0526784 9.75979 0.146447 9.85355C0.240215 9.94732 0.367392 10 0.5 10H1.57C1.68514 10.4237 1.9365 10.7977 2.2853 11.0644C2.6341 11.331 3.06095 11.4755 3.5 11.4755C3.93905 11.4755 4.3659 11.331 4.7147 11.0644C5.0635 10.7977 5.31486 10.4237 5.43 10H8.57C8.68514 10.4237 8.9365 10.7977 9.2853 11.0644C9.6341 11.331 10.0609 11.4755 10.5 11.4755C10.9391 11.4755 11.3659 11.331 11.7147 11.0644C12.0635 10.7977 12.3149 10.4237 12.43 10H13.5C13.6326 10 13.7598 9.94732 13.8536 9.85355C13.9473 9.75979 14 9.63261 14 9.5V6C13.9999 5.93298 13.9863 5.86666 13.96 5.805ZM10.5 3H11.67L12.74 5.5H10.5V3ZM3.5 10.5C3.30222 10.5 3.10888 10.4414 2.94443 10.3315C2.77998 10.2216 2.65181 10.0654 2.57612 9.88268C2.50043 9.69996 2.48063 9.49889 2.51921 9.30491C2.5578 9.11093 2.65304 8.93275 2.79289 8.79289C2.93275 8.65304 3.11093 8.5578 3.30491 8.51921C3.49889 8.48063 3.69996 8.50043 3.88268 8.57612C4.06541 8.65181 4.22159 8.77998 4.33147 8.94443C4.44135 9.10888 4.5 9.30222 4.5 9.5C4.5 9.76522 4.39464 10.0196 4.20711 10.2071C4.01957 10.3946 3.76522 10.5 3.5 10.5ZM8.57 9H5.43C5.31486 8.57631 5.0635 8.20229 4.7147 7.93563C4.3659 7.66897 3.93905 7.5245 3.5 7.5245C3.06095 7.5245 2.6341 7.66897 2.2853 7.93563C1.9365 8.20229 1.68514 8.57631 1.57 9H1V1.5H9.5V7.78C9.27232 7.91214 9.07297 8.08793 8.91338 8.29729C8.75379 8.50665 8.6371 8.74545 8.57 9ZM10.5 10.5C10.3022 10.5 10.1089 10.4414 9.94443 10.3315C9.77998 10.2216 9.65181 10.0654 9.57612 9.88268C9.50043 9.69996 9.48063 9.49889 9.51921 9.30491C9.5578 9.11093 9.65304 8.93275 9.79289 8.79289C9.93275 8.65304 10.1109 8.5578 10.3049 8.51921C10.4989 8.48063 10.7 8.50043 10.8827 8.57612C11.0654 8.65181 11.2216 8.77998 11.3315 8.94443C11.4414 9.10888 11.5 9.30222 11.5 9.5C11.5 9.76522 11.3946 10.0196 11.2071 10.2071C11.0196 10.3946 10.7652 10.5 10.5 10.5ZM13 9H12.43C12.3194 8.57176 12.07 8.19225 11.7208 7.92084C11.3716 7.64944 10.9423 7.50144 10.5 7.5V6.5H13V9Z" fill="white"/>
    </svg>
    