<svg width="58" height="58" viewBox="0 0 58 58" fill="none" xmlns="http://www.w3.org/2000/svg">
    <path d="M29 57C44.464 57 57 44.464 57 29C57 13.536 44.464 1 29 1C13.536 1 1 13.536 1 29C1 44.464 13.536 57 29 57Z" stroke="#4CAF50" stroke-width="2" stroke-linecap="round" stroke-linejoin="round"/>
    <rect x="5" y="4.9231" width="48" height="48" rx="24" fill="url(#paint0_linear_0_1)"/>
    <path d="M14.4419 42.8861L16.4998 35.4133C15.2275 33.2199 14.5601 30.7359 14.567 28.1966C14.567 20.2395 21.0743 13.77 29.0625 13.77C32.9418 13.77 36.5848 15.2715 39.3171 17.9977C42.0562 20.7238 43.5649 24.3495 43.5579 28.2035C43.5579 36.1606 37.0506 42.6301 29.0555 42.6301H29.0486C26.6222 42.6301 24.2376 42.0212 22.1172 40.8726L14.4419 42.8861ZM22.4857 38.264L22.9236 38.527C24.7729 39.6202 26.8934 40.1945 29.0555 40.2014H29.0625C35.7019 40.2014 41.1107 34.8252 41.1107 28.2104C41.1107 25.0068 39.8593 21.997 37.5859 19.7275C35.3126 17.458 32.2814 16.2125 29.0625 16.2125C22.4231 16.2056 17.0142 21.5818 17.0142 28.1966C17.0142 30.4592 17.6469 32.6664 18.8566 34.5761L19.1416 35.0328L17.925 39.4542L22.4857 38.264Z" fill="white"/>
    <path d="M14.9495 42.381L16.9378 35.1643C15.7073 33.0539 15.0607 30.6529 15.0607 28.2035C15.0677 20.5232 21.3455 14.2751 29.0625 14.2751C32.8098 14.2751 36.3207 15.7282 38.9625 18.3575C41.6044 20.9868 43.0574 24.4879 43.0574 28.2105C43.0574 35.8908 36.7726 42.1388 29.0625 42.1388H29.0556C26.7127 42.1388 24.4115 41.5507 22.3675 40.4436L14.9495 42.381Z" fill="url(#paint1_linear_0_1)"/>
    <path d="M14.4419 42.8861L16.4998 35.4133C15.2275 33.2199 14.5601 30.7359 14.567 28.1966C14.567 20.2395 21.0743 13.77 29.0625 13.77C32.9418 13.77 36.5848 15.2715 39.3171 17.9977C42.0562 20.7238 43.5649 24.3495 43.5579 28.2035C43.5579 36.1606 37.0506 42.6301 29.0555 42.6301H29.0486C26.6222 42.6301 24.2376 42.0212 22.1172 40.8726L14.4419 42.8861ZM22.4857 38.264L22.9236 38.527C24.7729 39.6202 26.8934 40.1945 29.0555 40.2014H29.0625C35.7019 40.2014 41.1107 34.8252 41.1107 28.2104C41.1107 25.0068 39.8593 21.997 37.5859 19.7275C35.3126 17.458 32.2814 16.2125 29.0625 16.2125C22.4231 16.2056 17.0142 21.5818 17.0142 28.1966C17.0142 30.4592 17.6469 32.6664 18.8566 34.5761L19.1416 35.0328L17.925 39.4542L22.4857 38.264Z" fill="url(#paint2_linear_0_1)"/>
    <path fill-rule="evenodd" clip-rule="evenodd" d="M25.4403 22.1631C25.1691 21.5611 24.8841 21.5473 24.6269 21.5404C24.4183 21.5334 24.175 21.5334 23.9316 21.5334C23.6883 21.5334 23.299 21.6234 22.9653 21.9832C22.6316 22.343 21.7 23.2148 21.7 24.9931C21.7 26.7644 23 28.4803 23.1808 28.7225C23.3615 28.9647 25.6905 32.7218 29.3683 34.1679C32.4273 35.3719 33.053 35.1297 33.7134 35.0674C34.3739 35.0052 35.8547 34.1956 36.1606 33.3515C36.4596 32.5073 36.4596 31.7877 36.3692 31.6355C36.2788 31.4833 36.0355 31.3933 35.674 31.2134C35.3125 31.0335 33.5327 30.1617 33.199 30.0372C32.8653 29.9195 32.6219 29.8573 32.3856 30.2171C32.1422 30.5769 31.447 31.3864 31.2384 31.6286C31.0299 31.8708 30.8144 31.8984 30.4528 31.7185C30.0913 31.5386 28.9233 31.1581 27.5398 29.9265C26.4622 28.9716 25.7323 27.7884 25.5237 27.4286C25.3151 27.0688 25.5028 26.8751 25.6836 26.6952C25.8435 26.536 26.0451 26.2731 26.2259 26.0655C26.4066 25.858 26.4692 25.7057 26.5874 25.4636C26.7056 25.2214 26.65 25.0138 26.5596 24.8339C26.4692 24.6609 25.7601 22.8758 25.4403 22.1631Z" fill="white"/>
    <defs>
    <linearGradient id="paint0_linear_0_1" x1="28.9988" y1="52.9207" x2="28.9988" y2="4.92142" gradientUnits="userSpaceOnUse">
    <stop stop-color="#20B038"/>
    <stop offset="1" stop-color="#60D66A"/>
    </linearGradient>
    <linearGradient id="paint1_linear_0_1" x1="29.0027" y1="42.3796" x2="29.0027" y2="14.2742" gradientUnits="userSpaceOnUse">
    <stop stop-color="#20B038"/>
    <stop offset="1" stop-color="#60D66A"/>
    </linearGradient>
    <linearGradient id="paint2_linear_0_1" x1="29.0028" y1="42.8833" x2="29.0028" y2="13.77" gradientUnits="userSpaceOnUse">
    <stop stop-color="#F9F9F9"/>
    <stop offset="1" stop-color="white"/>
    </linearGradient>
    </defs>
    </svg>
    