<svg width="42" height="33" viewBox="0 0 42 33" fill="none" xmlns="http://www.w3.org/2000/svg">
    <path d="M39.0517 26.2845C39.0517 27.6055 39.0517 28.9275 39.0517 30.2485C39.073 30.5472 39.0301 30.847 38.9259 31.1278C38.8218 31.4087 38.6588 31.6639 38.4479 31.8766C38.2369 32.0892 37.9829 32.2542 37.703 32.3606C37.423 32.467 37.1235 32.5123 36.8246 32.4934C25.2913 32.4934 13.7607 32.4934 2.23265 32.4934C1.93375 32.5123 1.63426 32.467 1.35429 32.3606C1.07433 32.2542 0.820406 32.0892 0.609483 31.8766C0.39856 31.6639 0.235536 31.4087 0.131394 31.1278C0.0272527 30.847 -0.0156125 30.5472 0.00566207 30.2485C0.00566207 24.7738 0.00566207 19.2988 0.00566207 13.8235C-0.0165978 13.521 0.0269469 13.2172 0.133287 12.9331C0.239626 12.6491 0.406257 12.3914 0.62169 12.1779C0.837122 11.9643 1.0962 11.8 1.38121 11.6962C1.66622 11.5924 1.97039 11.5515 2.27269 11.5765C7.33936 11.5765 12.406 11.5765 17.4726 11.5765H18.0536C17.7246 11.2405 17.4537 10.9704 17.1927 10.6964C17.0957 10.629 17.0166 10.5389 16.9622 10.4341C16.9078 10.3292 16.8797 10.2127 16.8804 10.0946C16.8811 9.97649 16.9106 9.86032 16.9662 9.75611C17.0218 9.6519 17.1019 9.56279 17.1996 9.49647C20.0936 6.59847 22.9883 3.70146 25.8837 0.805458C25.9803 0.676866 26.1152 0.582288 26.2691 0.535378C26.4229 0.488467 26.5877 0.491663 26.7397 0.544472C26.8953 0.608801 27.0248 0.723473 27.1075 0.870155C27.1901 1.01684 27.2212 1.18703 27.1957 1.35346C27.1877 2.74646 27.1957 4.13947 27.1957 5.53147C28.1687 5.74947 29.1207 5.93147 30.0577 6.17747C32.7761 6.78277 35.3006 8.05654 37.4026 9.88346C38.7215 11.0891 39.7415 12.5853 40.382 14.2535C41.0225 15.9216 41.2657 17.716 41.0926 19.4945C40.9526 21.5679 40.4841 23.606 39.7046 25.5324C39.5578 25.8117 39.3793 26.0731 39.1727 26.3115L39.0517 26.2845ZM27.1977 14.6115C27.1977 16.0435 27.1977 17.4214 27.1977 18.7994C27.1977 19.1574 27.1426 19.4774 26.7826 19.6354C26.6201 19.7016 26.4399 19.7108 26.2715 19.6616C26.103 19.6124 25.9561 19.5077 25.8547 19.3644C24.7727 18.2644 23.6737 17.1905 22.5957 16.0905C22.4977 15.9783 22.3757 15.8897 22.2388 15.8312C22.1018 15.7726 21.9534 15.7457 21.8047 15.7524C20.5557 15.7724 19.3047 15.7604 18.0577 15.7604C14.2377 15.7604 10.4173 15.7604 6.59667 15.7604C6.35467 15.7604 6.18166 15.7605 6.07366 16.0605C5.94321 16.4321 5.73007 16.7692 5.4503 17.0463C5.17053 17.3235 4.83146 17.5335 4.45866 17.6605C4.36906 17.6802 4.29036 17.7335 4.23869 17.8093C4.18702 17.8851 4.16626 17.9778 4.18065 18.0685C4.18732 20.7125 4.18732 23.3561 4.18065 25.9995C4.16629 26.09 4.18707 26.1825 4.23876 26.2582C4.29044 26.3339 4.36914 26.3869 4.45866 26.4065C4.81851 26.5273 5.1469 26.7268 5.42003 26.9904C5.69315 27.254 5.90413 27.5751 6.03764 27.9305C6.07022 28.0588 6.15029 28.17 6.26164 28.2416C6.373 28.3133 6.50739 28.34 6.63768 28.3164C15.2223 28.3078 23.807 28.3055 32.3916 28.3095H32.8487C32.9846 27.8298 33.241 27.3929 33.5936 27.0404C33.9461 26.6878 34.383 26.4314 34.8627 26.2954C34.8627 23.8494 34.8626 21.4245 34.8556 18.9955C34.8477 18.855 34.7935 18.721 34.7016 18.6144C33.6533 17.3651 32.3816 16.3217 30.9516 15.5375C29.8089 14.8904 28.5102 14.5701 27.1977 14.6115V14.6115ZM18.6977 10.0655L25.8027 17.1655C25.8027 16.2035 25.8027 15.1905 25.8027 14.1765C25.7852 14.0714 25.7907 13.9638 25.8188 13.861C25.8469 13.7583 25.8969 13.6629 25.9654 13.5813C26.034 13.4998 26.1193 13.434 26.2157 13.3886C26.3121 13.3433 26.4172 13.3193 26.5237 13.3185C28.3923 13.0004 30.312 13.4047 31.8937 14.4495C34.971 16.3968 37.3986 19.2167 38.8667 22.5494C38.9257 22.6734 38.9867 22.7975 39.0467 22.9215H39.1987C39.3677 21.7365 39.6097 20.5575 39.6927 19.3665C39.9443 16.7628 39.1861 14.1619 37.5746 12.1014C36.3128 10.5704 34.694 9.37293 32.8606 8.61445C30.8419 7.7548 28.717 7.16993 26.5427 6.87547C25.9887 6.78947 25.8026 6.56547 25.8006 5.99647C25.8006 5.11047 25.8006 4.22445 25.8006 3.33845C25.8006 3.21645 25.7847 3.09547 25.7767 2.98447L18.6977 10.0655ZM20.7436 14.3655L20.7876 14.2654C20.4256 13.9104 20.0777 13.5394 19.6947 13.2094C19.5376 13.0734 19.3401 12.9929 19.1327 12.9804C13.526 12.9684 7.91934 12.9655 2.31267 12.9715C1.62967 12.9715 1.39964 13.2035 1.39964 13.8875C1.39964 19.3201 1.39964 24.7534 1.39964 30.1874C1.39964 30.8694 1.63266 31.1014 2.31566 31.1014H36.7427C37.4247 31.1014 37.6566 30.8675 37.6576 30.1855C37.6576 28.4715 37.5646 26.7504 37.6866 25.0454C37.753 23.6192 37.3354 22.2125 36.5016 21.0535C36.4476 20.9685 36.3767 20.8945 36.2637 20.7535C36.2637 22.8045 36.2637 24.7655 36.2637 26.7255C36.2637 27.3415 36.0727 27.5455 35.4527 27.6195C35.1245 27.6516 34.8177 27.7969 34.5849 28.0305C34.3522 28.264 34.2078 28.5712 34.1767 28.8995C34.1037 29.5155 33.8977 29.7065 33.2767 29.7065C24.1113 29.7065 14.9447 29.7065 5.77666 29.7065C5.15666 29.7065 4.95063 29.5175 4.87663 28.9015C4.84656 28.5729 4.70292 28.2652 4.47038 28.0312C4.23784 27.7972 3.93097 27.6516 3.60265 27.6195C2.97765 27.5445 2.79066 27.3445 2.78966 26.7285C2.78966 23.6058 2.78966 20.4828 2.78966 17.3595C2.78966 16.7325 2.97565 16.5264 3.58965 16.4594C3.91085 16.4311 4.21291 16.2944 4.44621 16.0718C4.67952 15.8493 4.83022 15.554 4.87364 15.2345C4.97364 14.5085 5.13166 14.3715 5.84966 14.3715H20.7427L20.7436 14.3655Z" fill="#FFFBFB"/>
    <path d="M25.1052 22.0618C25.1228 22.7983 24.9901 23.5306 24.7154 24.2142C24.4406 24.8977 24.0295 25.5181 23.507 26.0375C22.9846 26.557 22.3619 26.9645 21.6768 27.2354C20.9916 27.5062 20.2586 27.6346 19.5222 27.6128C18.7825 27.6334 18.0464 27.5024 17.3592 27.2279C16.672 26.9534 16.0482 26.5412 15.5263 26.0166C15.0044 25.4921 14.5953 24.8663 14.3242 24.1777C14.0532 23.4891 13.9259 22.7524 13.9502 22.0128C13.932 21.2726 14.0657 20.5366 14.3429 19.8501C14.6202 19.1635 15.0351 18.5411 15.5621 18.0211C16.0892 17.501 16.7172 17.0945 17.4073 16.8265C18.0975 16.5585 18.8353 16.4347 19.5752 16.4628C20.3114 16.4476 21.0431 16.5826 21.7254 16.8594C22.4078 17.1363 23.0266 17.5493 23.5441 18.0733C24.0615 18.5972 24.4669 19.2211 24.7353 19.9068C25.0037 20.5926 25.1295 21.3258 25.1052 22.0618ZM19.5472 26.2178C20.1005 26.2332 20.6511 26.1347 21.1648 25.9284C21.6785 25.7221 22.1442 25.4124 22.5332 25.0185C22.9222 24.6247 23.226 24.1551 23.4259 23.6389C23.6258 23.1227 23.7175 22.5709 23.6952 22.0178C23.7129 21.4643 23.6164 20.9131 23.4119 20.3984C23.2073 19.8838 22.899 19.4168 22.5062 19.0265C22.1133 18.6361 21.6443 18.3308 21.1284 18.1296C20.6124 17.9284 20.0606 17.8355 19.5072 17.8568C18.9538 17.841 18.403 17.9392 17.8892 18.1454C17.3754 18.3515 16.9095 18.6612 16.5205 19.0552C16.1315 19.4491 15.8278 19.9189 15.6281 20.4353C15.4285 20.9517 15.3373 21.5037 15.3602 22.0568C15.3426 22.6102 15.4392 23.1613 15.6437 23.6758C15.8483 24.1903 16.1565 24.6572 16.5492 25.0475C16.9419 25.4378 17.4107 25.7431 17.9265 25.9444C18.4422 26.1457 18.9939 26.2388 19.5472 26.2178Z" fill="#FFFBFB"/>
    <path d="M9.75278 19.9457C10.302 19.9456 10.8295 20.1607 11.222 20.5448C11.6146 20.929 11.841 21.4516 11.8528 22.0007C11.8562 22.2768 11.8052 22.5508 11.7026 22.8071C11.6001 23.0634 11.448 23.2969 11.2551 23.4944C11.0622 23.6919 10.8322 23.8493 10.5784 23.9578C10.3246 24.0663 10.0518 24.1237 9.77579 24.1267C9.21883 24.1267 8.68469 23.9055 8.29086 23.5117C7.89704 23.1178 7.67578 22.5837 7.67578 22.0267C7.68072 21.477 7.90103 20.9512 8.28937 20.5621C8.6777 20.173 9.20309 19.9517 9.75278 19.9457ZM10.4598 22.0317C10.4569 21.848 10.3819 21.6728 10.2509 21.5439C10.12 21.415 9.94356 21.3427 9.7598 21.3428C9.57606 21.3456 9.40082 21.4206 9.27191 21.5516C9.14301 21.6826 9.07078 21.859 9.0708 22.0427C9.07343 22.2266 9.14834 22.4021 9.27933 22.5313C9.41032 22.6604 9.58685 22.7328 9.77078 22.7327C9.95469 22.7298 10.1301 22.6547 10.259 22.5235C10.388 22.3923 10.4601 22.2157 10.4598 22.0317Z" fill="#FFFBFB"/>
    <path d="M29.9926 24.1253C29.7162 24.1253 29.4426 24.0707 29.1874 23.9648C28.9321 23.8588 28.7003 23.7035 28.5052 23.5077C28.3101 23.312 28.1556 23.0797 28.0505 22.8241C27.9453 22.5685 27.8917 22.2947 27.8926 22.0183C27.8994 21.4684 28.1216 20.9432 28.5115 20.5554C28.9013 20.1676 29.4277 19.9482 29.9776 19.9443C30.2539 19.9443 30.5275 19.9988 30.7826 20.1047C31.0378 20.2106 31.2696 20.3658 31.4646 20.5615C31.6597 20.7571 31.8143 20.9893 31.9195 21.2448C32.0247 21.5003 32.0784 21.774 32.0776 22.0503C32.0711 22.6003 31.849 23.1258 31.4591 23.5138C31.0692 23.9018 30.5426 24.1214 29.9926 24.1253ZM29.9696 21.3413C29.7862 21.3476 29.6126 21.4256 29.4862 21.5585C29.3598 21.6915 29.2906 21.8688 29.2936 22.0523C29.2999 22.2357 29.3779 22.4093 29.5109 22.5357C29.6439 22.6621 29.8211 22.7313 30.0046 22.7283C30.1881 22.722 30.3619 22.6439 30.4884 22.5107C30.6148 22.3775 30.6839 22.1999 30.6806 22.0163C30.6741 21.8331 30.5959 21.6597 30.463 21.5335C30.33 21.4073 30.1529 21.3383 29.9696 21.3413Z" fill="#FFFBFB"/>
    <path d="M18.9247 18.7115C18.8967 18.3795 18.9627 18.1235 19.3657 18.1215C19.7857 18.1215 19.8037 18.4105 19.8017 18.5795C20.2717 18.8685 20.6877 19.0875 21.0577 19.3675C21.2203 19.5137 21.3308 19.7089 21.3727 19.9235C21.4257 20.1605 21.4567 20.5985 21.3727 20.6325C21.0852 20.713 20.784 20.7321 20.4887 20.6885C20.4277 20.6885 20.3787 20.5115 20.3197 20.4195C20.1907 20.2195 20.0577 20.0195 19.9267 19.8195L19.8127 19.8855V21.3155C20.8397 21.5585 21.6377 22.0625 21.6327 23.2465C21.6277 24.4305 20.8477 24.9465 19.8147 25.1795C19.7317 25.5015 19.9647 25.9905 19.3377 25.9685C18.7797 25.9495 18.9807 25.5205 18.9137 25.2055C18.7567 25.1655 18.5917 25.1305 18.4297 25.0815C18.0318 24.9582 17.6852 24.7081 17.4427 24.3694C17.2002 24.0307 17.0752 23.6219 17.0867 23.2055C17.0987 22.9295 17.2057 22.8255 17.4867 22.8185C18.1517 22.8015 18.1517 22.7905 18.3007 23.4285C18.3867 23.7955 18.5077 23.9175 18.9107 24.0285V22.3985C17.6687 21.9435 17.2267 21.4205 17.2607 20.4575C17.2827 19.5945 17.8097 19.0305 18.9247 18.7115ZM19.8007 24.0965C20.3007 23.9105 20.5007 23.6405 20.4347 23.2485C20.4264 23.0822 20.3572 22.9247 20.2403 22.8061C20.1234 22.6875 19.9669 22.6161 19.8007 22.6055V24.0965ZM18.9067 19.8255C18.7585 19.861 18.6265 19.9453 18.532 20.0648C18.4375 20.1843 18.386 20.3322 18.3857 20.4845C18.3809 20.6418 18.4299 20.7961 18.5246 20.9217C18.6193 21.0473 18.7541 21.1369 18.9067 21.1755V19.8255Z" fill="#FFFBFB"/>
    </svg>
    